<?xml version="1.0" encoding="UTF-8" standalone="no"?>
<!DOCTYPE svg PUBLIC "-//W3C//DTD SVG 1.0//EN" "http://www.w3.org/TR/2001/PR-SVG-20010719/DTD/svg10.dtd">
<svg width="14cm" height="13cm" viewBox="7 6 271 242" xmlns="http://www.w3.org/2000/svg" xmlns:xlink="http://www.w3.org/1999/xlink">
  <g>
    <rect style="fill: #ffffff" x="8" y="28" width="72" height="176"/>
    <rect style="fill: none; fill-opacity:0; stroke-width: 0.4; stroke-dasharray: 4; stroke: #000000" x="8" y="28" width="72" height="176"/>
  </g>
  <g>
    <rect style="fill: #ffffff" x="88" y="16" width="190" height="220"/>
    <rect style="fill: none; fill-opacity:0; stroke-width: 0.4; stroke-dasharray: 4; stroke: #000000" x="88" y="16" width="190" height="220"/>
  </g>
  <g>
    <rect style="fill: #c7ffc7" x="12" y="38" width="32" height="160"/>
    <rect style="fill: none; fill-opacity:0; stroke-width: 0.4; stroke: #000000" x="12" y="38" width="32" height="160"/>
  </g>
  <g>
    <rect style="fill: #c7ffc7" x="184" y="28" width="68" height="178"/>
    <rect style="fill: none; fill-opacity:0; stroke-width: 0.4; stroke: #000000" x="184" y="28" width="68" height="178"/>
  </g>
  <g>
    <rect style="fill: #ffffc7" x="76" y="48" width="16" height="150"/>
    <rect style="fill: none; fill-opacity:0; stroke-width: 0.4; stroke: #000000" x="76" y="48" width="16" height="150"/>
  </g>
  <rect style="fill: none; fill-opacity:0; stroke-width: 0.4; stroke-dasharray: 4; stroke: #000000" x="186" y="34" width="34" height="160"/>
  <text font-size="6.77333" style="fill: #000000;text-anchor:middle;font-family:CMU Serif;font-style:normal;font-weight:normal" x="28" y="36.3">
    <tspan x="28" y="36.3">XC3S500E</tspan>
  </text>
  <text font-size="7.90222" style="fill: #000000;text-anchor:middle;font-family:CMU Serif;font-style:normal;font-weight:normal" x="44" y="26">
    <tspan x="44" y="26">RTSC</tspan>
  </text>
  <text font-size="4.51556" style="fill: #000000;text-anchor:end;font-family:CMU Serif;font-style:normal;font-weight:normal" x="42" y="49.55">
    <tspan x="42" y="49.55">VCCIO</tspan>
  </text>
  <text font-size="4.51556" style="fill: #000000;text-anchor:end;font-family:CMU Serif;font-style:normal;font-weight:normal" x="42" y="59.55">
    <tspan x="42" y="59.55">GPIO</tspan>
  </text>
  <text font-size="4.51556" style="fill: #000000;text-anchor:end;font-family:CMU Serif;font-style:normal;font-weight:normal" x="42" y="69.55">
    <tspan x="42" y="69.55">GPIO</tspan>
  </text>
  <text font-size="4.51556" style="fill: #000000;text-anchor:end;font-family:CMU Serif;font-style:normal;font-weight:normal" x="42" y="79.55">
    <tspan x="42" y="79.55">GPIO</tspan>
  </text>
  <text font-size="4.51556" style="fill: #000000;text-anchor:end;font-family:CMU Serif;font-style:normal;font-weight:normal" x="42" y="89.4838">
    <tspan x="42" y="89.4838">GPIOx2</tspan>
  </text>
  <text font-size="4.51556" style="fill: #000000;text-anchor:start;font-family:CMU Serif;font-style:normal;font-weight:normal" x="188" y="159.55">
    <tspan x="188" y="159.55">DB[0:6]</tspan>
  </text>
  <text font-size="4.51556" style="fill: #000000;text-anchor:start;font-family:CMU Serif;font-style:normal;font-weight:normal" x="188" y="169.55">
    <tspan x="188" y="169.55">DoutA/DB[7]</tspan>
  </text>
  <text font-size="4.51556" style="fill: #000000;text-anchor:start;font-family:CMU Serif;font-style:normal;font-weight:normal" x="188" y="179.55">
    <tspan x="188" y="179.55">DoutB/DB[8]</tspan>
  </text>
  <text font-size="4.51556" style="fill: #000000;text-anchor:start;font-family:CMU Serif;font-style:normal;font-weight:normal" x="188" y="189.55">
    <tspan x="188" y="189.55">DB[9:15]</tspan>
  </text>
  <text font-size="4.51556" style="fill: #000000;text-anchor:start;font-family:CMU Serif;font-style:normal;font-weight:normal" x="188" y="149.55">
    <tspan x="188" y="149.55">OS[0:2]</tspan>
  </text>
  <text font-size="4.51556" style="fill: #000000;text-anchor:end;font-family:CMU Serif;font-style:normal;font-weight:normal" x="250" y="49.55">
    <tspan x="250" y="49.55">V[1:8]</tspan>
  </text>
  <text font-size="4.51556" style="fill: #000000;text-anchor:end;font-family:CMU Serif;font-style:normal;font-weight:normal" x="250" y="59.55">
    <tspan x="250" y="59.55">V[1:8]GND</tspan>
  </text>
  <text font-size="6.77333" style="fill: #000000;text-anchor:middle;font-family:CMU Serif;font-style:normal;font-weight:normal" x="218" y="26.3">
    <tspan x="218" y="26.3">AD7606</tspan>
  </text>
  <text font-size="4.51556" style="fill: #000000;text-anchor:start;font-family:CMU Serif;font-style:normal;font-weight:normal" x="188" y="39.55">
    <tspan x="188" y="39.55">VDrive</tspan>
  </text>
  <text font-size="7.90222" style="fill: #000000;text-anchor:middle;font-family:CMU Serif;font-style:normal;font-weight:normal" x="180" y="14">
    <tspan x="180" y="14">Electrophysiology Interface</tspan>
  </text>
  <text font-size="4.51556" style="fill: #000000;text-anchor:middle;font-family:CMU Serif;font-style:normal;font-weight:normal" x="200" y="202.9">
    <tspan x="200" y="202.9">AGNDx6</tspan>
  </text>
  <text font-size="4.51556" style="fill: #000000;text-anchor:middle;font-family:CMU Serif;font-style:normal;font-weight:normal" x="56" y="40.9">
    <tspan x="56" y="40.9">VCC3V3</tspan>
  </text>
  <text font-size="4.51556" style="fill: #000000;text-anchor:start;font-family:CMU Serif;font-style:normal;font-weight:normal" x="188" y="69.55">
    <tspan x="188" y="69.55">PAR/SER</tspan>
  </text>
  <text font-size="4.51556" style="fill: #000000;text-anchor:start;font-family:CMU Serif;font-style:normal;font-weight:normal" x="188" y="49.55">
    <tspan x="188" y="49.55">STBY</tspan>
  </text>
  <text font-size="4.51556" style="fill: #000000;text-anchor:start;font-family:CMU Serif;font-style:normal;font-weight:normal" x="188" y="79.55">
    <tspan x="188" y="79.55">RANGE</tspan>
  </text>
  <text font-size="4.51556" style="fill: #000000;text-anchor:start;font-family:CMU Serif;font-style:normal;font-weight:normal" x="188" y="89.55">
    <tspan x="188" y="89.55">CONVST[A:B]</tspan>
  </text>
  <text font-size="4.51556" style="fill: #000000;text-anchor:start;font-family:CMU Serif;font-style:normal;font-weight:normal" x="188" y="99.55">
    <tspan x="188" y="99.55">RESET</tspan>
  </text>
  <text font-size="4.51556" style="fill: #000000;text-anchor:start;font-family:CMU Serif;font-style:normal;font-weight:normal" x="188" y="109.484">
    <tspan x="188" y="109.484">RD/SCLK</tspan>
  </text>
  <text font-size="4.51556" style="fill: #000000;text-anchor:start;font-family:CMU Serif;font-style:normal;font-weight:normal" x="188" y="119.55">
    <tspan x="188" y="119.55">CS</tspan>
  </text>
  <text font-size="4.51556" style="fill: #000000;text-anchor:start;font-family:CMU Serif;font-style:normal;font-weight:normal" x="188" y="129.55">
    <tspan x="188" y="129.55">BUSY</tspan>
  </text>
  <text font-size="4.51556" style="fill: #000000;text-anchor:start;font-family:CMU Serif;font-style:normal;font-weight:normal" x="188" y="139.55">
    <tspan x="188" y="139.55">FRSTDATA</tspan>
  </text>
  <text font-size="4.51556" style="fill: #000000;text-anchor:start;font-family:CMU Serif;font-style:normal;font-weight:normal" x="188" y="59.55">
    <tspan x="188" y="59.55">REFSEL</tspan>
  </text>
  <text font-size="4.51556" style="fill: #000000;text-anchor:middle;font-family:CMU Serif;font-style:normal;font-weight:normal" x="174" y="20.9">
    <tspan x="174" y="20.9">+3.3VADC</tspan>
  </text>
  <text font-size="4.51556" style="fill: #000000;text-anchor:start;font-family:CMU Serif;font-style:normal;font-weight:normal" x="258.8" y="46.7278">
    <tspan x="258.8" y="46.7278">From</tspan>
    <tspan x="258.8" y="52.3722">PreAmp</tspan>
  </text>
  <text font-size="4.51556" style="fill: #000000;text-anchor:end;font-family:CMU Serif;font-style:normal;font-weight:normal" x="250" y="69.55">
    <tspan x="250" y="69.55">REGCAP</tspan>
  </text>
  <text font-size="4.51556" style="fill: #000000;text-anchor:end;font-family:CMU Serif;font-style:normal;font-weight:normal" x="250" y="109.55">
    <tspan x="250" y="109.55">REGCAP</tspan>
  </text>
  <text font-size="4.51556" style="fill: #000000;text-anchor:end;font-family:CMU Serif;font-style:normal;font-weight:normal" x="250" y="149.55">
    <tspan x="250" y="149.55">REFIn/Out</tspan>
  </text>
  <text font-size="4.51556" style="fill: #000000;text-anchor:end;font-family:CMU Serif;font-style:normal;font-weight:normal" x="250" y="189.55">
    <tspan x="250" y="189.55">REFCAPB</tspan>
  </text>
  <text font-size="4.51556" style="fill: #000000;text-anchor:end;font-family:CMU Serif;font-style:normal;font-weight:normal" x="250" y="183.55">
    <tspan x="250" y="183.55">REFCAPA</tspan>
  </text>
  <text font-size="4.51556" style="fill: #000000;text-anchor:middle;font-family:CMU Serif;font-style:normal;font-weight:normal" x="234" y="202.9">
    <tspan x="234" y="202.9">REFGNDx2</tspan>
  </text>
  <text font-size="4.51556" style="fill: #000000;text-anchor:end;font-family:CMU Serif;font-style:normal;font-weight:normal" x="250" y="39.55">
    <tspan x="250" y="39.55">AVCCx4</tspan>
  </text>
  <text font-size="4.51556" style="fill: #000000;text-anchor:middle;font-family:CMU Serif;font-style:normal;font-weight:normal" x="262" y="22.9">
    <tspan x="262" y="22.9">+5VA</tspan>
  </text>
  <text font-size="4.51556" style="fill: #000000;text-anchor:end;font-family:CMU Serif;font-style:normal;font-weight:normal" x="42" y="109.55">
    <tspan x="42" y="109.55">GPIO</tspan>
  </text>
  <text font-size="4.51556" style="fill: #000000;text-anchor:end;font-family:CMU Serif;font-style:normal;font-weight:normal" x="42" y="99.55">
    <tspan x="42" y="99.55">GPIO</tspan>
  </text>
  <text font-size="4.51556" style="fill: #000000;text-anchor:end;font-family:CMU Serif;font-style:normal;font-weight:normal" x="42" y="119.55">
    <tspan x="42" y="119.55">GPIO</tspan>
  </text>
  <text font-size="4.51556" style="fill: #000000;text-anchor:end;font-family:CMU Serif;font-style:normal;font-weight:normal" x="42" y="129.55">
    <tspan x="42" y="129.55">GPIO</tspan>
  </text>
  <text font-size="4.51556" style="fill: #000000;text-anchor:end;font-family:CMU Serif;font-style:normal;font-weight:normal" x="42" y="169.55">
    <tspan x="42" y="169.55">GPIO</tspan>
  </text>
  <text font-size="4.51556" style="fill: #000000;text-anchor:end;font-family:CMU Serif;font-style:normal;font-weight:normal" x="42" y="189.55">
    <tspan x="42" y="189.55">GPIOx7</tspan>
  </text>
  <text font-size="4.51556" style="fill: #000000;text-anchor:end;font-family:CMU Serif;font-style:normal;font-weight:normal" x="42" y="159.55">
    <tspan x="42" y="159.55">GPIOx7</tspan>
  </text>
  <text font-size="4.51556" style="fill: #000000;text-anchor:end;font-family:CMU Serif;font-style:normal;font-weight:normal" x="42" y="149.55">
    <tspan x="42" y="149.55">GPIOx3</tspan>
  </text>
  <text font-size="4.51556" style="fill: #000000;text-anchor:end;font-family:CMU Serif;font-style:normal;font-weight:normal" x="42" y="139.55">
    <tspan x="42" y="139.55">GPIO</tspan>
  </text>
  <text font-size="4.51556" style="fill: #000000;text-anchor:end;font-family:CMU Serif;font-style:normal;font-weight:normal" x="42" y="179.55">
    <tspan x="42" y="179.55">GPIO</tspan>
  </text>
  <polyline style="fill: none; fill-opacity:0; stroke-width: 0.4; stroke: #000000" points="146,200 146,207.2 144,208 148,209.6 144,211.2 148,212.8 144,214.4 148,216 146,216.8 146,224 "/>
  <g>
    <line style="fill: none; fill-opacity:0; stroke-width: 0.4; stroke: #000000" x1="160" y1="224" x2="160" y2="228"/>
    <line style="fill: none; fill-opacity:0; stroke-width: 0.4; stroke: #000000" x1="156" y1="228" x2="164" y2="228"/>
    <line style="fill: none; fill-opacity:0; stroke-width: 0.4; stroke: #000000" x1="157.34" y1="230" x2="162.66" y2="230"/>
    <line style="fill: none; fill-opacity:0; stroke-width: 0.4; stroke: #000000" x1="158.68" y1="232" x2="161.32" y2="232"/>
  </g>
  <g>
    <ellipse style="fill: #000000" cx="146" cy="188" rx="0.5" ry="0.5"/>
    <ellipse style="fill: none; fill-opacity:0; stroke-width: 2; stroke: #000000" cx="146" cy="188" rx="0.5" ry="0.5"/>
  </g>
  <polyline style="fill: none; fill-opacity:0; stroke-width: 0.4; stroke: #000000" points="48,58 55.2,58 56,56 57.6,60 59.2,56 60.8,60 62.4,56 64,60 64.8,58 72,58 "/>
  <polyline style="fill: none; fill-opacity:0; stroke-width: 0.4; stroke: #000000" points="48,68 55.2,68 56,66 57.6,70 59.2,66 60.8,70 62.4,66 64,70 64.8,68 72,68 "/>
  <polyline style="fill: none; fill-opacity:0; stroke-width: 0.4; stroke: #000000" points="48,78 55.2,78 56,76 57.6,80 59.2,76 60.8,80 62.4,76 64,80 64.8,78 72,78 "/>
  <polyline style="fill: none; fill-opacity:0; stroke-width: 0.4; stroke: #000000" points="48,88 55.2,88 56,86 57.6,90 59.2,86 60.8,90 62.4,86 64,90 64.8,88 72,88 "/>
  <g>
    <ellipse style="fill: #ffffff" cx="182" cy="48" rx="2" ry="2"/>
    <ellipse style="fill: none; fill-opacity:0; stroke-width: 0.4; stroke: #000000" cx="182" cy="48" rx="2" ry="2"/>
  </g>
  <polyline style="fill: none; fill-opacity:0; stroke-width: 0.4; stroke: #000000" points="160,200 160,207.2 158,208 162,209.6 158,211.2 162,212.8 158,214.4 162,216 160,216.8 160,224 "/>
  <polyline style="fill: none; fill-opacity:0; stroke-width: 0.4; stroke: #000000" points="96,58 103.2,58 104,56 105.6,60 107.2,56 108.8,60 110.4,56 112,60 112.8,58 120,58 "/>
  <polyline style="fill: none; fill-opacity:0; stroke-width: 0.4; stroke: #000000" points="96,68 103.2,68 104,66 105.6,70 107.2,66 108.8,70 110.4,66 112,70 112.8,68 120,68 "/>
  <polyline style="fill: none; fill-opacity:0; stroke-width: 0.4; stroke: #000000" points="96,78 103.2,78 104,76 105.6,80 107.2,76 108.8,80 110.4,76 112,80 112.8,78 120,78 "/>
  <polyline style="fill: none; fill-opacity:0; stroke-width: 0.4; stroke: #000000" points="96,88 103.2,88 104,86 105.6,90 107.2,86 108.8,90 110.4,86 112,90 112.8,88 120,88 "/>
  <g>
    <line style="fill: none; fill-opacity:0; stroke-width: 0.4; stroke: #000000" x1="146" y1="224" x2="146" y2="228"/>
    <line style="fill: none; fill-opacity:0; stroke-width: 0.4; stroke: #000000" x1="142" y1="228" x2="150" y2="228"/>
    <line style="fill: none; fill-opacity:0; stroke-width: 0.4; stroke: #000000" x1="143.34" y1="230" x2="148.66" y2="230"/>
    <line style="fill: none; fill-opacity:0; stroke-width: 0.4; stroke: #000000" x1="144.68" y1="232" x2="147.32" y2="232"/>
  </g>
  <g>
    <line style="fill: none; fill-opacity:0; stroke-width: 0.4; stroke: #000000" x1="262" y1="188" x2="262" y2="197.6"/>
    <line style="fill: none; fill-opacity:0; stroke-width: 0.4; stroke: #000000" x1="256" y1="197.6" x2="268" y2="197.6"/>
    <line style="fill: none; fill-opacity:0; stroke-width: 0.4; stroke: #000000" x1="256" y1="202.4" x2="268" y2="202.4"/>
    <line style="fill: none; fill-opacity:0; stroke-width: 0.4; stroke: #000000" x1="262" y1="202.4" x2="262" y2="212"/>
  </g>
  <g>
    <line style="fill: none; fill-opacity:0; stroke-width: 0.4; stroke: #000000" x1="120" y1="88" x2="180.8" y2="88"/>
    <polygon style="fill: #000000" points="180.8,89.5 183.8,88 180.8,86.5 "/>
    <polygon style="fill: none; fill-opacity:0; stroke-width: 0.4; stroke: #000000" points="180.8,89.5 183.8,88 180.8,86.5 "/>
  </g>
  <g>
    <line style="fill: none; fill-opacity:0; stroke-width: 0.4; stroke: #000000" x1="120" y1="68" x2="180.8" y2="68"/>
    <polygon style="fill: #000000" points="180.8,69.5 183.8,68 180.8,66.5 "/>
    <polygon style="fill: none; fill-opacity:0; stroke-width: 0.4; stroke: #000000" points="180.8,69.5 183.8,68 180.8,66.5 "/>
  </g>
  <g>
    <line style="fill: none; fill-opacity:0; stroke-width: 0.4; stroke: #000000" x1="120" y1="58" x2="180.8" y2="58"/>
    <polygon style="fill: #000000" points="180.8,59.5 183.8,58 180.8,56.5 "/>
    <polygon style="fill: none; fill-opacity:0; stroke-width: 0.4; stroke: #000000" points="180.8,59.5 183.8,58 180.8,56.5 "/>
  </g>
  <g>
    <line style="fill: none; fill-opacity:0; stroke-width: 0.4; stroke: #000000" x1="120" y1="78" x2="180.8" y2="78"/>
    <polygon style="fill: #000000" points="180.8,79.5 183.8,78 180.8,76.5 "/>
    <polygon style="fill: none; fill-opacity:0; stroke-width: 0.4; stroke: #000000" points="180.8,79.5 183.8,78 180.8,76.5 "/>
  </g>
  <line style="fill: none; fill-opacity:0; stroke-width: 0.4; stroke: #000000" x1="44" y1="58" x2="48" y2="58"/>
  <line style="fill: none; fill-opacity:0; stroke-width: 0.4; stroke: #000000" x1="44" y1="68" x2="48" y2="68"/>
  <line style="fill: none; fill-opacity:0; stroke-width: 0.4; stroke: #000000" x1="44" y1="78" x2="48" y2="78"/>
  <line style="fill: none; fill-opacity:0; stroke-width: 0.4; stroke: #000000" x1="44" y1="88" x2="48" y2="88"/>
  <line style="fill: none; fill-opacity:0; stroke-width: 0.4; stroke: #000000" x1="72" y1="58" x2="96.0029" y2="58"/>
  <line style="fill: none; fill-opacity:0; stroke-width: 0.4; stroke: #000000" x1="72" y1="68" x2="96" y2="68"/>
  <line style="fill: none; fill-opacity:0; stroke-width: 0.4; stroke: #000000" x1="72" y1="78" x2="96" y2="78"/>
  <line style="fill: none; fill-opacity:0; stroke-width: 0.4; stroke: #000000" x1="72" y1="88" x2="96" y2="88"/>
  <g>
    <ellipse style="fill: #000000" cx="132" cy="158" rx="0.5" ry="0.5"/>
    <ellipse style="fill: none; fill-opacity:0; stroke-width: 2; stroke: #000000" cx="132" cy="158" rx="0.5" ry="0.5"/>
  </g>
  <text font-size="4.51556" style="fill: #000000;text-anchor:middle;font-family:CMU Serif;font-style:normal;font-weight:normal" x="108" y="64.9">
    <tspan x="108" y="64.9">0</tspan>
  </text>
  <text font-size="4.51556" style="fill: #000000;text-anchor:middle;font-family:CMU Serif;font-style:normal;font-weight:normal" x="108" y="74.9">
    <tspan x="108" y="74.9">0</tspan>
  </text>
  <text font-size="4.51556" style="fill: #000000;text-anchor:middle;font-family:CMU Serif;font-style:normal;font-weight:normal" x="60" y="54.9">
    <tspan x="60" y="54.9">75</tspan>
  </text>
  <text font-size="4.51556" style="fill: #000000;text-anchor:middle;font-family:CMU Serif;font-style:normal;font-weight:normal" x="60" y="64.9">
    <tspan x="60" y="64.9">75</tspan>
  </text>
  <text font-size="4.51556" style="fill: #000000;text-anchor:middle;font-family:CMU Serif;font-style:normal;font-weight:normal" x="60" y="74.9">
    <tspan x="60" y="74.9">75</tspan>
  </text>
  <text font-size="4.51556" style="fill: #000000;text-anchor:middle;font-family:CMU Serif;font-style:normal;font-weight:normal" x="60" y="84.9">
    <tspan x="60" y="84.9">75</tspan>
  </text>
  <polyline style="fill: none; fill-opacity:0; stroke-width: 0.4; stroke: #000000" points="174,24 174,24 174,38 184,38 "/>
  <line style="fill: none; fill-opacity:0; stroke-width: 0.4; stroke: #000000" x1="53" y1="42" x2="59" y2="42"/>
  <polyline style="fill: none; fill-opacity:0; stroke-width: 0.4; stroke: #000000" points="56,42 56,42 56,48 44,48 "/>
  <g>
    <polygon style="fill: #ffffff" points="258,212 266,212 262,218 "/>
    <polygon style="fill: none; fill-opacity:0; stroke-width: 0.4; stroke: #000000" points="258,212 266,212 262,218 "/>
  </g>
  <polyline style="fill: none; fill-opacity:0; stroke-width: 0.4; stroke: #000000" points="48,188 55.2,188 56,186 57.6,190 59.2,186 60.8,190 62.4,186 64,190 64.8,188 72,188 "/>
  <polyline style="fill: none; fill-opacity:0; stroke-width: 0.4; stroke: #000000" points="96,188 103.2,188 104,186 105.6,190 107.2,186 108.8,190 110.4,186 112,190 112.8,188 120,188 "/>
  <line style="fill: none; fill-opacity:0; stroke-width: 0.4; stroke: #000000" x1="120" y1="188" x2="184" y2="188"/>
  <line style="fill: none; fill-opacity:0; stroke-width: 0.4; stroke: #000000" x1="72" y1="188" x2="96" y2="188"/>
  <text font-size="4.51556" style="fill: #000000;text-anchor:middle;font-family:CMU Serif;font-style:normal;font-weight:normal" x="60" y="184.9">
    <tspan x="60" y="184.9">75</tspan>
  </text>
  <polyline style="fill: none; fill-opacity:0; stroke-width: 0.4; stroke: #000000" points="48,178 55.2,178 56,176 57.6,180 59.2,176 60.8,180 62.4,176 64,180 64.8,178 72,178 "/>
  <polyline style="fill: none; fill-opacity:0; stroke-width: 0.4; stroke: #000000" points="96,178 103.2,178 104,176 105.6,180 107.2,176 108.8,180 110.4,176 112,180 112.8,178 120,178 "/>
  <line style="fill: none; fill-opacity:0; stroke-width: 0.4; stroke: #000000" x1="120" y1="178" x2="184" y2="178"/>
  <line style="fill: none; fill-opacity:0; stroke-width: 0.4; stroke: #000000" x1="72" y1="178" x2="96" y2="178"/>
  <text font-size="4.51556" style="fill: #000000;text-anchor:middle;font-family:CMU Serif;font-style:normal;font-weight:normal" x="108" y="174.9">
    <tspan x="108" y="174.9">0</tspan>
  </text>
  <text font-size="4.51556" style="fill: #000000;text-anchor:middle;font-family:CMU Serif;font-style:normal;font-weight:normal" x="60" y="174.9">
    <tspan x="60" y="174.9">75</tspan>
  </text>
  <polyline style="fill: none; fill-opacity:0; stroke-width: 0.4; stroke: #000000" points="48,168 55.2,168 56,166 57.6,170 59.2,166 60.8,170 62.4,166 64,170 64.8,168 72,168 "/>
  <polyline style="fill: none; fill-opacity:0; stroke-width: 0.4; stroke: #000000" points="96,168 103.2,168 104,166 105.6,170 107.2,166 108.8,170 110.4,166 112,170 112.8,168 120,168 "/>
  <line style="fill: none; fill-opacity:0; stroke-width: 0.4; stroke: #000000" x1="120" y1="168" x2="184" y2="168"/>
  <line style="fill: none; fill-opacity:0; stroke-width: 0.4; stroke: #000000" x1="72" y1="168" x2="96" y2="168"/>
  <text font-size="4.51556" style="fill: #000000;text-anchor:middle;font-family:CMU Serif;font-style:normal;font-weight:normal" x="108" y="164.9">
    <tspan x="108" y="164.9">0</tspan>
  </text>
  <text font-size="4.51556" style="fill: #000000;text-anchor:middle;font-family:CMU Serif;font-style:normal;font-weight:normal" x="60" y="164.9">
    <tspan x="60" y="164.9">75</tspan>
  </text>
  <polyline style="fill: none; fill-opacity:0; stroke-width: 0.4; stroke: #000000" points="48,158 55.2,158 56,156 57.6,160 59.2,156 60.8,160 62.4,156 64,160 64.8,158 72,158 "/>
  <polyline style="fill: none; fill-opacity:0; stroke-width: 0.4; stroke: #000000" points="96,158 103.2,158 104,156 105.6,160 107.2,156 108.8,160 110.4,156 112,160 112.8,158 120,158 "/>
  <line style="fill: none; fill-opacity:0; stroke-width: 0.4; stroke: #000000" x1="120" y1="158" x2="184" y2="158"/>
  <line style="fill: none; fill-opacity:0; stroke-width: 0.4; stroke: #000000" x1="72" y1="158" x2="96" y2="158"/>
  <text font-size="4.51556" style="fill: #000000;text-anchor:middle;font-family:CMU Serif;font-style:normal;font-weight:normal" x="60" y="154.9">
    <tspan x="60" y="154.9">75</tspan>
  </text>
  <polyline style="fill: none; fill-opacity:0; stroke-width: 0.4; stroke: #000000" points="48,148 55.2,148 56,146 57.6,150 59.2,146 60.8,150 62.4,146 64,150 64.8,148 72,148 "/>
  <polyline style="fill: none; fill-opacity:0; stroke-width: 0.4; stroke: #000000" points="96,148 103.2,148 104,146 105.6,150 107.2,146 108.8,150 110.4,146 112,150 112.8,148 120,148 "/>
  <g>
    <line style="fill: none; fill-opacity:0; stroke-width: 0.4; stroke: #000000" x1="120" y1="148" x2="180.8" y2="148"/>
    <polygon style="fill: #000000" points="180.8,149.5 183.8,148 180.8,146.5 "/>
    <polygon style="fill: none; fill-opacity:0; stroke-width: 0.4; stroke: #000000" points="180.8,149.5 183.8,148 180.8,146.5 "/>
  </g>
  <line style="fill: none; fill-opacity:0; stroke-width: 0.4; stroke: #000000" x1="44" y1="148" x2="48" y2="148"/>
  <line style="fill: none; fill-opacity:0; stroke-width: 0.4; stroke: #000000" x1="72" y1="148" x2="96" y2="148"/>
  <text font-size="4.51556" style="fill: #000000;text-anchor:middle;font-family:CMU Serif;font-style:normal;font-weight:normal" x="108" y="144.9">
    <tspan x="108" y="144.9">0</tspan>
  </text>
  <text font-size="4.51556" style="fill: #000000;text-anchor:middle;font-family:CMU Serif;font-style:normal;font-weight:normal" x="60" y="144.9">
    <tspan x="60" y="144.9">75</tspan>
  </text>
  <polyline style="fill: none; fill-opacity:0; stroke-width: 0.4; stroke: #000000" points="48,138 55.2,138 56,136 57.6,140 59.2,136 60.8,140 62.4,136 64,140 64.8,138 72,138 "/>
  <polyline style="fill: none; fill-opacity:0; stroke-width: 0.4; stroke: #000000" points="96,138 103.2,138 104,136 105.6,140 107.2,136 108.8,140 110.4,136 112,140 112.8,138 120,138 "/>
  <line style="fill: none; fill-opacity:0; stroke-width: 0.4; stroke: #000000" x1="120" y1="138" x2="184" y2="138"/>
  <line style="fill: none; fill-opacity:0; stroke-width: 0.4; stroke: #000000" x1="72" y1="138" x2="96" y2="138"/>
  <text font-size="4.51556" style="fill: #000000;text-anchor:middle;font-family:CMU Serif;font-style:normal;font-weight:normal" x="108" y="134.9">
    <tspan x="108" y="134.9">0</tspan>
  </text>
  <text font-size="4.51556" style="fill: #000000;text-anchor:middle;font-family:CMU Serif;font-style:normal;font-weight:normal" x="60" y="134.9">
    <tspan x="60" y="134.9">75</tspan>
  </text>
  <polyline style="fill: none; fill-opacity:0; stroke-width: 0.4; stroke: #000000" points="48,128 55.2,128 56,126 57.6,130 59.2,126 60.8,130 62.4,126 64,130 64.8,128 72,128 "/>
  <polyline style="fill: none; fill-opacity:0; stroke-width: 0.4; stroke: #000000" points="96,128 103.2,128 104,126 105.6,130 107.2,126 108.8,130 110.4,126 112,130 112.8,128 120,128 "/>
  <line style="fill: none; fill-opacity:0; stroke-width: 0.4; stroke: #000000" x1="120" y1="128" x2="184" y2="128"/>
  <line style="fill: none; fill-opacity:0; stroke-width: 0.4; stroke: #000000" x1="72" y1="128" x2="96" y2="128"/>
  <text font-size="4.51556" style="fill: #000000;text-anchor:middle;font-family:CMU Serif;font-style:normal;font-weight:normal" x="108" y="124.9">
    <tspan x="108" y="124.9">0</tspan>
  </text>
  <text font-size="4.51556" style="fill: #000000;text-anchor:middle;font-family:CMU Serif;font-style:normal;font-weight:normal" x="60" y="124.9">
    <tspan x="60" y="124.9">75</tspan>
  </text>
  <polyline style="fill: none; fill-opacity:0; stroke-width: 0.4; stroke: #000000" points="48,118 55.2,118 56,116 57.6,120 59.2,116 60.8,120 62.4,116 64,120 64.8,118 72,118 "/>
  <polyline style="fill: none; fill-opacity:0; stroke-width: 0.4; stroke: #000000" points="96,118 103.2,118 104,116 105.6,120 107.2,116 108.8,120 110.4,116 112,120 112.8,118 120,118 "/>
  <g>
    <line style="fill: none; fill-opacity:0; stroke-width: 0.4; stroke: #000000" x1="120" y1="118" x2="176.8" y2="118"/>
    <polygon style="fill: #000000" points="176.8,119.5 179.8,118 176.8,116.5 "/>
    <polygon style="fill: none; fill-opacity:0; stroke-width: 0.4; stroke: #000000" points="176.8,119.5 179.8,118 176.8,116.5 "/>
  </g>
  <line style="fill: none; fill-opacity:0; stroke-width: 0.4; stroke: #000000" x1="44" y1="118" x2="48" y2="118"/>
  <line style="fill: none; fill-opacity:0; stroke-width: 0.4; stroke: #000000" x1="72" y1="118" x2="96" y2="118"/>
  <text font-size="4.51556" style="fill: #000000;text-anchor:middle;font-family:CMU Serif;font-style:normal;font-weight:normal" x="108" y="114.9">
    <tspan x="108" y="114.9">0</tspan>
  </text>
  <text font-size="4.51556" style="fill: #000000;text-anchor:middle;font-family:CMU Serif;font-style:normal;font-weight:normal" x="60" y="114.9">
    <tspan x="60" y="114.9">75</tspan>
  </text>
  <polyline style="fill: none; fill-opacity:0; stroke-width: 0.4; stroke: #000000" points="48,98 55.2,98 56,96 57.6,100 59.2,96 60.8,100 62.4,96 64,100 64.8,98 72,98 "/>
  <polyline style="fill: none; fill-opacity:0; stroke-width: 0.4; stroke: #000000" points="96,98 103.2,98 104,96 105.6,100 107.2,96 108.8,100 110.4,96 112,100 112.8,98 120,98 "/>
  <g>
    <line style="fill: none; fill-opacity:0; stroke-width: 0.4; stroke: #000000" x1="120" y1="98" x2="180.8" y2="98"/>
    <polygon style="fill: #000000" points="180.8,99.5 183.8,98 180.8,96.5 "/>
    <polygon style="fill: none; fill-opacity:0; stroke-width: 0.4; stroke: #000000" points="180.8,99.5 183.8,98 180.8,96.5 "/>
  </g>
  <line style="fill: none; fill-opacity:0; stroke-width: 0.4; stroke: #000000" x1="44" y1="98" x2="48" y2="98"/>
  <line style="fill: none; fill-opacity:0; stroke-width: 0.4; stroke: #000000" x1="72" y1="98" x2="96" y2="98"/>
  <text font-size="4.51556" style="fill: #000000;text-anchor:middle;font-family:CMU Serif;font-style:normal;font-weight:normal" x="108" y="94.9">
    <tspan x="108" y="94.9">0</tspan>
  </text>
  <text font-size="4.51556" style="fill: #000000;text-anchor:middle;font-family:CMU Serif;font-style:normal;font-weight:normal" x="60" y="94.9">
    <tspan x="60" y="94.9">75</tspan>
  </text>
  <polyline style="fill: none; fill-opacity:0; stroke-width: 0.4; stroke: #000000" points="48,108 55.2,108 56,106 57.6,110 59.2,106 60.8,110 62.4,106 64,110 64.8,108 72,108 "/>
  <polyline style="fill: none; fill-opacity:0; stroke-width: 0.4; stroke: #000000" points="96,108 103.2,108 104,106 105.6,110 107.2,106 108.8,110 110.4,106 112,110 112.8,108 120,108 "/>
  <g>
    <line style="fill: none; fill-opacity:0; stroke-width: 0.4; stroke: #000000" x1="120" y1="108" x2="176.8" y2="108"/>
    <polygon style="fill: #000000" points="176.8,109.5 179.8,108 176.8,106.5 "/>
    <polygon style="fill: none; fill-opacity:0; stroke-width: 0.4; stroke: #000000" points="176.8,109.5 179.8,108 176.8,106.5 "/>
  </g>
  <line style="fill: none; fill-opacity:0; stroke-width: 0.4; stroke: #000000" x1="44" y1="108" x2="48" y2="108"/>
  <line style="fill: none; fill-opacity:0; stroke-width: 0.4; stroke: #000000" x1="72" y1="108" x2="96" y2="108"/>
  <text font-size="4.51556" style="fill: #000000;text-anchor:middle;font-family:CMU Serif;font-style:normal;font-weight:normal" x="108" y="104.9">
    <tspan x="108" y="104.9">0</tspan>
  </text>
  <text font-size="4.51556" style="fill: #000000;text-anchor:middle;font-family:CMU Serif;font-style:normal;font-weight:normal" x="60" y="104.9">
    <tspan x="60" y="104.9">75</tspan>
  </text>
  <text font-size="4.51556" style="fill: #000000;text-anchor:middle;font-family:CMU Serif;font-style:normal;font-weight:normal" x="108" y="154.9">
    <tspan x="108" y="154.9">NotPOP</tspan>
  </text>
  <text font-size="4.51556" style="fill: #000000;text-anchor:middle;font-family:CMU Serif;font-style:normal;font-weight:normal" x="108" y="184.9">
    <tspan x="108" y="184.9">NotPOP</tspan>
  </text>
  <text font-size="4.51556" style="fill: #000000;text-anchor:end;font-family:CMU Serif;font-style:normal;font-weight:normal" x="142" y="213.55">
    <tspan x="142" y="213.55">0</tspan>
  </text>
  <text font-size="4.51556" style="fill: #000000;text-anchor:end;font-family:CMU Serif;font-style:normal;font-weight:normal" x="156" y="213.55">
    <tspan x="156" y="213.55">10k</tspan>
  </text>
  <line style="fill: none; fill-opacity:0; stroke-width: 0.4; stroke: #000000" x1="132" y1="200" x2="132" y2="158"/>
  <line style="fill: none; fill-opacity:0; stroke-width: 0.4; stroke: #000000" x1="146" y1="200" x2="146" y2="188"/>
  <g>
    <line style="fill: none; fill-opacity:0; stroke-width: 0.4; stroke: #000000" x1="48" y1="128" x2="47.2" y2="128"/>
    <polygon style="fill: #000000" points="47.2,126.5 44.2,128 47.2,129.5 "/>
    <polygon style="fill: none; fill-opacity:0; stroke-width: 0.4; stroke: #000000" points="47.2,126.5 44.2,128 47.2,129.5 "/>
  </g>
  <g>
    <line style="fill: none; fill-opacity:0; stroke-width: 0.4; stroke: #000000" x1="48" y1="138" x2="47.2" y2="138"/>
    <polygon style="fill: #000000" points="47.2,136.5 44.2,138 47.2,139.5 "/>
    <polygon style="fill: none; fill-opacity:0; stroke-width: 0.4; stroke: #000000" points="47.2,136.5 44.2,138 47.2,139.5 "/>
  </g>
  <g>
    <line style="fill: none; fill-opacity:0; stroke-width: 0.4; stroke: #000000" x1="48" y1="158" x2="47.2" y2="158"/>
    <polygon style="fill: #000000" points="47.2,156.5 44.2,158 47.2,159.5 "/>
    <polygon style="fill: none; fill-opacity:0; stroke-width: 0.4; stroke: #000000" points="47.2,156.5 44.2,158 47.2,159.5 "/>
  </g>
  <g>
    <line style="fill: none; fill-opacity:0; stroke-width: 0.4; stroke: #000000" x1="48" y1="168" x2="47.2" y2="168"/>
    <polygon style="fill: #000000" points="47.2,166.5 44.2,168 47.2,169.5 "/>
    <polygon style="fill: none; fill-opacity:0; stroke-width: 0.4; stroke: #000000" points="47.2,166.5 44.2,168 47.2,169.5 "/>
  </g>
  <g>
    <line style="fill: none; fill-opacity:0; stroke-width: 0.4; stroke: #000000" x1="48" y1="178" x2="47.2" y2="178"/>
    <polygon style="fill: #000000" points="47.2,176.5 44.2,178 47.2,179.5 "/>
    <polygon style="fill: none; fill-opacity:0; stroke-width: 0.4; stroke: #000000" points="47.2,176.5 44.2,178 47.2,179.5 "/>
  </g>
  <g>
    <line style="fill: none; fill-opacity:0; stroke-width: 0.4; stroke: #000000" x1="48" y1="188" x2="47.2" y2="188"/>
    <polygon style="fill: #000000" points="47.2,186.5 44.2,188 47.2,189.5 "/>
    <polygon style="fill: none; fill-opacity:0; stroke-width: 0.4; stroke: #000000" points="47.2,186.5 44.2,188 47.2,189.5 "/>
  </g>
  <polyline style="fill: none; fill-opacity:0; stroke-width: 0.4; stroke: #000000" points="160,24 160,31.2 158,32 162,33.6 158,35.2 162,36.8 158,38.4 162,40 160,40.8 160,48 "/>
  <polyline style="fill: none; fill-opacity:0; stroke-width: 0.4; stroke: #000000" points="146,24 146,31.2 144,32 148,33.6 144,35.2 148,36.8 144,38.4 148,40 146,40.8 146,48 "/>
  <polyline style="fill: none; fill-opacity:0; stroke-width: 0.4; stroke: #000000" points="132,24 132,31.2 130,32 134,33.6 130,35.2 134,36.8 130,38.4 134,40 132,40.8 132,48 "/>
  <polyline style="fill: none; fill-opacity:0; stroke-width: 0.4; stroke: #000000" points="118,24 118,31.2 116,32 120,33.6 116,35.2 120,36.8 116,38.4 120,40 118,40.8 118,48 "/>
  <text font-size="4.51556" style="fill: #000000;text-anchor:end;font-family:CMU Serif;font-style:normal;font-weight:normal" x="156" y="37.55">
    <tspan x="156" y="37.55">10k</tspan>
  </text>
  <text font-size="4.51556" style="fill: #000000;text-anchor:end;font-family:CMU Serif;font-style:normal;font-weight:normal" x="142" y="37.55">
    <tspan x="142" y="37.55">10k</tspan>
  </text>
  <text font-size="4.51556" style="fill: #000000;text-anchor:end;font-family:CMU Serif;font-style:normal;font-weight:normal" x="128" y="37.55">
    <tspan x="128" y="37.55">10k</tspan>
  </text>
  <text font-size="4.51556" style="fill: #000000;text-anchor:end;font-family:CMU Serif;font-style:normal;font-weight:normal" x="114" y="37.55">
    <tspan x="114" y="37.55">10k</tspan>
  </text>
  <line style="fill: none; fill-opacity:0; stroke-width: 0.4; stroke: #000000" x1="171" y1="22" x2="177" y2="22"/>
  <line style="fill: none; fill-opacity:0; stroke-width: 0.4; stroke: #000000" x1="160" y1="48" x2="180" y2="48"/>
  <line style="fill: none; fill-opacity:0; stroke-width: 0.4; stroke: #000000" x1="146" y1="48" x2="146" y2="58"/>
  <line style="fill: none; fill-opacity:0; stroke-width: 0.4; stroke: #000000" x1="132" y1="48" x2="132" y2="68"/>
  <line style="fill: none; fill-opacity:0; stroke-width: 0.4; stroke: #000000" x1="118" y1="48" x2="118" y2="78"/>
  <g>
    <ellipse style="fill: #000000" cx="146" cy="58" rx="0.5" ry="0.5"/>
    <ellipse style="fill: none; fill-opacity:0; stroke-width: 2; stroke: #000000" cx="146" cy="58" rx="0.5" ry="0.5"/>
  </g>
  <g>
    <ellipse style="fill: #000000" cx="132" cy="68" rx="0.5" ry="0.5"/>
    <ellipse style="fill: none; fill-opacity:0; stroke-width: 2; stroke: #000000" cx="132" cy="68" rx="0.5" ry="0.5"/>
  </g>
  <g>
    <ellipse style="fill: #000000" cx="118" cy="78" rx="0.5" ry="0.5"/>
    <ellipse style="fill: none; fill-opacity:0; stroke-width: 2; stroke: #000000" cx="118" cy="78" rx="0.5" ry="0.5"/>
  </g>
  <line style="fill: none; fill-opacity:0; stroke-width: 0.4; stroke: #000000" x1="118" y1="24" x2="174" y2="24"/>
  <line style="fill: none; fill-opacity:0; stroke-width: 0.4; stroke: #000000" x1="174" y1="24" x2="174" y2="22"/>
  <g>
    <ellipse style="fill: #000000" cx="132" cy="24" rx="0.5" ry="0.5"/>
    <ellipse style="fill: none; fill-opacity:0; stroke-width: 2; stroke: #000000" cx="132" cy="24" rx="0.5" ry="0.5"/>
  </g>
  <g>
    <ellipse style="fill: #000000" cx="146" cy="24" rx="0.5" ry="0.5"/>
    <ellipse style="fill: none; fill-opacity:0; stroke-width: 2; stroke: #000000" cx="146" cy="24" rx="0.5" ry="0.5"/>
  </g>
  <g>
    <ellipse style="fill: #000000" cx="174" cy="24" rx="0.5" ry="0.5"/>
    <ellipse style="fill: none; fill-opacity:0; stroke-width: 2; stroke: #000000" cx="174" cy="24" rx="0.5" ry="0.5"/>
  </g>
  <g>
    <ellipse style="fill: #000000" cx="160" cy="24" rx="0.5" ry="0.5"/>
    <ellipse style="fill: none; fill-opacity:0; stroke-width: 2; stroke: #000000" cx="160" cy="24" rx="0.5" ry="0.5"/>
  </g>
  <g>
    <line style="fill: none; fill-opacity:0; stroke-width: 0.4; stroke: #000000" x1="262" y1="148" x2="262" y2="157.6"/>
    <line style="fill: none; fill-opacity:0; stroke-width: 0.4; stroke: #000000" x1="256" y1="157.6" x2="268" y2="157.6"/>
    <line style="fill: none; fill-opacity:0; stroke-width: 0.4; stroke: #000000" x1="256" y1="162.4" x2="268" y2="162.4"/>
    <line style="fill: none; fill-opacity:0; stroke-width: 0.4; stroke: #000000" x1="262" y1="162.4" x2="262" y2="172"/>
  </g>
  <g>
    <polygon style="fill: #ffffff" points="258,172 266,172 262,178 "/>
    <polygon style="fill: none; fill-opacity:0; stroke-width: 0.4; stroke: #000000" points="258,172 266,172 262,178 "/>
  </g>
  <g>
    <line style="fill: none; fill-opacity:0; stroke-width: 0.4; stroke: #000000" x1="262" y1="108" x2="262" y2="117.6"/>
    <line style="fill: none; fill-opacity:0; stroke-width: 0.4; stroke: #000000" x1="256" y1="117.6" x2="268" y2="117.6"/>
    <line style="fill: none; fill-opacity:0; stroke-width: 0.4; stroke: #000000" x1="256" y1="122.4" x2="268" y2="122.4"/>
    <line style="fill: none; fill-opacity:0; stroke-width: 0.4; stroke: #000000" x1="262" y1="122.4" x2="262" y2="132"/>
  </g>
  <g>
    <polygon style="fill: #ffffff" points="258,132 266,132 262,138 "/>
    <polygon style="fill: none; fill-opacity:0; stroke-width: 0.4; stroke: #000000" points="258,132 266,132 262,138 "/>
  </g>
  <g>
    <line style="fill: none; fill-opacity:0; stroke-width: 0.4; stroke: #000000" x1="262" y1="68" x2="262" y2="77.6"/>
    <line style="fill: none; fill-opacity:0; stroke-width: 0.4; stroke: #000000" x1="256" y1="77.6" x2="268" y2="77.6"/>
    <line style="fill: none; fill-opacity:0; stroke-width: 0.4; stroke: #000000" x1="256" y1="82.4" x2="268" y2="82.4"/>
    <line style="fill: none; fill-opacity:0; stroke-width: 0.4; stroke: #000000" x1="262" y1="82.4" x2="262" y2="92"/>
  </g>
  <g>
    <polygon style="fill: #ffffff" points="258,92 266,92 262,98 "/>
    <polygon style="fill: none; fill-opacity:0; stroke-width: 0.4; stroke: #000000" points="258,92 266,92 262,98 "/>
  </g>
  <g>
    <polygon style="fill: #ffffff" points="266,64 274,64 270,70 "/>
    <polygon style="fill: none; fill-opacity:0; stroke-width: 0.4; stroke: #000000" points="266,64 274,64 270,70 "/>
  </g>
  <g>
    <line style="fill: none; fill-opacity:0; stroke-width: 0.4; stroke: #000000" x1="258" y1="48" x2="255.2" y2="48"/>
    <polygon style="fill: #000000" points="255.2,46.5 252.2,48 255.2,49.5 "/>
    <polygon style="fill: none; fill-opacity:0; stroke-width: 0.4; stroke: #000000" points="255.2,46.5 252.2,48 255.2,49.5 "/>
  </g>
  <polyline style="fill: none; fill-opacity:0; stroke-width: 0.4; stroke: #000000" points="270,64 270,58 252,58 "/>
  <line style="fill: none; fill-opacity:0; stroke-width: 0.4; stroke: #000000" x1="252" y1="68" x2="262" y2="68"/>
  <line style="fill: none; fill-opacity:0; stroke-width: 0.4; stroke: #000000" x1="252" y1="108" x2="262" y2="108"/>
  <line style="fill: none; fill-opacity:0; stroke-width: 0.4; stroke: #000000" x1="252" y1="148" x2="262" y2="148"/>
  <line style="fill: none; fill-opacity:0; stroke-width: 0.4; stroke: #000000" x1="252" y1="188" x2="262" y2="188"/>
  <polyline style="fill: none; fill-opacity:0; stroke-width: 0.4; stroke: #000000" points="262,188 262,182 252,182 "/>
  <g>
    <ellipse style="fill: #000000" cx="262" cy="188" rx="0.5" ry="0.5"/>
    <ellipse style="fill: none; fill-opacity:0; stroke-width: 2; stroke: #000000" cx="262" cy="188" rx="0.5" ry="0.5"/>
  </g>
  <g>
    <polygon style="fill: #ffffff" points="196,218 204,218 200,224 "/>
    <polygon style="fill: none; fill-opacity:0; stroke-width: 0.4; stroke: #000000" points="196,218 204,218 200,224 "/>
  </g>
  <g>
    <polygon style="fill: #ffffff" points="230,218 238,218 234,224 "/>
    <polygon style="fill: none; fill-opacity:0; stroke-width: 0.4; stroke: #000000" points="230,218 238,218 234,224 "/>
  </g>
  <line style="fill: none; fill-opacity:0; stroke-width: 0.4; stroke: #000000" x1="200" y1="206" x2="200" y2="218"/>
  <line style="fill: none; fill-opacity:0; stroke-width: 0.4; stroke: #000000" x1="202" y1="210" x2="198" y2="214"/>
  <text font-size="4.51556" style="fill: #000000;text-anchor:end;font-family:CMU Serif;font-style:normal;font-weight:normal" x="196" y="213.55">
    <tspan x="196" y="213.55">x6</tspan>
  </text>
  <line style="fill: none; fill-opacity:0; stroke-width: 0.4; stroke: #000000" x1="234" y1="206" x2="234" y2="218"/>
  <line style="fill: none; fill-opacity:0; stroke-width: 0.4; stroke: #000000" x1="236" y1="210" x2="232" y2="214"/>
  <text font-size="4.51556" style="fill: #000000;text-anchor:end;font-family:CMU Serif;font-style:normal;font-weight:normal" x="230" y="213.55">
    <tspan x="230" y="213.55">x2</tspan>
  </text>
  <line style="fill: none; fill-opacity:0; stroke-width: 0.4; stroke: #000000" x1="259" y1="24" x2="265" y2="24"/>
  <polyline style="fill: none; fill-opacity:0; stroke-width: 0.4; stroke: #000000" points="262,24 262,24 262,38 252,38 "/>
  <line style="fill: none; fill-opacity:0; stroke-width: 0.4; stroke: #000000" x1="264" y1="28" x2="260" y2="32"/>
  <text font-size="4.51556" style="fill: #000000;text-anchor:end;font-family:CMU Serif;font-style:normal;font-weight:normal" x="258" y="31.55">
    <tspan x="258" y="31.55">x4</tspan>
  </text>
  <line style="fill: none; fill-opacity:0; stroke-width: 0.4; stroke: #000000" x1="126" y1="156" x2="122" y2="160"/>
  <text font-size="4.51556" style="fill: #000000;text-anchor:middle;font-family:CMU Serif;font-style:normal;font-weight:normal" x="124" y="154.9">
    <tspan x="124" y="154.9">x7</tspan>
  </text>
  <line style="fill: none; fill-opacity:0; stroke-width: 0.4; stroke: #000000" x1="126" y1="186" x2="122" y2="190"/>
  <text font-size="4.51556" style="fill: #000000;text-anchor:middle;font-family:CMU Serif;font-style:normal;font-weight:normal" x="124" y="184.9">
    <tspan x="124" y="184.9">x7</tspan>
  </text>
  <line style="fill: none; fill-opacity:0; stroke-width: 0.4; stroke: #000000" x1="126" y1="146" x2="122" y2="150"/>
  <text font-size="4.51556" style="fill: #000000;text-anchor:middle;font-family:CMU Serif;font-style:normal;font-weight:normal" x="124" y="144.9">
    <tspan x="124" y="144.9">x3</tspan>
  </text>
  <line style="fill: none; fill-opacity:0; stroke-width: 0.4; stroke: #000000" x1="134" y1="196" x2="130" y2="200"/>
  <text font-size="4.51556" style="fill: #000000;text-anchor:end;font-family:CMU Serif;font-style:normal;font-weight:normal" x="128" y="199.55">
    <tspan x="128" y="199.55">x7</tspan>
  </text>
  <line style="fill: none; fill-opacity:0; stroke-width: 0.4; stroke: #000000" x1="148" y1="196" x2="144" y2="200"/>
  <text font-size="4.51556" style="fill: #000000;text-anchor:end;font-family:CMU Serif;font-style:normal;font-weight:normal" x="142" y="199.55">
    <tspan x="142" y="199.55">x7</tspan>
  </text>
  <text font-size="4.51556" style="fill: #000000;text-anchor:middle;font-family:CMU Serif;font-style:normal;font-weight:normal" x="108" y="54.9">
    <tspan x="108" y="54.9">0</tspan>
  </text>
  <text font-size="4.51556" style="fill: #000000;text-anchor:middle;font-family:CMU Serif;font-style:normal;font-weight:normal" x="108" y="84.9">
    <tspan x="108" y="84.9">0</tspan>
  </text>
  <polyline style="fill: none; fill-opacity:0; stroke-width: 0.4; stroke: #000000" points="132,200 132,207.2 130,208 134,209.6 130,211.2 134,212.8 130,214.4 134,216 132,216.8 132,224 "/>
  <g>
    <line style="fill: none; fill-opacity:0; stroke-width: 0.4; stroke: #000000" x1="132" y1="224" x2="132" y2="228"/>
    <line style="fill: none; fill-opacity:0; stroke-width: 0.4; stroke: #000000" x1="128" y1="228" x2="136" y2="228"/>
    <line style="fill: none; fill-opacity:0; stroke-width: 0.4; stroke: #000000" x1="129.34" y1="230" x2="134.66" y2="230"/>
    <line style="fill: none; fill-opacity:0; stroke-width: 0.4; stroke: #000000" x1="130.68" y1="232" x2="133.32" y2="232"/>
  </g>
  <text font-size="4.51556" style="fill: #000000;text-anchor:end;font-family:CMU Serif;font-style:normal;font-weight:normal" x="128" y="213.55">
    <tspan x="128" y="213.55">0</tspan>
  </text>
  <line style="fill: none; fill-opacity:0; stroke-width: 0.4; stroke: #000000" x1="160" y1="200" x2="160" y2="138"/>
  <g>
    <ellipse style="fill: #000000" cx="160" cy="138" rx="0.5" ry="0.5"/>
    <ellipse style="fill: none; fill-opacity:0; stroke-width: 2; stroke: #000000" cx="160" cy="138" rx="0.5" ry="0.5"/>
  </g>
  <line style="fill: none; fill-opacity:0; stroke-width: 0.4; stroke: #000000" x1="258" y1="42" x2="260" y2="42"/>
  <line style="fill: none; fill-opacity:0; stroke-width: 0.4; stroke: #000000" x1="258" y1="54" x2="258" y2="42"/>
  <line style="fill: none; fill-opacity:0; stroke-width: 0.4; stroke: #000000" x1="258" y1="54" x2="260" y2="54"/>
  <line style="fill: none; fill-opacity:0; stroke-width: 0.4; stroke: #000000" x1="126" y1="86" x2="122" y2="90"/>
  <text font-size="4.51556" style="fill: #000000;text-anchor:middle;font-family:CMU Serif;font-style:normal;font-weight:normal" x="124" y="84.635">
    <tspan x="124" y="84.635">x2</tspan>
  </text>
  <g>
    <ellipse style="fill: #ffffff" cx="182" cy="108" rx="2" ry="2"/>
    <ellipse style="fill: none; fill-opacity:0; stroke-width: 0.4; stroke: #000000" cx="182" cy="108" rx="2" ry="2"/>
  </g>
  <g>
    <ellipse style="fill: #ffffff" cx="182" cy="118" rx="2" ry="2"/>
    <ellipse style="fill: none; fill-opacity:0; stroke-width: 0.4; stroke: #000000" cx="182" cy="118" rx="2" ry="2"/>
  </g>
  <g>
    <rect style="fill: #c7ffc7" x="20" y="240" width="8" height="8"/>
    <rect style="fill: none; fill-opacity:0; stroke-width: 0.4; stroke: #000000" x="20" y="240" width="8" height="8"/>
  </g>
  <text font-size="4.51556" style="fill: #000000;text-anchor:start;font-family:CMU Serif;font-style:normal;font-weight:normal" x="30" y="245.55">
    <tspan x="30" y="245.55">Digital Part(s)</tspan>
  </text>
  <g>
    <rect style="fill: #ffffc7" x="70" y="240" width="8" height="8"/>
    <rect style="fill: none; fill-opacity:0; stroke-width: 0.4; stroke: #000000" x="70" y="240" width="8" height="8"/>
  </g>
  <text font-size="4.51556" style="fill: #000000;text-anchor:start;font-family:CMU Serif;font-style:normal;font-weight:normal" x="80" y="245.55">
    <tspan x="80" y="245.55">Connector(s)</tspan>
  </text>
  <g>
    <polygon style="fill: #ffffff" points="116,242 124,242 120,248 "/>
    <polygon style="fill: none; fill-opacity:0; stroke-width: 0.4; stroke: #000000" points="116,242 124,242 120,248 "/>
  </g>
  <g>
    <line style="fill: none; fill-opacity:0; stroke-width: 0.4; stroke: #000000" x1="158" y1="240" x2="158" y2="244"/>
    <line style="fill: none; fill-opacity:0; stroke-width: 0.4; stroke: #000000" x1="154" y1="244" x2="162" y2="244"/>
    <line style="fill: none; fill-opacity:0; stroke-width: 0.4; stroke: #000000" x1="155.34" y1="246" x2="160.66" y2="246"/>
    <line style="fill: none; fill-opacity:0; stroke-width: 0.4; stroke: #000000" x1="156.68" y1="248" x2="159.32" y2="248"/>
  </g>
  <text font-size="4.51556" style="fill: #000000;text-anchor:start;font-family:CMU Serif;font-style:normal;font-weight:normal" x="128" y="245.55">
    <tspan x="128" y="245.55">AGND</tspan>
  </text>
  <text font-size="4.51556" style="fill: #000000;text-anchor:start;font-family:CMU Serif;font-style:normal;font-weight:normal" x="166" y="245.55">
    <tspan x="166" y="245.55">DGND</tspan>
  </text>
</svg>
