<?xml version="1.0" encoding="UTF-8" standalone="no"?>
<!DOCTYPE svg PUBLIC "-//W3C//DTD SVG 1.0//EN" "http://www.w3.org/TR/2001/PR-SVG-20010719/DTD/svg10.dtd">
<svg width="13cm" height="8cm" viewBox="7 22 249 160" xmlns="http://www.w3.org/2000/svg" xmlns:xlink="http://www.w3.org/1999/xlink">
  <g>
    <rect style="fill: #ffffff" x="8" y="32" width="248" height="136"/>
    <rect style="fill: none; fill-opacity:0; stroke-width: 0.4; stroke-dasharray: 4; stroke: #000000" x="8" y="32" width="248" height="136"/>
  </g>
  <g>
    <rect style="fill: #c7ffc7" x="92" y="60" width="52" height="60"/>
    <rect style="fill: none; fill-opacity:0; stroke-width: 0.4; stroke: #000000" x="92" y="60" width="52" height="60"/>
  </g>
  <g>
    <rect style="fill: #c7ffc7" x="212" y="50" width="40" height="80"/>
    <rect style="fill: none; fill-opacity:0; stroke-width: 0.4; stroke: #000000" x="212" y="50" width="40" height="80"/>
  </g>
  <g>
    <rect style="fill: #ffffc7" x="36" y="80" width="16" height="40"/>
    <rect style="fill: none; fill-opacity:0; stroke-width: 0.4; stroke: #000000" x="36" y="80" width="16" height="40"/>
  </g>
  <polygon style="fill: none; fill-opacity:0; stroke-width: 0.4; stroke-dasharray: 4; stroke: #000000" points="94,76 142,76 142,94 118,94 118,84 94,84 "/>
  <text font-size="6.77333" style="fill: #000000;text-anchor:middle;font-family:CMU Serif;font-style:normal;font-weight:normal" x="232" y="48.3">
    <tspan x="232" y="48.3">XCF00S</tspan>
  </text>
  <text font-size="6.77333" style="fill: #000000;text-anchor:middle;font-family:CMU Serif;font-style:normal;font-weight:normal" x="118" y="58.3">
    <tspan x="118" y="58.3">XC3S500E</tspan>
  </text>
  <text font-size="4.51556" style="fill: #000000;text-anchor:end;font-family:CMU Serif;font-style:normal;font-weight:normal" x="142" y="71.55">
    <tspan x="142" y="71.55">CCLK</tspan>
  </text>
  <text font-size="4.51556" style="fill: #000000;text-anchor:end;font-family:CMU Serif;font-style:normal;font-weight:normal" x="142" y="101.55">
    <tspan x="142" y="101.55">DIN</tspan>
  </text>
  <text font-size="4.51556" style="fill: #000000;text-anchor:end;font-family:CMU Serif;font-style:normal;font-weight:normal" x="142" y="111.55">
    <tspan x="142" y="111.55">INIT_B</tspan>
  </text>
  <text font-size="4.51556" style="fill: #000000;text-anchor:start;font-family:CMU Serif;font-style:normal;font-weight:normal" x="214" y="111.55">
    <tspan x="214" y="111.55">OE</tspan>
  </text>
  <text font-size="4.51556" style="fill: #000000;text-anchor:start;font-family:CMU Serif;font-style:normal;font-weight:normal" x="214" y="101.55">
    <tspan x="214" y="101.55">DO</tspan>
  </text>
  <text font-size="4.51556" style="fill: #000000;text-anchor:start;font-family:CMU Serif;font-style:normal;font-weight:normal" x="214" y="71.55">
    <tspan x="214" y="71.55">CCLK</tspan>
  </text>
  <text font-size="4.51556" style="fill: #000000;text-anchor:end;font-family:CMU Serif;font-style:normal;font-weight:normal" x="140" y="81.55">
    <tspan x="140" y="81.55">DONE</tspan>
  </text>
  <text font-size="4.51556" style="fill: #000000;text-anchor:end;font-family:CMU Serif;font-style:normal;font-weight:normal" x="140" y="91.55">
    <tspan x="140" y="91.55">PROG_B</tspan>
  </text>
  <text font-size="4.51556" style="fill: #000000;text-anchor:start;font-family:CMU Serif;font-style:normal;font-weight:normal" x="214" y="81.55">
    <tspan x="214" y="81.55">CE</tspan>
  </text>
  <text font-size="4.51556" style="fill: #000000;text-anchor:start;font-family:CMU Serif;font-style:normal;font-weight:normal" x="214" y="91.55">
    <tspan x="214" y="91.55">CF</tspan>
  </text>
  <text font-size="4.51556" style="fill: #000000;text-anchor:start;font-family:CMU Serif;font-style:normal;font-weight:normal" x="94" y="71.55">
    <tspan x="94" y="71.55">VCCO</tspan>
  </text>
  <text font-size="4.51556" style="fill: #000000;text-anchor:start;font-family:CMU Serif;font-style:normal;font-weight:normal" x="94" y="91.55">
    <tspan x="94" y="91.55">MODE2</tspan>
  </text>
  <text font-size="7.90222" style="fill: #000000;text-anchor:middle;font-family:CMU Serif;font-style:normal;font-weight:normal" x="132" y="30">
    <tspan x="132" y="30">Real Time System Controller</tspan>
  </text>
  <text font-size="4.51556" style="fill: #000000;text-anchor:start;font-family:CMU Serif;font-style:normal;font-weight:normal" x="214" y="61.55">
    <tspan x="214" y="61.55">VCC</tspan>
  </text>
  <text font-size="4.51556" style="fill: #000000;text-anchor:middle;font-family:CMU Serif;font-style:normal;font-weight:normal" x="206" y="44.9">
    <tspan x="206" y="44.9">VCC3V3</tspan>
  </text>
  <text font-size="4.51556" style="fill: #000000;text-anchor:start;font-family:CMU Serif;font-style:normal;font-weight:normal" x="214" y="121.55">
    <tspan x="214" y="121.55">CEO</tspan>
  </text>
  <text font-size="4.51556" style="fill: #000000;text-anchor:start;font-family:CMU Serif;font-style:normal;font-weight:normal" x="94" y="101.55">
    <tspan x="94" y="101.55">MODE1</tspan>
  </text>
  <text font-size="4.51556" style="fill: #000000;text-anchor:start;font-family:CMU Serif;font-style:normal;font-weight:normal" x="94" y="111.55">
    <tspan x="94" y="111.55">MODE0</tspan>
  </text>
  <text font-size="4.51556" style="fill: #000000;text-anchor:middle;font-family:CMU Serif;font-style:normal;font-weight:normal" x="62" y="64.9">
    <tspan x="62" y="64.9">VCC3V3</tspan>
  </text>
  <text font-size="4.51556" style="fill: #000000;text-anchor:end;font-family:CMU Serif;font-style:normal;font-weight:normal" x="50" y="91.55">
    <tspan x="50" y="91.55">PIN1</tspan>
  </text>
  <text font-size="4.51556" style="fill: #000000;text-anchor:end;font-family:CMU Serif;font-style:normal;font-weight:normal" x="50" y="101.55">
    <tspan x="50" y="101.55">PIN2</tspan>
  </text>
  <text font-size="4.51556" style="fill: #000000;text-anchor:end;font-family:CMU Serif;font-style:normal;font-weight:normal" x="50" y="111.55">
    <tspan x="50" y="111.55">PIN3</tspan>
  </text>
  <text font-size="4.51556" style="fill: #000000;text-anchor:end;font-family:CMU Serif;font-style:normal;font-weight:normal" x="156" y="142.728">
    <tspan x="156" y="142.728">RESET</tspan>
    <tspan x="156" y="148.372">BUTTON</tspan>
  </text>
  <text font-size="4.51556" style="fill: #000000;text-anchor:middle;font-family:CMU Serif;font-style:normal;font-weight:normal" x="138" y="38.9">
    <tspan x="138" y="38.9">VCC2V5</tspan>
  </text>
  <text font-size="4.51556" style="fill: #000000;text-anchor:middle;font-family:CMU Serif;font-style:normal;font-weight:normal" x="44" y="78.9">
    <tspan x="44" y="78.9">JUMPER</tspan>
  </text>
  <text font-size="4.51556" style="fill: #000000;text-anchor:end;font-family:CMU Serif;font-style:normal;font-weight:normal" x="34" y="95.55">
    <tspan x="34" y="95.55">JTAG</tspan>
  </text>
  <text font-size="4.51556" style="fill: #000000;text-anchor:end;font-family:CMU Serif;font-style:normal;font-weight:normal" x="34" y="104.728">
    <tspan x="34" y="104.728">MASTER</tspan>
    <tspan x="34" y="110.372">SERIAL</tspan>
  </text>
  <text font-size="4.51556" style="fill: #000000;text-anchor:start;font-family:CMU Serif;font-style:normal;font-weight:normal" x="96" y="81.55">
    <tspan x="96" y="81.55">VCCAUX</tspan>
  </text>
  <text font-size="4.51556" style="fill: #000000;text-anchor:middle;font-family:CMU Serif;font-style:normal;font-weight:normal" x="86" y="38.9">
    <tspan x="86" y="38.9">VCC3V3</tspan>
  </text>
  <text font-size="4.51556" style="fill: #000000;text-anchor:middle;font-family:CMU Serif;font-style:normal;font-weight:normal" x="76" y="48.9">
    <tspan x="76" y="48.9">VCC2V5</tspan>
  </text>
  <g>
    <line style="fill: none; fill-opacity:0; stroke-width: 0.4; stroke: #000000" x1="144" y1="70" x2="208.8" y2="70"/>
    <polygon style="fill: #000000" points="208.8,71.5 211.8,70 208.8,68.5 "/>
    <polygon style="fill: none; fill-opacity:0; stroke-width: 0.4; stroke: #000000" points="208.8,71.5 211.8,70 208.8,68.5 "/>
  </g>
  <g>
    <line style="fill: none; fill-opacity:0; stroke-width: 0.4; stroke: #000000" x1="144" y1="80" x2="204.8" y2="80"/>
    <polygon style="fill: #000000" points="204.8,81.5 207.8,80 204.8,78.5 "/>
    <polygon style="fill: none; fill-opacity:0; stroke-width: 0.4; stroke: #000000" points="204.8,81.5 207.8,80 204.8,78.5 "/>
  </g>
  <g>
    <line style="fill: none; fill-opacity:0; stroke-width: 0.4; stroke: #000000" x1="147.2" y1="90" x2="204.8" y2="90"/>
    <polygon style="fill: #000000" points="147.2,88.5 144.2,90 147.2,91.5 "/>
    <polygon style="fill: none; fill-opacity:0; stroke-width: 0.4; stroke: #000000" points="147.2,88.5 144.2,90 147.2,91.5 "/>
    <polygon style="fill: #000000" points="204.8,91.5 207.8,90 204.8,88.5 "/>
    <polygon style="fill: none; fill-opacity:0; stroke-width: 0.4; stroke: #000000" points="204.8,91.5 207.8,90 204.8,88.5 "/>
  </g>
  <g>
    <line style="fill: none; fill-opacity:0; stroke-width: 0.4; stroke: #000000" x1="147.2" y1="100" x2="212" y2="100"/>
    <polygon style="fill: #000000" points="147.2,98.5 144.2,100 147.2,101.5 "/>
    <polygon style="fill: none; fill-opacity:0; stroke-width: 0.4; stroke: #000000" points="147.2,98.5 144.2,100 147.2,101.5 "/>
  </g>
  <g>
    <line style="fill: none; fill-opacity:0; stroke-width: 0.4; stroke: #000000" x1="144" y1="110" x2="208.8" y2="110"/>
    <polygon style="fill: #000000" points="208.8,111.5 211.8,110 208.8,108.5 "/>
    <polygon style="fill: none; fill-opacity:0; stroke-width: 0.4; stroke: #000000" points="208.8,111.5 211.8,110 208.8,108.5 "/>
  </g>
  <g>
    <line style="fill: none; fill-opacity:0; stroke-width: 0.4; stroke: #000000" x1="82" y1="116" x2="82" y2="120"/>
    <line style="fill: none; fill-opacity:0; stroke-width: 0.4; stroke: #000000" x1="78" y1="120" x2="86" y2="120"/>
    <line style="fill: none; fill-opacity:0; stroke-width: 0.4; stroke: #000000" x1="79.34" y1="122" x2="84.66" y2="122"/>
    <line style="fill: none; fill-opacity:0; stroke-width: 0.4; stroke: #000000" x1="80.68" y1="124" x2="83.32" y2="124"/>
  </g>
  <line style="fill: none; fill-opacity:0; stroke-width: 0.4; stroke: #000000" x1="202" y1="46" x2="210" y2="46"/>
  <line style="fill: none; fill-opacity:0; stroke-width: 0.4; stroke: #000000" x1="208" y1="120" x2="204" y2="120"/>
  <line style="fill: none; fill-opacity:0; stroke-width: 0.4; stroke: #000000" x1="202" y1="118" x2="206" y2="122"/>
  <line style="fill: none; fill-opacity:0; stroke-width: 0.4; stroke: #000000" x1="202" y1="122" x2="206" y2="118"/>
  <polyline style="fill: none; fill-opacity:0; stroke-width: 0.4; stroke: #000000" points="62,66 62,73.2 60,74 64,75.6 60,77.2 64,78.8 60,80.4 64,82 62,82.8 62,90 "/>
  <line style="fill: none; fill-opacity:0; stroke-width: 0.4; stroke: #000000" x1="58" y1="66" x2="66" y2="66"/>
  <polyline style="fill: none; fill-opacity:0; stroke-width: 0.4; stroke: #000000" points="92,110 72,110 72,90 92,90 "/>
  <g>
    <ellipse style="fill: #000000" cx="72" cy="90" rx="0.5" ry="0.5"/>
    <ellipse style="fill: none; fill-opacity:0; stroke-width: 2; stroke: #000000" cx="72" cy="90" rx="0.5" ry="0.5"/>
  </g>
  <text font-size="4.51556" style="fill: #000000;text-anchor:start;font-family:CMU Serif;font-style:normal;font-weight:normal" x="66" y="79.55">
    <tspan x="66" y="79.55">10k</tspan>
  </text>
  <polyline style="fill: none; fill-opacity:0; stroke-width: 0.4; stroke: #000000" points="82,116 82,100 92,100 "/>
  <g>
    <ellipse style="fill: #000000" cx="72" cy="100" rx="0.5" ry="0.5"/>
    <ellipse style="fill: none; fill-opacity:0; stroke-width: 2; stroke: #000000" cx="72" cy="100" rx="0.5" ry="0.5"/>
  </g>
  <polyline style="fill: none; fill-opacity:0; stroke-width: 0.4; stroke: #000000" points="72,100 52,100 "/>
  <g>
    <line style="fill: none; fill-opacity:0; stroke-width: 0.4; stroke: #000000" x1="62" y1="116" x2="62" y2="120"/>
    <line style="fill: none; fill-opacity:0; stroke-width: 0.4; stroke: #000000" x1="58" y1="120" x2="66" y2="120"/>
    <line style="fill: none; fill-opacity:0; stroke-width: 0.4; stroke: #000000" x1="59.34" y1="122" x2="64.66" y2="122"/>
    <line style="fill: none; fill-opacity:0; stroke-width: 0.4; stroke: #000000" x1="60.68" y1="124" x2="63.32" y2="124"/>
  </g>
  <polyline style="fill: none; fill-opacity:0; stroke-width: 0.4; stroke: #000000" points="62,116 62,110 52,110 "/>
  <polyline style="fill: none; fill-opacity:0; stroke-width: 0.4; stroke: #000000" points="72,90 62,90 "/>
  <polyline style="fill: none; fill-opacity:0; stroke-width: 0.4; stroke: #000000" points="152,46 152,53.2 150,54 154,55.6 150,57.2 154,58.8 150,60.4 154,62 152,62.8 152,70 "/>
  <polyline style="fill: none; fill-opacity:0; stroke-width: 0.4; stroke: #000000" points="152,110 152,70 "/>
  <polyline style="fill: none; fill-opacity:0; stroke-width: 0.4; stroke: #000000" points="170,46 170,53.2 168,54 172,55.6 168,57.2 172,58.8 168,60.4 172,62 170,62.8 170,70 "/>
  <polyline style="fill: none; fill-opacity:0; stroke-width: 0.4; stroke: #000000" points="170,90 170,70 "/>
  <text font-size="4.51556" style="fill: #000000;text-anchor:start;font-family:CMU Serif;font-style:normal;font-weight:normal" x="156" y="59.55">
    <tspan x="156" y="59.55">10k</tspan>
  </text>
  <polyline style="fill: none; fill-opacity:0; stroke-width: 0.4; stroke: #000000" points="190,46 190,53.2 188,54 192,55.6 188,57.2 192,58.8 188,60.4 192,62 190,62.8 190,70 "/>
  <polyline style="fill: none; fill-opacity:0; stroke-width: 0.4; stroke: #000000" points="190,80 190,70 "/>
  <text font-size="4.51556" style="fill: #000000;text-anchor:start;font-family:CMU Serif;font-style:normal;font-weight:normal" x="174" y="59.55">
    <tspan x="174" y="59.55">10k</tspan>
  </text>
  <g>
    <line style="fill: none; fill-opacity:0; stroke-width: 0.4; stroke: #000000" x1="184" y1="138" x2="184" y2="131.739"/>
    <line style="fill: none; fill-opacity:0; stroke-width: 1.2; stroke: #000000" x1="188" y1="131.739" x2="180" y2="131.739"/>
    <polygon style="fill: #ffffff" points="184,131.739 188,126.261 180,126.261 "/>
    <polygon style="fill: none; fill-opacity:0; stroke-width: 0.4; stroke: #000000" points="184,131.739 188,126.261 180,126.261 "/>
    <line style="fill: none; fill-opacity:0; stroke-width: 0.4; stroke: #000000" x1="188" y1="127.67" x2="190" y2="130.8"/>
    <polygon style="fill: #000000" points="190,129.798 190,130.8 189.2,130.8 "/>
    <polygon style="fill: none; fill-opacity:0; stroke-width: 0.4; stroke: #000000" points="190,129.798 190,130.8 189.2,130.8 "/>
    <line style="fill: none; fill-opacity:0; stroke-width: 0.4; stroke: #000000" x1="187.2" y1="129.235" x2="189.2" y2="132.365"/>
    <polygon style="fill: #000000" points="189.2,131.363 189.2,132.365 188.4,132.365 "/>
    <polygon style="fill: none; fill-opacity:0; stroke-width: 0.4; stroke: #000000" points="189.2,131.363 189.2,132.365 188.4,132.365 "/>
    <line style="fill: none; fill-opacity:0; stroke-width: 0.4; stroke: #000000" x1="184" y1="126.261" x2="184" y2="120"/>
  </g>
  <polyline style="fill: none; fill-opacity:0; stroke-width: 0.4; stroke: #000000" points="184,120 184,80 "/>
  <polyline style="fill: none; fill-opacity:0; stroke-width: 0.4; stroke: #000000" points="164,110 164,90 "/>
  <g>
    <line style="fill: none; fill-opacity:0; stroke-width: 0.4; stroke: #000000" x1="164" y1="154" x2="164" y2="158"/>
    <line style="fill: none; fill-opacity:0; stroke-width: 0.4; stroke: #000000" x1="160" y1="158" x2="168" y2="158"/>
    <line style="fill: none; fill-opacity:0; stroke-width: 0.4; stroke: #000000" x1="161.34" y1="160" x2="166.66" y2="160"/>
    <line style="fill: none; fill-opacity:0; stroke-width: 0.4; stroke: #000000" x1="162.68" y1="162" x2="165.32" y2="162"/>
  </g>
  <g>
    <line style="fill: none; fill-opacity:0; stroke-width: 0.4; stroke: #000000" x1="184" y1="138" x2="184" y2="142"/>
    <line style="fill: none; fill-opacity:0; stroke-width: 0.4; stroke: #000000" x1="180" y1="142" x2="188" y2="142"/>
    <line style="fill: none; fill-opacity:0; stroke-width: 0.4; stroke: #000000" x1="181.34" y1="144" x2="186.66" y2="144"/>
    <line style="fill: none; fill-opacity:0; stroke-width: 0.4; stroke: #000000" x1="182.68" y1="146" x2="185.32" y2="146"/>
  </g>
  <g>
    <ellipse style="fill: #000000" cx="152" cy="110" rx="0.5" ry="0.5"/>
    <ellipse style="fill: none; fill-opacity:0; stroke-width: 2; stroke: #000000" cx="152" cy="110" rx="0.5" ry="0.5"/>
  </g>
  <g>
    <ellipse style="fill: #000000" cx="164" cy="90" rx="0.5" ry="0.5"/>
    <ellipse style="fill: none; fill-opacity:0; stroke-width: 2; stroke: #000000" cx="164" cy="90" rx="0.5" ry="0.5"/>
  </g>
  <g>
    <ellipse style="fill: #000000" cx="170" cy="90" rx="0.5" ry="0.5"/>
    <ellipse style="fill: none; fill-opacity:0; stroke-width: 2; stroke: #000000" cx="170" cy="90" rx="0.5" ry="0.5"/>
  </g>
  <g>
    <ellipse style="fill: #000000" cx="184" cy="80" rx="0.5" ry="0.5"/>
    <ellipse style="fill: none; fill-opacity:0; stroke-width: 2; stroke: #000000" cx="184" cy="80" rx="0.5" ry="0.5"/>
  </g>
  <g>
    <ellipse style="fill: #000000" cx="190" cy="80" rx="0.5" ry="0.5"/>
    <ellipse style="fill: none; fill-opacity:0; stroke-width: 2; stroke: #000000" cx="190" cy="80" rx="0.5" ry="0.5"/>
  </g>
  <polyline style="fill: none; fill-opacity:0; stroke-width: 0.4; stroke: #000000" points="164,110 164,117.2 162,118 166,119.6 162,121.2 166,122.8 162,124.4 166,126 164,126.8 164,134 "/>
  <text font-size="4.51556" style="fill: #000000;text-anchor:start;font-family:CMU Serif;font-style:normal;font-weight:normal" x="168" y="123.55">
    <tspan x="168" y="123.55">200</tspan>
  </text>
  <text font-size="4.51556" style="fill: #000000;text-anchor:start;font-family:CMU Serif;font-style:normal;font-weight:normal" x="194" y="59.55">
    <tspan x="194" y="59.55">270</tspan>
  </text>
  <line style="fill: none; fill-opacity:0; stroke-width: 0.4; stroke: #000000" x1="138" y1="46" x2="138" y2="40"/>
  <line style="fill: none; fill-opacity:0; stroke-width: 0.4; stroke: #000000" x1="138" y1="46" x2="190" y2="46"/>
  <line style="fill: none; fill-opacity:0; stroke-width: 0.4; stroke: #000000" x1="134" y1="40" x2="142" y2="40"/>
  <g>
    <ellipse style="fill: #000000" cx="152" cy="46" rx="0.5" ry="0.5"/>
    <ellipse style="fill: none; fill-opacity:0; stroke-width: 2; stroke: #000000" cx="152" cy="46" rx="0.5" ry="0.5"/>
  </g>
  <g>
    <ellipse style="fill: #000000" cx="170" cy="46" rx="0.5" ry="0.5"/>
    <ellipse style="fill: none; fill-opacity:0; stroke-width: 2; stroke: #000000" cx="170" cy="46" rx="0.5" ry="0.5"/>
  </g>
  <polyline style="fill: none; fill-opacity:0; stroke-width: 0.4; stroke: #000000" points="212,60 206,60 206,46 "/>
  <g>
    <ellipse style="fill: #ffffff" cx="210" cy="80" rx="2" ry="2"/>
    <ellipse style="fill: none; fill-opacity:0; stroke-width: 0.4; stroke: #000000" cx="210" cy="80" rx="2" ry="2"/>
  </g>
  <g>
    <ellipse style="fill: #ffffff" cx="210" cy="90" rx="2" ry="2"/>
    <ellipse style="fill: none; fill-opacity:0; stroke-width: 0.4; stroke: #000000" cx="210" cy="90" rx="2" ry="2"/>
  </g>
  <g>
    <ellipse style="fill: #ffffff" cx="210" cy="120" rx="2" ry="2"/>
    <ellipse style="fill: none; fill-opacity:0; stroke-width: 0.4; stroke: #000000" cx="210" cy="120" rx="2" ry="2"/>
  </g>
  <polyline style="fill: none; fill-opacity:0; stroke-width: 0.4; stroke: #000000" points="92,70 86,70 86,40 "/>
  <line style="fill: none; fill-opacity:0; stroke-width: 0.4; stroke: #000000" x1="82" y1="40" x2="90" y2="40"/>
  <polyline style="fill: none; fill-opacity:0; stroke-width: 0.4; stroke: #000000" points="92,80 76,80 76,50 "/>
  <line style="fill: none; fill-opacity:0; stroke-width: 0.4; stroke: #000000" x1="72" y1="50" x2="80" y2="50"/>
  <g>
    <g>
      <ellipse style="fill: #ffffff" cx="164" cy="138" rx="2" ry="2"/>
      <ellipse style="fill: none; fill-opacity:0; stroke-width: 0.4; stroke: #000000" cx="164" cy="138" rx="2" ry="2"/>
    </g>
    <g>
      <ellipse style="fill: #ffffff" cx="164" cy="150" rx="2" ry="2"/>
      <ellipse style="fill: none; fill-opacity:0; stroke-width: 0.4; stroke: #000000" cx="164" cy="150" rx="2" ry="2"/>
    </g>
    <line style="fill: none; fill-opacity:0; stroke-width: 0.4; stroke: #000000" x1="160" y1="136" x2="160" y2="152"/>
    <line style="fill: none; fill-opacity:0; stroke-width: 0.4; stroke: #000000" x1="164" y1="134" x2="164" y2="136"/>
    <line style="fill: none; fill-opacity:0; stroke-width: 0.4; stroke: #000000" x1="164" y1="152" x2="164" y2="154"/>
    <line style="fill: none; fill-opacity:0; stroke-width: 0.4; stroke: #000000" x1="156" y1="144" x2="160" y2="144"/>
  </g>
  <g>
    <rect style="fill: #c7ffc7" x="14" y="174" width="8" height="8"/>
    <rect style="fill: none; fill-opacity:0; stroke-width: 0.4; stroke: #000000" x="14" y="174" width="8" height="8"/>
  </g>
  <text font-size="4.51556" style="fill: #000000;text-anchor:start;font-family:CMU Serif;font-style:normal;font-weight:normal" x="24" y="179.55">
    <tspan x="24" y="179.55">Digital Part(s)</tspan>
  </text>
  <g>
    <rect style="fill: #ffc7d1" x="64" y="174" width="8" height="8"/>
    <rect style="fill: none; fill-opacity:0; stroke-width: 0.4; stroke: #000000" x="64" y="174" width="8" height="8"/>
  </g>
  <text font-size="4.51556" style="fill: #000000;text-anchor:start;font-family:CMU Serif;font-style:normal;font-weight:normal" x="74" y="179.55">
    <tspan x="74" y="179.55">Analog Part(s)</tspan>
  </text>
  <g>
    <rect style="fill: #ffffc7" x="114" y="174" width="8" height="8"/>
    <rect style="fill: none; fill-opacity:0; stroke-width: 0.4; stroke: #000000" x="114" y="174" width="8" height="8"/>
  </g>
  <text font-size="4.51556" style="fill: #000000;text-anchor:start;font-family:CMU Serif;font-style:normal;font-weight:normal" x="124" y="179.55">
    <tspan x="124" y="179.55">Connector(s)</tspan>
  </text>
</svg>
