<?xml version="1.0" encoding="UTF-8" standalone="no"?>
<!DOCTYPE svg PUBLIC "-//W3C//DTD SVG 1.0//EN" "http://www.w3.org/TR/2001/PR-SVG-20010719/DTD/svg10.dtd">
<svg width="13cm" height="8cm" viewBox="7 6 259 142" xmlns="http://www.w3.org/2000/svg" xmlns:xlink="http://www.w3.org/1999/xlink">
  <g>
    <rect style="fill: #ffffff" x="8" y="16" width="72" height="120"/>
    <rect style="fill: none; fill-opacity:0; stroke-width: 0.4; stroke-dasharray: 4; stroke: #000000" x="8" y="16" width="72" height="120"/>
  </g>
  <g>
    <rect style="fill: #ffffff" x="88" y="16" width="178" height="120"/>
    <rect style="fill: none; fill-opacity:0; stroke-width: 0.4; stroke-dasharray: 4; stroke: #000000" x="88" y="16" width="178" height="120"/>
  </g>
  <g>
    <rect style="fill: #c7ffc7" x="12" y="28" width="32" height="90"/>
    <rect style="fill: none; fill-opacity:0; stroke-width: 0.4; stroke: #000000" x="12" y="28" width="32" height="90"/>
  </g>
  <g>
    <rect style="fill: #c7ffc7" x="144" y="28" width="56" height="90"/>
    <rect style="fill: none; fill-opacity:0; stroke-width: 0.4; stroke: #000000" x="144" y="28" width="56" height="90"/>
  </g>
  <g>
    <rect style="fill: #ffffc7" x="76" y="28" width="16" height="90"/>
    <rect style="fill: none; fill-opacity:0; stroke-width: 0.4; stroke: #000000" x="76" y="28" width="16" height="90"/>
  </g>
  <g>
    <rect style="fill: #ffffc7" x="212" y="54" width="4" height="38"/>
    <rect style="fill: none; fill-opacity:0; stroke-width: 0.4; stroke: #000000" x="212" y="54" width="4" height="38"/>
  </g>
  <g>
    <rect style="fill: #ffffc7" x="240" y="52" width="20" height="48"/>
    <rect style="fill: none; fill-opacity:0; stroke-width: 0.4; stroke: #000000" x="240" y="52" width="20" height="48"/>
  </g>
  <rect style="fill: none; fill-opacity:0; stroke-width: 0.4; stroke-dasharray: 4; stroke: #000000" x="146" y="84" width="16" height="28"/>
  <text font-size="6.77333" style="fill: #000000;text-anchor:middle;font-family:CMU Serif;font-style:normal;font-weight:normal" x="28" y="26.3">
    <tspan x="28" y="26.3">XC3S500E</tspan>
  </text>
  <text font-size="7.90222" style="fill: #000000;text-anchor:middle;font-family:CMU Serif;font-style:normal;font-weight:normal" x="44" y="14">
    <tspan x="44" y="14">RTSC</tspan>
  </text>
  <text font-size="4.51556" style="fill: #000000;text-anchor:end;font-family:CMU Serif;font-style:normal;font-weight:normal" x="42" y="49.55">
    <tspan x="42" y="49.55">GPIO</tspan>
  </text>
  <text font-size="4.51556" style="fill: #000000;text-anchor:end;font-family:CMU Serif;font-style:normal;font-weight:normal" x="42" y="39.55">
    <tspan x="42" y="39.55">VCCIO</tspan>
  </text>
  <text font-size="4.51556" style="fill: #000000;text-anchor:end;font-family:CMU Serif;font-style:normal;font-weight:normal" x="42" y="59.55">
    <tspan x="42" y="59.55">GPIO</tspan>
  </text>
  <text font-size="4.51556" style="fill: #000000;text-anchor:end;font-family:CMU Serif;font-style:normal;font-weight:normal" x="42" y="69.55">
    <tspan x="42" y="69.55">GPIO</tspan>
  </text>
  <text font-size="4.51556" style="fill: #000000;text-anchor:end;font-family:CMU Serif;font-style:normal;font-weight:normal" x="42" y="79.55">
    <tspan x="42" y="79.55">GPIO</tspan>
  </text>
  <text font-size="4.51556" style="fill: #000000;text-anchor:end;font-family:CMU Serif;font-style:normal;font-weight:normal" x="42" y="89.55">
    <tspan x="42" y="89.55">GPIO</tspan>
  </text>
  <text font-size="4.51556" style="fill: #000000;text-anchor:start;font-family:CMU Serif;font-style:normal;font-weight:normal" x="146" y="49.55">
    <tspan x="146" y="49.55">GCLK1/GPIO</tspan>
  </text>
  <text font-size="4.51556" style="fill: #000000;text-anchor:start;font-family:CMU Serif;font-style:normal;font-weight:normal" x="146" y="59.55">
    <tspan x="146" y="59.55">GSR/GPIO</tspan>
  </text>
  <text font-size="4.51556" style="fill: #000000;text-anchor:start;font-family:CMU Serif;font-style:normal;font-weight:normal" x="146" y="69.55">
    <tspan x="146" y="69.55">GTS1/GPIO</tspan>
  </text>
  <text font-size="4.51556" style="fill: #000000;text-anchor:start;font-family:CMU Serif;font-style:normal;font-weight:normal" x="146" y="79.55">
    <tspan x="146" y="79.55">GTS2/GPIO</tspan>
  </text>
  <text font-size="4.51556" style="fill: #000000;text-anchor:start;font-family:CMU Serif;font-style:normal;font-weight:normal" x="148" y="89.55">
    <tspan x="148" y="89.55">GPIO</tspan>
  </text>
  <text font-size="4.51556" style="fill: #000000;text-anchor:end;font-family:CMU Serif;font-style:normal;font-weight:normal" x="198" y="39.55">
    <tspan x="198" y="39.55">VCCx2</tspan>
  </text>
  <text font-size="4.51556" style="fill: #000000;text-anchor:end;font-family:CMU Serif;font-style:normal;font-weight:normal" x="198" y="59.55">
    <tspan x="198" y="59.55">GPIOx8</tspan>
  </text>
  <text font-size="6.77333" style="fill: #000000;text-anchor:middle;font-family:CMU Serif;font-style:normal;font-weight:normal" x="172" y="26.3">
    <tspan x="172" y="26.3">XC9536/72XL</tspan>
  </text>
  <text font-size="4.51556" style="fill: #000000;text-anchor:start;font-family:CMU Serif;font-style:normal;font-weight:normal" x="146" y="39.55">
    <tspan x="146" y="39.55">VCCIO</tspan>
  </text>
  <text font-size="7.90222" style="fill: #000000;text-anchor:middle;font-family:CMU Serif;font-style:normal;font-weight:normal" x="180" y="14">
    <tspan x="180" y="14">Electrophysiology Interface</tspan>
  </text>
  <text font-size="4.51556" style="fill: #000000;text-anchor:middle;font-family:CMU Serif;font-style:normal;font-weight:normal" x="172" y="116.9">
    <tspan x="172" y="116.9">GNDx3</tspan>
  </text>
  <text font-size="4.51556" style="fill: #000000;text-anchor:middle;font-family:CMU Serif;font-style:normal;font-weight:normal" x="56" y="30.9">
    <tspan x="56" y="30.9">VCC3V3</tspan>
  </text>
  <text font-size="4.51556" style="fill: #000000;text-anchor:start;font-family:CMU Serif;font-style:normal;font-weight:normal" x="148" y="99.55">
    <tspan x="148" y="99.55">GPIO</tspan>
  </text>
  <text font-size="4.51556" style="fill: #000000;text-anchor:start;font-family:CMU Serif;font-style:normal;font-weight:normal" x="148" y="109.55">
    <tspan x="148" y="109.55">GPIO</tspan>
  </text>
  <text font-size="4.51556" style="fill: #000000;text-anchor:end;font-family:CMU Serif;font-style:normal;font-weight:normal" x="42" y="99.55">
    <tspan x="42" y="99.55">GPIO</tspan>
  </text>
  <text font-size="4.51556" style="fill: #000000;text-anchor:end;font-family:CMU Serif;font-style:normal;font-weight:normal" x="42" y="109.55">
    <tspan x="42" y="109.55">GPIO</tspan>
  </text>
  <text font-size="4.51556" style="fill: #000000;text-anchor:middle;font-family:CMU Serif;font-style:normal;font-weight:normal" x="104" y="22.9">
    <tspan x="104" y="22.9">+3.3VADC</tspan>
  </text>
  <text font-size="4.51556" style="fill: #000000;text-anchor:middle;font-family:CMU Serif;font-style:normal;font-weight:normal" x="104" y="32.9">
    <tspan x="104" y="32.9">+3.3V</tspan>
  </text>
  <text font-size="4.51556" style="fill: #000000;text-anchor:middle;font-family:CMU Serif;font-style:normal;font-weight:normal" x="214" y="32.9">
    <tspan x="214" y="32.9">+3.3V</tspan>
  </text>
  <text font-size="4.51556" style="fill: #000000;text-anchor:end;font-family:CMU Serif;font-style:normal;font-weight:normal" x="198" y="69.55">
    <tspan x="198" y="69.55">GPIOx8</tspan>
  </text>
  <text font-size="4.51556" style="fill: #000000;text-anchor:end;font-family:CMU Serif;font-style:normal;font-weight:normal" x="198" y="79.55">
    <tspan x="198" y="79.55">GPIOx8</tspan>
  </text>
  <text font-size="4.51556" style="fill: #000000;text-anchor:end;font-family:CMU Serif;font-style:normal;font-weight:normal" x="198" y="89.55">
    <tspan x="198" y="89.55">GPIOx8</tspan>
  </text>
  <text font-size="6.77333" style="fill: #000000;text-anchor:middle;font-family:CMU Serif;font-style:normal;font-weight:normal" x="250" y="41.8333">
    <tspan x="250" y="41.8333">PreAmp</tspan>
    <tspan x="250" y="50.3">Conn x8</tspan>
  </text>
  <text font-size="4.51556" style="fill: #000000;text-anchor:middle;font-family:CMU Serif;font-style:normal;font-weight:normal" x="214" y="47.2556">
    <tspan x="214" y="47.2556">Test</tspan>
    <tspan x="214" y="52.9">Headers</tspan>
  </text>
  <text font-size="4.51556" style="fill: #000000;text-anchor:start;font-family:CMU Serif;font-style:normal;font-weight:normal" x="242" y="59.55">
    <tspan x="242" y="59.55">CTRLO</tspan>
  </text>
  <text font-size="4.51556" style="fill: #000000;text-anchor:start;font-family:CMU Serif;font-style:normal;font-weight:normal" x="242" y="69.55">
    <tspan x="242" y="69.55">CTRLS</tspan>
  </text>
  <text font-size="4.51556" style="fill: #000000;text-anchor:start;font-family:CMU Serif;font-style:normal;font-weight:normal" x="242" y="79.55">
    <tspan x="242" y="79.55">CTRLG</tspan>
  </text>
  <text font-size="4.51556" style="fill: #000000;text-anchor:start;font-family:CMU Serif;font-style:normal;font-weight:normal" x="242" y="89.55">
    <tspan x="242" y="89.55">CTRL</tspan>
  </text>
  <text font-size="4.51556" style="fill: #000000;text-anchor:middle;font-family:CMU Serif;font-style:normal;font-weight:normal" x="250" y="98.9">
    <tspan x="250" y="98.9">GND</tspan>
  </text>
  <text font-size="4.51556" style="fill: #000000;text-anchor:start;font-family:CMU Serif;font-style:normal;font-weight:normal" x="164" y="100.728">
    <tspan x="164" y="100.728">Only with</tspan>
    <tspan x="164" y="106.372">XC7572XL</tspan>
  </text>
  <line style="fill: none; fill-opacity:0; stroke-width: 0.4; stroke: #000000" x1="101" y1="34" x2="107" y2="34"/>
  <polyline style="fill: none; fill-opacity:0; stroke-width: 0.4; stroke: #000000" points="48,48 55.2,48 56,46 57.6,50 59.2,46 60.8,50 62.4,46 64,50 64.8,48 72,48 "/>
  <polyline style="fill: none; fill-opacity:0; stroke-width: 0.4; stroke: #000000" points="48,58 55.2,58 56,56 57.6,60 59.2,56 60.8,60 62.4,56 64,60 64.8,58 72,58 "/>
  <polyline style="fill: none; fill-opacity:0; stroke-width: 0.4; stroke: #000000" points="48,68 55.2,68 56,66 57.6,70 59.2,66 60.8,70 62.4,66 64,70 64.8,68 72,68 "/>
  <polyline style="fill: none; fill-opacity:0; stroke-width: 0.4; stroke: #000000" points="48,78 55.2,78 56,76 57.6,80 59.2,76 60.8,80 62.4,76 64,80 64.8,78 72,78 "/>
  <polyline style="fill: none; fill-opacity:0; stroke-width: 0.4; stroke: #000000" points="48,88 55.2,88 56,86 57.6,90 59.2,86 60.8,90 62.4,86 64,90 64.8,88 72,88 "/>
  <polyline style="fill: none; fill-opacity:0; stroke-width: 0.4; stroke: #000000" points="96,48 103.2,48 104,46 105.6,50 107.2,46 108.8,50 110.4,46 112,50 112.8,48 120,48 "/>
  <polyline style="fill: none; fill-opacity:0; stroke-width: 0.4; stroke: #000000" points="96,58 103.2,58 104,56 105.6,60 107.2,56 108.8,60 110.4,56 112,60 112.8,58 120,58 "/>
  <polyline style="fill: none; fill-opacity:0; stroke-width: 0.4; stroke: #000000" points="96,68 103.2,68 104,66 105.6,70 107.2,66 108.8,70 110.4,66 112,70 112.8,68 120,68 "/>
  <polyline style="fill: none; fill-opacity:0; stroke-width: 0.4; stroke: #000000" points="96,78 103.2,78 104,76 105.6,80 107.2,76 108.8,80 110.4,76 112,80 112.8,78 120,78 "/>
  <polyline style="fill: none; fill-opacity:0; stroke-width: 0.4; stroke: #000000" points="96,88 103.2,88 104,86 105.6,90 107.2,86 108.8,90 110.4,86 112,90 112.8,88 120,88 "/>
  <g>
    <line style="fill: none; fill-opacity:0; stroke-width: 0.4; stroke: #000000" x1="120" y1="88" x2="140.8" y2="88"/>
    <polygon style="fill: #000000" points="140.8,89.5 143.8,88 140.8,86.5 "/>
    <polygon style="fill: none; fill-opacity:0; stroke-width: 0.4; stroke: #000000" points="140.8,89.5 143.8,88 140.8,86.5 "/>
  </g>
  <g>
    <line style="fill: none; fill-opacity:0; stroke-width: 0.4; stroke: #000000" x1="120" y1="68" x2="140.8" y2="68"/>
    <polygon style="fill: #000000" points="140.8,69.5 143.8,68 140.8,66.5 "/>
    <polygon style="fill: none; fill-opacity:0; stroke-width: 0.4; stroke: #000000" points="140.8,69.5 143.8,68 140.8,66.5 "/>
  </g>
  <g>
    <line style="fill: none; fill-opacity:0; stroke-width: 0.4; stroke: #000000" x1="120" y1="58" x2="140.8" y2="58"/>
    <polygon style="fill: #000000" points="140.8,59.5 143.8,58 140.8,56.5 "/>
    <polygon style="fill: none; fill-opacity:0; stroke-width: 0.4; stroke: #000000" points="140.8,59.5 143.8,58 140.8,56.5 "/>
  </g>
  <g>
    <line style="fill: none; fill-opacity:0; stroke-width: 0.4; stroke: #000000" x1="120" y1="48" x2="140.8" y2="48"/>
    <polygon style="fill: #000000" points="140.8,49.5 143.8,48 140.8,46.5 "/>
    <polygon style="fill: none; fill-opacity:0; stroke-width: 0.4; stroke: #000000" points="140.8,49.5 143.8,48 140.8,46.5 "/>
  </g>
  <g>
    <line style="fill: none; fill-opacity:0; stroke-width: 0.4; stroke: #000000" x1="120" y1="78" x2="140.8" y2="78"/>
    <polygon style="fill: #000000" points="140.8,79.5 143.8,78 140.8,76.5 "/>
    <polygon style="fill: none; fill-opacity:0; stroke-width: 0.4; stroke: #000000" points="140.8,79.5 143.8,78 140.8,76.5 "/>
  </g>
  <line style="fill: none; fill-opacity:0; stroke-width: 0.4; stroke: #000000" x1="44" y1="48" x2="48" y2="48"/>
  <line style="fill: none; fill-opacity:0; stroke-width: 0.4; stroke: #000000" x1="44" y1="58" x2="48" y2="58"/>
  <line style="fill: none; fill-opacity:0; stroke-width: 0.4; stroke: #000000" x1="44" y1="68" x2="48" y2="68"/>
  <line style="fill: none; fill-opacity:0; stroke-width: 0.4; stroke: #000000" x1="44" y1="78" x2="48" y2="78"/>
  <line style="fill: none; fill-opacity:0; stroke-width: 0.4; stroke: #000000" x1="44" y1="88" x2="48" y2="88"/>
  <line style="fill: none; fill-opacity:0; stroke-width: 0.4; stroke: #000000" x1="72" y1="48" x2="96" y2="48"/>
  <line style="fill: none; fill-opacity:0; stroke-width: 0.4; stroke: #000000" x1="72" y1="58" x2="96.0029" y2="58"/>
  <line style="fill: none; fill-opacity:0; stroke-width: 0.4; stroke: #000000" x1="72" y1="68" x2="96" y2="68"/>
  <line style="fill: none; fill-opacity:0; stroke-width: 0.4; stroke: #000000" x1="72" y1="78" x2="96" y2="78"/>
  <line style="fill: none; fill-opacity:0; stroke-width: 0.4; stroke: #000000" x1="72" y1="88" x2="96" y2="88"/>
  <text font-size="4.51556" style="fill: #000000;text-anchor:middle;font-family:CMU Serif;font-style:normal;font-weight:normal" x="60" y="44.9">
    <tspan x="60" y="44.9">75</tspan>
  </text>
  <text font-size="4.51556" style="fill: #000000;text-anchor:middle;font-family:CMU Serif;font-style:normal;font-weight:normal" x="108" y="44.9">
    <tspan x="108" y="44.9">0</tspan>
  </text>
  <text font-size="4.51556" style="fill: #000000;text-anchor:middle;font-family:CMU Serif;font-style:normal;font-weight:normal" x="108" y="64.9">
    <tspan x="108" y="64.9">0</tspan>
  </text>
  <text font-size="4.51556" style="fill: #000000;text-anchor:middle;font-family:CMU Serif;font-style:normal;font-weight:normal" x="108" y="74.9">
    <tspan x="108" y="74.9">0</tspan>
  </text>
  <text font-size="4.51556" style="fill: #000000;text-anchor:middle;font-family:CMU Serif;font-style:normal;font-weight:normal" x="60" y="54.9">
    <tspan x="60" y="54.9">75</tspan>
  </text>
  <text font-size="4.51556" style="fill: #000000;text-anchor:middle;font-family:CMU Serif;font-style:normal;font-weight:normal" x="60" y="64.9">
    <tspan x="60" y="64.9">75</tspan>
  </text>
  <text font-size="4.51556" style="fill: #000000;text-anchor:middle;font-family:CMU Serif;font-style:normal;font-weight:normal" x="60" y="74.9">
    <tspan x="60" y="74.9">75</tspan>
  </text>
  <text font-size="4.51556" style="fill: #000000;text-anchor:middle;font-family:CMU Serif;font-style:normal;font-weight:normal" x="60" y="84.9">
    <tspan x="60" y="84.9">75</tspan>
  </text>
  <polyline style="fill: none; fill-opacity:0; stroke-width: 0.4; stroke: #000000" points="104,24 104,24 104,28 112,28 "/>
  <line style="fill: none; fill-opacity:0; stroke-width: 0.4; stroke: #000000" x1="53" y1="32" x2="59" y2="32"/>
  <polyline style="fill: none; fill-opacity:0; stroke-width: 0.4; stroke: #000000" points="56,32 56,32 56,38 44,38 "/>
  <g>
    <line style="fill: none; fill-opacity:0; stroke-width: 0.4; stroke: #000000" x1="172" y1="124" x2="172" y2="128"/>
    <line style="fill: none; fill-opacity:0; stroke-width: 0.4; stroke: #000000" x1="168" y1="128" x2="176" y2="128"/>
    <line style="fill: none; fill-opacity:0; stroke-width: 0.4; stroke: #000000" x1="169.34" y1="130" x2="174.66" y2="130"/>
    <line style="fill: none; fill-opacity:0; stroke-width: 0.4; stroke: #000000" x1="170.68" y1="132" x2="173.32" y2="132"/>
  </g>
  <polyline style="fill: none; fill-opacity:0; stroke-width: 0.4; stroke: #000000" points="48,98 55.2,98 56,96 57.6,100 59.2,96 60.8,100 62.4,96 64,100 64.8,98 72,98 "/>
  <polyline style="fill: none; fill-opacity:0; stroke-width: 0.4; stroke: #000000" points="96,98 103.2,98 104,96 105.6,100 107.2,96 108.8,100 110.4,96 112,100 112.8,98 120,98 "/>
  <g>
    <line style="fill: none; fill-opacity:0; stroke-width: 0.4; stroke: #000000" x1="120" y1="98" x2="140.8" y2="98"/>
    <polygon style="fill: #000000" points="140.8,99.5 143.8,98 140.8,96.5 "/>
    <polygon style="fill: none; fill-opacity:0; stroke-width: 0.4; stroke: #000000" points="140.8,99.5 143.8,98 140.8,96.5 "/>
  </g>
  <line style="fill: none; fill-opacity:0; stroke-width: 0.4; stroke: #000000" x1="44" y1="98" x2="48" y2="98"/>
  <line style="fill: none; fill-opacity:0; stroke-width: 0.4; stroke: #000000" x1="72" y1="98" x2="96" y2="98"/>
  <text font-size="4.51556" style="fill: #000000;text-anchor:middle;font-family:CMU Serif;font-style:normal;font-weight:normal" x="108" y="94.9">
    <tspan x="108" y="94.9">0</tspan>
  </text>
  <text font-size="4.51556" style="fill: #000000;text-anchor:middle;font-family:CMU Serif;font-style:normal;font-weight:normal" x="60" y="94.9">
    <tspan x="60" y="94.9">75</tspan>
  </text>
  <text font-size="4.51556" style="fill: #000000;text-anchor:middle;font-family:CMU Serif;font-style:normal;font-weight:normal" x="60" y="104.9">
    <tspan x="60" y="104.9">75</tspan>
  </text>
  <polyline style="fill: none; fill-opacity:0; stroke-width: 0.4; stroke: #000000" points="48,108 55.2,108 56,106 57.6,110 59.2,106 60.8,110 62.4,106 64,110 64.8,108 72,108 "/>
  <polyline style="fill: none; fill-opacity:0; stroke-width: 0.4; stroke: #000000" points="96,108 103.2,108 104,106 105.6,110 107.2,106 108.8,110 110.4,106 112,110 112.8,108 120,108 "/>
  <g>
    <line style="fill: none; fill-opacity:0; stroke-width: 0.4; stroke: #000000" x1="120" y1="108" x2="140.8" y2="108"/>
    <polygon style="fill: #000000" points="140.8,109.5 143.8,108 140.8,106.5 "/>
    <polygon style="fill: none; fill-opacity:0; stroke-width: 0.4; stroke: #000000" points="140.8,109.5 143.8,108 140.8,106.5 "/>
  </g>
  <line style="fill: none; fill-opacity:0; stroke-width: 0.4; stroke: #000000" x1="44" y1="108" x2="48" y2="108"/>
  <line style="fill: none; fill-opacity:0; stroke-width: 0.4; stroke: #000000" x1="72" y1="108" x2="96" y2="108"/>
  <text font-size="4.51556" style="fill: #000000;text-anchor:middle;font-family:CMU Serif;font-style:normal;font-weight:normal" x="108" y="104.9">
    <tspan x="108" y="104.9">0</tspan>
  </text>
  <polyline style="fill: none; fill-opacity:0; stroke-width: 0.4; stroke: #000000" points="110,38 117.2,38 118,36 119.6,40 121.2,36 122.8,40 124.4,36 126,40 126.8,38 134,38 "/>
  <text font-size="4.51556" style="fill: #000000;text-anchor:middle;font-family:CMU Serif;font-style:normal;font-weight:normal" x="122" y="34.635">
    <tspan x="122" y="34.635">NotPOP</tspan>
  </text>
  <polyline style="fill: none; fill-opacity:0; stroke-width: 0.4; stroke: #000000" points="110,28 117.2,28 118,26 119.6,30 121.2,26 122.8,30 124.4,26 126,30 126.8,28 134,28 "/>
  <text font-size="4.51556" style="fill: #000000;text-anchor:middle;font-family:CMU Serif;font-style:normal;font-weight:normal" x="122" y="24.9">
    <tspan x="122" y="24.9">0</tspan>
  </text>
  <line style="fill: none; fill-opacity:0; stroke-width: 0.4; stroke: #000000" x1="56" y1="38" x2="110" y2="38"/>
  <g>
    <ellipse style="fill: #000000" cx="56" cy="38" rx="0.5" ry="0.5"/>
    <ellipse style="fill: none; fill-opacity:0; stroke-width: 2; stroke: #000000" cx="56" cy="38" rx="0.5" ry="0.5"/>
  </g>
  <g>
    <ellipse style="fill: #000000" cx="104" cy="38" rx="0.5" ry="0.5"/>
    <ellipse style="fill: none; fill-opacity:0; stroke-width: 2; stroke: #000000" cx="104" cy="38" rx="0.5" ry="0.5"/>
  </g>
  <line style="fill: none; fill-opacity:0; stroke-width: 0.4; stroke: #000000" x1="101" y1="24" x2="107" y2="24"/>
  <line style="fill: none; fill-opacity:0; stroke-width: 0.4; stroke: #000000" x1="104" y1="38" x2="104" y2="34"/>
  <g>
    <ellipse style="fill: #000000" cx="134" cy="38" rx="0.5" ry="0.5"/>
    <ellipse style="fill: none; fill-opacity:0; stroke-width: 2; stroke: #000000" cx="134" cy="38" rx="0.5" ry="0.5"/>
  </g>
  <line style="fill: none; fill-opacity:0; stroke-width: 0.4; stroke: #000000" x1="134" y1="38" x2="144" y2="38"/>
  <line style="fill: none; fill-opacity:0; stroke-width: 0.4; stroke: #000000" x1="134" y1="28" x2="134" y2="38"/>
  <polyline style="fill: none; fill-opacity:0; stroke-width: 0.4; stroke: #000000" points="212,34 214,34 214,38 200,38 "/>
  <line style="fill: none; fill-opacity:0; stroke-width: 0.4; stroke: #000000" x1="211" y1="34" x2="217" y2="34"/>
  <text font-size="4.51556" style="fill: #000000;text-anchor:middle;font-family:CMU Serif;font-style:normal;font-weight:normal" x="228" y="84.9">
    <tspan x="228" y="84.9">x8</tspan>
  </text>
  <line style="fill: none; fill-opacity:0; stroke-width: 0.4; stroke: #000000" x1="226" y1="90" x2="230" y2="86"/>
  <text font-size="4.51556" style="fill: #000000;text-anchor:middle;font-family:CMU Serif;font-style:normal;font-weight:normal" x="228" y="74.9">
    <tspan x="228" y="74.9">x8</tspan>
  </text>
  <line style="fill: none; fill-opacity:0; stroke-width: 0.4; stroke: #000000" x1="226" y1="80" x2="230" y2="76"/>
  <text font-size="4.51556" style="fill: #000000;text-anchor:middle;font-family:CMU Serif;font-style:normal;font-weight:normal" x="228" y="64.9">
    <tspan x="228" y="64.9">x8</tspan>
  </text>
  <line style="fill: none; fill-opacity:0; stroke-width: 0.4; stroke: #000000" x1="226" y1="70" x2="230" y2="66"/>
  <text font-size="4.51556" style="fill: #000000;text-anchor:middle;font-family:CMU Serif;font-style:normal;font-weight:normal" x="228" y="54.9">
    <tspan x="228" y="54.9">x8</tspan>
  </text>
  <line style="fill: none; fill-opacity:0; stroke-width: 0.4; stroke: #000000" x1="226" y1="60" x2="230" y2="56"/>
  <g>
    <line style="fill: none; fill-opacity:0; stroke-width: 0.4; stroke: #000000" x1="200" y1="58" x2="236.8" y2="58"/>
    <polygon style="fill: #000000" points="236.8,59.5 239.8,58 236.8,56.5 "/>
    <polygon style="fill: none; fill-opacity:0; stroke-width: 0.4; stroke: #000000" points="236.8,59.5 239.8,58 236.8,56.5 "/>
  </g>
  <g>
    <line style="fill: none; fill-opacity:0; stroke-width: 0.4; stroke: #000000" x1="200" y1="68" x2="236.8" y2="68"/>
    <polygon style="fill: #000000" points="236.8,69.5 239.8,68 236.8,66.5 "/>
    <polygon style="fill: none; fill-opacity:0; stroke-width: 0.4; stroke: #000000" points="236.8,69.5 239.8,68 236.8,66.5 "/>
  </g>
  <g>
    <line style="fill: none; fill-opacity:0; stroke-width: 0.4; stroke: #000000" x1="200" y1="78" x2="236.8" y2="78"/>
    <polygon style="fill: #000000" points="236.8,79.5 239.8,78 236.8,76.5 "/>
    <polygon style="fill: none; fill-opacity:0; stroke-width: 0.4; stroke: #000000" points="236.8,79.5 239.8,78 236.8,76.5 "/>
  </g>
  <g>
    <line style="fill: none; fill-opacity:0; stroke-width: 0.4; stroke: #000000" x1="200" y1="88" x2="236.8" y2="88"/>
    <polygon style="fill: #000000" points="236.8,89.5 239.8,88 236.8,86.5 "/>
    <polygon style="fill: none; fill-opacity:0; stroke-width: 0.4; stroke: #000000" points="236.8,89.5 239.8,88 236.8,86.5 "/>
  </g>
  <text font-size="4.51556" style="fill: #000000;text-anchor:end;font-family:CMU Serif;font-style:normal;font-weight:normal" x="246" y="107.55">
    <tspan x="246" y="107.55">x8</tspan>
  </text>
  <line style="fill: none; fill-opacity:0; stroke-width: 0.4; stroke: #000000" x1="248" y1="108" x2="252" y2="104"/>
  <text font-size="4.51556" style="fill: #000000;text-anchor:end;font-family:CMU Serif;font-style:normal;font-weight:normal" x="168" y="125.55">
    <tspan x="168" y="125.55">x3</tspan>
  </text>
  <line style="fill: none; fill-opacity:0; stroke-width: 0.4; stroke: #000000" x1="170" y1="126" x2="174" y2="122"/>
  <g>
    <polygon style="fill: #ffffff" points="246,110 254,110 250,116 "/>
    <polygon style="fill: none; fill-opacity:0; stroke-width: 0.4; stroke: #000000" points="246,110 254,110 250,116 "/>
  </g>
  <line style="fill: none; fill-opacity:0; stroke-width: 0.4; stroke: #000000" x1="172" y1="118" x2="172" y2="124"/>
  <line style="fill: none; fill-opacity:0; stroke-width: 0.4; stroke: #000000" x1="250" y1="100" x2="250" y2="110"/>
  <text font-size="4.51556" style="fill: #000000;text-anchor:middle;font-family:CMU Serif;font-style:normal;font-weight:normal" x="108" y="54.9">
    <tspan x="108" y="54.9">0</tspan>
  </text>
  <text font-size="4.51556" style="fill: #000000;text-anchor:middle;font-family:CMU Serif;font-style:normal;font-weight:normal" x="204" y="34.9">
    <tspan x="204" y="34.9">x2</tspan>
  </text>
  <line style="fill: none; fill-opacity:0; stroke-width: 0.4; stroke: #000000" x1="202" y1="40" x2="206" y2="36"/>
  <text font-size="4.51556" style="fill: #000000;text-anchor:middle;font-family:CMU Serif;font-style:normal;font-weight:normal" x="108" y="84.9">
    <tspan x="108" y="84.9">0</tspan>
  </text>
  <g>
    <rect style="fill: #c7ffc7" x="16" y="140" width="8" height="8"/>
    <rect style="fill: none; fill-opacity:0; stroke-width: 0.4; stroke: #000000" x="16" y="140" width="8" height="8"/>
  </g>
  <text font-size="4.51556" style="fill: #000000;text-anchor:start;font-family:CMU Serif;font-style:normal;font-weight:normal" x="26" y="145.55">
    <tspan x="26" y="145.55">Digital Part(s)</tspan>
  </text>
  <g>
    <rect style="fill: #ffc7d1" x="66" y="140" width="8" height="8"/>
    <rect style="fill: none; fill-opacity:0; stroke-width: 0.4; stroke: #000000" x="66" y="140" width="8" height="8"/>
  </g>
  <text font-size="4.51556" style="fill: #000000;text-anchor:start;font-family:CMU Serif;font-style:normal;font-weight:normal" x="76" y="145.55">
    <tspan x="76" y="145.55">Analog Part(s)</tspan>
  </text>
  <g>
    <rect style="fill: #ffffc7" x="116" y="140" width="8" height="8"/>
    <rect style="fill: none; fill-opacity:0; stroke-width: 0.4; stroke: #000000" x="116" y="140" width="8" height="8"/>
  </g>
  <text font-size="4.51556" style="fill: #000000;text-anchor:start;font-family:CMU Serif;font-style:normal;font-weight:normal" x="126" y="145.55">
    <tspan x="126" y="145.55">Connector(s)</tspan>
  </text>
  <g>
    <polygon style="fill: #ffffff" points="162,142 170,142 166,148 "/>
    <polygon style="fill: none; fill-opacity:0; stroke-width: 0.4; stroke: #000000" points="162,142 170,142 166,148 "/>
  </g>
  <g>
    <line style="fill: none; fill-opacity:0; stroke-width: 0.4; stroke: #000000" x1="204" y1="140" x2="204" y2="144"/>
    <line style="fill: none; fill-opacity:0; stroke-width: 0.4; stroke: #000000" x1="200" y1="144" x2="208" y2="144"/>
    <line style="fill: none; fill-opacity:0; stroke-width: 0.4; stroke: #000000" x1="201.34" y1="146" x2="206.66" y2="146"/>
    <line style="fill: none; fill-opacity:0; stroke-width: 0.4; stroke: #000000" x1="202.68" y1="148" x2="205.32" y2="148"/>
  </g>
  <text font-size="4.51556" style="fill: #000000;text-anchor:start;font-family:CMU Serif;font-style:normal;font-weight:normal" x="174" y="145.55">
    <tspan x="174" y="145.55">AGND</tspan>
  </text>
  <text font-size="4.51556" style="fill: #000000;text-anchor:start;font-family:CMU Serif;font-style:normal;font-weight:normal" x="212" y="145.55">
    <tspan x="212" y="145.55">DGND</tspan>
  </text>
</svg>
