<?xml version="1.0" encoding="UTF-8" standalone="no"?>
<svg
   xmlns:dc="http://purl.org/dc/elements/1.1/"
   xmlns:cc="http://creativecommons.org/ns#"
   xmlns:rdf="http://www.w3.org/1999/02/22-rdf-syntax-ns#"
   xmlns:svg="http://www.w3.org/2000/svg"
   xmlns="http://www.w3.org/2000/svg"
   xmlns:sodipodi="http://sodipodi.sourceforge.net/DTD/sodipodi-0.dtd"
   xmlns:inkscape="http://www.inkscape.org/namespaces/inkscape"
   width="498.94824"
   height="379.15723"
   viewBox="7 8 268.55295 196.50301"
   id="svg5291"
   version="1.1"
   inkscape:version="0.48.4 r9939"
   sodipodi:docname="Cypress.svg">
  <metadata
     id="metadata5869">
    <rdf:RDF>
      <cc:Work
         rdf:about="">
        <dc:format>image/svg+xml</dc:format>
        <dc:type
           rdf:resource="http://purl.org/dc/dcmitype/StillImage" />
      </cc:Work>
    </rdf:RDF>
  </metadata>
  <defs
     id="defs5867" />
  <sodipodi:namedview
     pagecolor="#ffffff"
     bordercolor="#666666"
     borderopacity="1"
     objecttolerance="10"
     gridtolerance="10"
     guidetolerance="10"
     inkscape:pageopacity="0"
     inkscape:pageshadow="2"
     inkscape:window-width="640"
     inkscape:window-height="480"
     id="namedview5865"
     showgrid="false"
     fit-margin-top="4"
     fit-margin-bottom="4"
     fit-margin-left="2"
     fit-margin-right="2"
     inkscape:zoom="0.57653969"
     inkscape:cx="248.54516"
     inkscape:cy="192.02088"
     inkscape:window-x="455"
     inkscape:window-y="762"
     inkscape:window-maximized="0"
     inkscape:current-layer="svg5291" />
  <g
     id="g5293"
     transform="translate(0.2764762,-4.1689506)">
    <rect
       style="fill:#ffffff"
       x="8"
       y="18"
       width="266"
       height="178"
       id="rect5295" />
    <rect
       style="fill:none;stroke:#000000;stroke-width:0.40000001;stroke-dasharray:4"
       x="8"
       y="18"
       width="266"
       height="178"
       id="rect5297" />
  </g>
  <g
     id="g5299"
     transform="translate(0.2764762,-4.1689506)">
    <rect
       style="fill:#c7ffc7"
       x="90"
       y="60"
       width="60"
       height="80"
       id="rect5301" />
    <rect
       style="fill:none;stroke:#000000;stroke-width:0.40000001"
       x="90"
       y="60"
       width="60"
       height="80"
       id="rect5303" />
  </g>
  <g
     id="g5305"
     transform="translate(0.2764762,-4.1689506)">
    <rect
       style="fill:#c7ffc7"
       x="210"
       y="50"
       width="60"
       height="90"
       id="rect5307" />
    <rect
       style="fill:none;stroke:#000000;stroke-width:0.40000001"
       x="210"
       y="50"
       width="60"
       height="90"
       id="rect5309" />
  </g>
  <g
     id="g5311"
     transform="translate(0.2764762,-4.1689506)">
    <rect
       style="fill:#ffffc7"
       x="12"
       y="30"
       width="28"
       height="90"
       id="rect5313" />
    <rect
       style="fill:none;stroke:#000000;stroke-width:0.40000001"
       x="12"
       y="30"
       width="28"
       height="90"
       id="rect5315" />
  </g>
  <text
     font-size="12.8"
     style="font-size:12.80000019px;font-style:normal;font-weight:normal;text-anchor:start;fill:#000000;font-family:sans-serif"
     x="120.27647"
     y="95.831047"
     id="text5317">
    <tspan
       x="120.27647"
       y="95.831047"
       id="tspan5319" />
  </text>
  <g
     id="g5321"
     transform="translate(0.2764762,-4.1689506)">
    <rect
       style="fill:#ffc7d1"
       x="70"
       y="30"
       width="30"
       height="20"
       id="rect5323" />
    <rect
       style="fill:none;stroke:#000000;stroke-width:0.40000001"
       x="70"
       y="30"
       width="30"
       height="20"
       id="rect5325" />
  </g>
  <text
     font-size="12.8"
     style="font-size:12.80000019px;font-style:normal;font-weight:normal;text-anchor:start;fill:#000000;font-family:sans-serif"
     x="120.27647"
     y="95.831047"
     id="text5327">
    <tspan
       x="120.27647"
       y="95.831047"
       id="tspan5329" />
  </text>
  <g
     id="g5331"
     transform="translate(0.2764762,-4.1689506)">
    <rect
       style="fill:#c7ffc7"
       x="90"
       y="160"
       width="20"
       height="30"
       id="rect5333" />
    <rect
       style="fill:none;stroke:#000000;stroke-width:0.40000001"
       x="90"
       y="160"
       width="20"
       height="30"
       id="rect5335" />
  </g>
  <text
     font-size="6.77333"
     style="font-size:6.77333021px;font-style:normal;font-weight:normal;text-anchor:middle;fill:#000000;font-family:CMU Serif"
     x="240.27647"
     y="44.13105"
     id="text5337">
    <tspan
       x="240.27647"
       y="44.13105"
       id="tspan5339">XC3S500E</tspan>
  </text>
  <text
     font-size="6.77333"
     style="font-size:6.77333021px;font-style:normal;font-weight:normal;text-anchor:middle;fill:#000000;font-family:CMU Serif"
     x="118.27647"
     y="54.13105"
     id="text5341">
    <tspan
       x="118.27647"
       y="54.13105"
       id="tspan5343">CY7C68013A</tspan>
  </text>
  <text
     font-size="4.51556"
     style="font-size:4.51556015px;font-style:normal;font-weight:normal;text-anchor:start;fill:#000000;font-family:CMU Serif"
     x="212.27647"
     y="117.38105"
     id="text5345">
    <tspan
       x="212.27647"
       y="117.38105"
       id="tspan5347">JTAG (not bank0)</tspan>
  </text>
  <text
     font-size="4.51556"
     style="font-size:4.51556015px;font-style:normal;font-weight:normal;text-anchor:end;fill:#000000;font-family:CMU Serif"
     x="148.27647"
     y="67.38105"
     id="text5349">
    <tspan
       x="148.27647"
       y="67.38105"
       id="tspan5351">MISCCTRL</tspan>
  </text>
  <text
     font-size="4.51556"
     style="font-size:4.51556015px;font-style:normal;font-weight:normal;text-anchor:end;fill:#000000;font-family:CMU Serif"
     x="148.27647"
     y="97.38105"
     id="text5353">
    <tspan
       x="148.27647"
       y="97.38105"
       id="tspan5355">FIFOAD</tspan>
  </text>
  <text
     font-size="4.51556"
     style="font-size:4.51556015px;font-style:normal;font-weight:normal;text-anchor:end;fill:#000000;font-family:CMU Serif"
     x="148.27647"
     y="107.38105"
     id="text5357">
    <tspan
       x="148.27647"
       y="107.38105"
       id="tspan5359">FIFODATA</tspan>
  </text>
  <text
     font-size="4.51556"
     style="font-size:4.51556015px;font-style:normal;font-weight:normal;text-anchor:end;fill:#000000;font-family:CMU Serif"
     x="103.57848"
     y="17.896849"
     id="text5361">
    <tspan
       x="103.57848"
       y="17.896849"
       id="tspan5363" />
  </text>
  <text
     font-size="4.51556"
     style="font-size:4.51556015px;font-style:normal;font-weight:normal;text-anchor:end;fill:#000000;font-family:CMU Serif"
     x="148.27647"
     y="117.38105"
     id="text5365">
    <tspan
       x="148.27647"
       y="117.38105"
       id="tspan5367">GPIO</tspan>
  </text>
  <text
     font-size="4.51556"
     style="font-size:4.51556015px;font-style:normal;font-weight:normal;text-anchor:start;fill:#000000;font-family:CMU Serif"
     x="212.27647"
     y="107.38105"
     id="text5369">
    <tspan
       x="212.27647"
       y="107.38105"
       id="tspan5371">GPIO</tspan>
  </text>
  <text
     font-size="4.51556"
     style="font-size:4.51556015px;font-style:normal;font-weight:normal;text-anchor:start;fill:#000000;font-family:CMU Serif"
     x="212.27647"
     y="97.38105"
     id="text5373">
    <tspan
       x="212.27647"
       y="97.38105"
       id="tspan5375">GPIO</tspan>
  </text>
  <text
     font-size="4.51556"
     style="font-size:4.51556015px;font-style:normal;font-weight:normal;text-anchor:start;fill:#000000;font-family:CMU Serif"
     x="212.27647"
     y="67.38105"
     id="text5377">
    <tspan
       x="212.27647"
       y="67.38105"
       id="tspan5379">GPIO</tspan>
  </text>
  <text
     font-size="4.51556"
     style="font-size:4.51556015px;font-style:normal;font-weight:normal;text-anchor:end;fill:#000000;font-family:CMU Serif"
     x="148.27647"
     y="77.38105"
     id="text5381">
    <tspan
       x="148.27647"
       y="77.38105"
       id="tspan5383">SLRD</tspan>
  </text>
  <text
     font-size="4.51556"
     style="font-size:4.51556015px;font-style:normal;font-weight:normal;text-anchor:end;fill:#000000;font-family:CMU Serif"
     x="148.27647"
     y="87.38105"
     id="text5385">
    <tspan
       x="148.27647"
       y="87.38105"
       id="tspan5387">SLWR</tspan>
  </text>
  <text
     font-size="4.51556"
     style="font-size:4.51556015px;font-style:normal;font-weight:normal;text-anchor:start;fill:#000000;font-family:CMU Serif"
     x="212.27647"
     y="77.38105"
     id="text5389">
    <tspan
       x="212.27647"
       y="77.38105"
       id="tspan5391">GPIO</tspan>
  </text>
  <text
     font-size="4.51556"
     style="font-size:4.51556015px;font-style:normal;font-weight:normal;text-anchor:start;fill:#000000;font-family:CMU Serif"
     x="212.27647"
     y="87.38105"
     id="text5393">
    <tspan
       x="212.27647"
       y="87.38105"
       id="tspan5395">GPIO</tspan>
  </text>
  <text
     font-size="4.51556"
     style="font-size:4.51556015px;font-style:normal;font-weight:normal;text-anchor:end;fill:#000000;font-family:CMU Serif"
     x="148.27647"
     y="127.38105"
     id="text5397">
    <tspan
       x="148.27647"
       y="127.38105"
       id="tspan5399">GPIO</tspan>
  </text>
  <text
     font-size="4.51556"
     style="font-size:4.51556015px;font-style:normal;font-weight:normal;text-anchor:middle;fill:#000000;font-family:CMU Serif"
     x="160.27647"
     y="124.73104"
     id="text5401">
    <tspan
       x="160.27647"
       y="124.73104"
       id="tspan5403">USB-ON</tspan>
  </text>
  <text
     font-size="4.51556"
     style="font-size:4.51556015px;font-style:normal;font-weight:normal;text-anchor:start;fill:#000000;font-family:CMU Serif"
     x="212.27647"
     y="127.38105"
     id="text5405">
    <tspan
       x="212.27647"
       y="127.38105"
       id="tspan5407">GPIO</tspan>
  </text>
  <text
     font-size="4.51556"
     style="font-size:4.51556015px;font-style:normal;font-weight:normal;text-anchor:start;fill:#000000;font-family:CMU Serif"
     x="92.276474"
     y="67.38105"
     id="text5409">
    <tspan
       x="92.276474"
       y="67.38105"
       id="tspan5411">VCC</tspan>
  </text>
  <text
     font-size="4.51556"
     style="font-size:4.51556015px;font-style:normal;font-weight:normal;text-anchor:start;fill:#000000;font-family:CMU Serif"
     x="72.276474"
     y="37.38105"
     id="text5413">
    <tspan
       x="72.276474"
       y="37.38105"
       id="tspan5415">IN</tspan>
  </text>
  <text
     font-size="4.51556"
     style="font-size:4.51556015px;font-style:normal;font-weight:normal;text-anchor:end;fill:#000000;font-family:CMU Serif"
     x="98.276474"
     y="37.38105"
     id="text5417">
    <tspan
       x="98.276474"
       y="37.38105"
       id="tspan5419">OUT</tspan>
  </text>
  <text
     font-size="4.51556"
     style="font-size:4.51556015px;font-style:normal;font-weight:normal;text-anchor:middle;fill:#000000;font-family:CMU Serif"
     x="84.276474"
     y="23.381048"
     id="text5421">
    <tspan
       x="84.276474"
       y="23.381048"
       id="tspan5423">LTC1844</tspan>
  </text>
  <text
     font-size="4.51556"
     style="font-size:4.51556015px;font-style:normal;font-weight:normal;text-anchor:middle;fill:#000000;font-family:CMU Serif"
     x="54.276478"
     y="28.73105"
     id="text5425">
    <tspan
       x="54.276478"
       y="28.73105"
       id="tspan5427">USB5V0</tspan>
  </text>
  <text
     font-size="4.51556"
     style="font-size:4.51556015px;font-style:normal;font-weight:normal;text-anchor:middle;fill:#000000;font-family:CMU Serif"
     x="116.27647"
     y="28.73105"
     id="text5429">
    <tspan
       x="116.27647"
       y="28.73105"
       id="tspan5431">USB3V3</tspan>
  </text>
  <text
     font-size="4.51556"
     style="font-size:4.51556015px;font-style:normal;font-weight:normal;text-anchor:middle;fill:#000000;font-family:CMU Serif"
     x="74.276474"
     y="58.731052"
     id="text5433">
    <tspan
       x="74.276474"
       y="58.731052"
       id="tspan5435">USB3V3</tspan>
  </text>
  <text
     font-size="4.51556"
     style="font-size:4.51556015px;font-style:normal;font-weight:normal;text-anchor:start;fill:#000000;font-family:CMU Serif"
     x="92.276474"
     y="117.38105"
     id="text5437">
    <tspan
       x="92.276474"
       y="117.38105"
       id="tspan5439">SCL</tspan>
  </text>
  <text
     font-size="4.51556"
     style="font-size:4.51556015px;font-style:normal;font-weight:normal;text-anchor:start;fill:#000000;font-family:CMU Serif"
     x="92.276474"
     y="127.38105"
     id="text5441">
    <tspan
       x="92.276474"
       y="127.38105"
       id="tspan5443">SDA</tspan>
  </text>
  <text
     font-size="4.51556"
     style="font-size:4.51556015px;font-style:normal;font-weight:normal;text-anchor:middle;fill:#000000;font-family:CMU Serif"
     x="150.27647"
     y="148.73105"
     id="text5445">
    <tspan
       x="150.27647"
       y="148.73105"
       id="tspan5447">USB5V0</tspan>
  </text>
  <text
     font-size="4.51556"
     style="font-size:4.51556015px;font-style:normal;font-weight:normal;text-anchor:middle;fill:#000000;font-family:CMU Serif"
     x="52.276478"
     y="84.731049"
     id="text5449">
    <tspan
       x="52.276478"
       y="84.731049"
       id="tspan5451">USB5V0</tspan>
  </text>
  <text
     font-size="4.51556"
     style="font-size:4.51556015px;font-style:normal;font-weight:normal;text-anchor:start;fill:#000000;font-family:CMU Serif"
     x="92.276474"
     y="167.38106"
     id="text5453">
    <tspan
       x="92.276474"
       y="167.38106"
       id="tspan5455">SCL</tspan>
  </text>
  <text
     font-size="4.51556"
     style="font-size:4.51556015px;font-style:normal;font-weight:normal;text-anchor:start;fill:#000000;font-family:CMU Serif"
     x="92.276474"
     y="177.38106"
     id="text5457">
    <tspan
       x="92.276474"
       y="177.38106"
       id="tspan5459">SDA</tspan>
  </text>
  <text
     font-size="4.51556"
     style="font-size:4.51556015px;font-style:normal;font-weight:normal;text-anchor:middle;fill:#000000;font-family:CMU Serif"
     x="100.27647"
     y="153.38106"
     id="text5461">
    <tspan
       x="100.27647"
       y="153.38106"
       id="tspan5463">24AA128</tspan>
  </text>
  <text
     font-size="4.51556"
     style="font-size:4.51556015px;font-style:normal;font-weight:normal;text-anchor:start;fill:#000000;font-family:CMU Serif"
     x="92.276474"
     y="77.38105"
     id="text5465">
    <tspan
       x="92.276474"
       y="77.38105"
       id="tspan5467">DPLUS</tspan>
  </text>
  <text
     font-size="4.51556"
     style="font-size:4.51556015px;font-style:normal;font-weight:normal;text-anchor:start;fill:#000000;font-family:CMU Serif"
     x="92.276474"
     y="87.38105"
     id="text5469">
    <tspan
       x="92.276474"
       y="87.38105"
       id="tspan5471">DMINUS</tspan>
  </text>
  <text
     font-size="4.51556"
     style="font-size:4.51556015px;font-style:normal;font-weight:normal;text-anchor:end;fill:#000000;font-family:CMU Serif"
     x="38.276478"
     y="67.38105"
     id="text5473">
    <tspan
       x="38.276478"
       y="67.38105"
       id="tspan5475">DPLUS</tspan>
  </text>
  <text
     font-size="4.51556"
     style="font-size:4.51556015px;font-style:normal;font-weight:normal;text-anchor:end;fill:#000000;font-family:CMU Serif"
     x="38.276478"
     y="77.38105"
     id="text5477">
    <tspan
       x="38.276478"
       y="77.38105"
       id="tspan5479">DMINUS</tspan>
  </text>
  <text
     font-size="4.51556"
     style="font-size:4.51556015px;font-style:normal;font-weight:normal;text-anchor:end;fill:#000000;font-family:CMU Serif"
     x="38.276478"
     y="37.38105"
     id="text5481">
    <tspan
       x="38.276478"
       y="37.38105"
       id="tspan5483">+5V</tspan>
  </text>
  <text
     font-size="4.51556"
     style="font-size:4.51556015px;font-style:normal;font-weight:normal;text-anchor:end;fill:#000000;font-family:CMU Serif"
     x="38.276478"
     y="107.38105"
     id="text5485">
    <tspan
       x="38.276478"
       y="107.38105"
       id="tspan5487">GND</tspan>
  </text>
  <text
     font-size="4.51556"
     style="font-size:4.51556015px;font-style:normal;font-weight:normal;text-anchor:middle;fill:#000000;font-family:CMU Serif"
     x="126.27647"
     y="146.73105"
     id="text5489">
    <tspan
       x="126.27647"
       y="146.73105"
       id="tspan5491">24MHz</tspan>
  </text>
  <text
     font-size="6.77333"
     style="font-size:6.77333021px;font-style:normal;font-weight:normal;text-anchor:middle;fill:#000000;font-family:CMU Serif"
     x="26.276476"
     y="22.131048"
     id="text5493">
    <tspan
       x="26.276476"
       y="22.131048"
       id="tspan5495">USB</tspan>
  </text>
  <text
     font-size="7.90222"
     style="font-size:7.90221977px;font-style:normal;font-weight:normal;text-anchor:middle;fill:#000000;font-family:CMU Serif"
     x="140.27647"
     y="11.831049"
     id="text5497">
    <tspan
       x="140.27647"
       y="11.831049"
       id="tspan5499">Real Time System Controller</tspan>
  </text>
  <text
     font-size="4.51556"
     style="font-size:4.51556015px;font-style:normal;font-weight:normal;text-anchor:start;fill:#000000;font-family:CMU Serif"
     x="212.27647"
     y="57.38105"
     id="text5501">
    <tspan
       x="212.27647"
       y="57.38105"
       id="tspan5503">VCCIO</tspan>
  </text>
  <text
     font-size="4.51556"
     style="font-size:4.51556015px;font-style:normal;font-weight:normal;text-anchor:middle;fill:#000000;font-family:CMU Serif"
     x="196.27647"
     y="48.731052"
     id="text5505">
    <tspan
       x="196.27647"
       y="48.731052"
       id="tspan5507">VCC3V3</tspan>
  </text>
  <text
     font-size="4.51556"
     style="font-size:4.51556015px;font-style:normal;font-weight:normal;text-anchor:middle;fill:#000000;font-family:CMU Serif"
     x="240.27647"
     y="50.031052"
     id="text5509">
    <tspan
       x="240.27647"
       y="50.031052"
       id="tspan5511">BANK0</tspan>
  </text>
  <text
     font-size="4.51556"
     style="font-size:4.51556015px;font-style:normal;font-weight:normal;text-anchor:middle;fill:#000000;font-family:CMU Serif"
     x="184.27647"
     y="124.73104"
     id="text5513">
    <tspan
       x="184.27647"
       y="124.73104"
       id="tspan5515">VSWT</tspan>
  </text>
  <g
     id="g5517"
     transform="translate(0.2764762,-4.1689506)">
    <line
       style="fill:none;stroke:#000000;stroke-width:0.40000001"
       x1="178"
       y1="70"
       x2="206.8"
       y2="70"
       id="line5519" />
    <polygon
       style="fill:#000000"
       points="206.8,71.5 209.8,70 206.8,68.5 "
       id="polygon5521" />
    <polygon
       style="fill:none;stroke:#000000;stroke-width:0.40000001"
       points="206.8,71.5 209.8,70 206.8,68.5 "
       id="polygon5523" />
  </g>
  <text
     font-size="4.51556"
     style="font-size:4.51556015px;font-style:normal;font-weight:normal;text-anchor:middle;fill:#000000;font-family:CMU Serif"
     x="194.27647"
     y="62.731052"
     id="text5525">
    <tspan
       x="194.27647"
       y="62.731052"
       id="tspan5527">8</tspan>
  </text>
  <g
     id="g5529"
     transform="translate(0.2764762,-4.1689506)">
    <line
       style="fill:none;stroke:#000000;stroke-width:0.40000001"
       x1="153.2"
       y1="80"
       x2="210"
       y2="80"
       id="line5531" />
    <polygon
       style="fill:#000000"
       points="153.2,78.5 150.2,80 153.2,81.5 "
       id="polygon5533" />
    <polygon
       style="fill:none;stroke:#000000;stroke-width:0.40000001"
       points="153.2,78.5 150.2,80 153.2,81.5 "
       id="polygon5535" />
  </g>
  <g
     id="g5537"
     transform="translate(0.2764762,-4.1689506)">
    <line
       style="fill:none;stroke:#000000;stroke-width:0.40000001"
       x1="153.2"
       y1="90"
       x2="210"
       y2="90"
       id="line5539" />
    <polygon
       style="fill:#000000"
       points="153.2,88.5 150.2,90 153.2,91.5 "
       id="polygon5541" />
    <polygon
       style="fill:none;stroke:#000000;stroke-width:0.40000001"
       points="153.2,88.5 150.2,90 153.2,91.5 "
       id="polygon5543" />
  </g>
  <g
     id="g5545"
     transform="translate(0.2764762,-4.1689506)">
    <line
       style="fill:none;stroke:#000000;stroke-width:0.40000001"
       x1="178"
       y1="100"
       x2="206.8"
       y2="100"
       id="line5547" />
    <polygon
       style="fill:#000000"
       points="206.8,101.5 209.8,100 206.8,98.5 "
       id="polygon5549" />
    <polygon
       style="fill:none;stroke:#000000;stroke-width:0.40000001"
       points="206.8,101.5 209.8,100 206.8,98.5 "
       id="polygon5551" />
  </g>
  <text
     font-size="4.51556"
     style="font-size:4.51556015px;font-style:normal;font-weight:normal;text-anchor:middle;fill:#000000;font-family:CMU Serif"
     x="194.27647"
     y="92.731049"
     id="text5553">
    <tspan
       x="194.27647"
       y="92.731049"
       id="tspan5555">2</tspan>
  </text>
  <polyline
     style="fill:none;stroke:#000000;stroke-width:0.40000001"
     points="154,70 161.2,70 162,68 163.6,72 165.2,68 166.8,72 168.4,68 170,72 170.8,70 178,70 "
     id="polyline5557"
     transform="translate(0.2764762,-4.1689506)" />
  <polyline
     style="fill:none;stroke:#000000;stroke-width:0.40000001"
     points="154,100 161.2,100 162,98 163.6,102 165.2,98 166.8,102 168.4,98 170,102 170.8,100 178,100 "
     id="polyline5559"
     transform="translate(0.2764762,-4.1689506)" />
  <polyline
     style="fill:none;stroke:#000000;stroke-width:0.40000001"
     points="154,110 161.2,110 162,108 163.6,112 165.2,108 166.8,112 168.4,108 170,112 170.8,110 178,110 "
     id="polyline5561"
     transform="translate(0.2764762,-4.1689506)" />
  <polyline
     style="fill:none;stroke:#000000;stroke-width:0.40000001"
     points="154,120 161.2,120 162,118 163.6,122 165.2,118 166.8,122 168.4,118 170,122 170.8,120 178,120 "
     id="polyline5563"
     transform="translate(0.2764762,-4.1689506)" />
  <g
     id="g5565"
     transform="translate(0.2764762,-4.1689506)">
    <line
       style="fill:none;stroke:#000000;stroke-width:0.40000001"
       x1="178"
       y1="110"
       x2="206.8"
       y2="110"
       id="line5567" />
    <polygon
       style="fill:#000000"
       points="206.8,111.5 209.8,110 206.8,108.5 "
       id="polygon5569" />
    <polygon
       style="fill:none;stroke:#000000;stroke-width:0.40000001"
       points="206.8,111.5 209.8,110 206.8,108.5 "
       id="polygon5571" />
  </g>
  <text
     font-size="4.51556"
     style="font-size:4.51556015px;font-style:normal;font-weight:normal;text-anchor:middle;fill:#000000;font-family:CMU Serif"
     x="194.27647"
     y="102.73105"
     id="text5573">
    <tspan
       x="194.27647"
       y="102.73105"
       id="tspan5575">8</tspan>
  </text>
  <g
     id="g5577"
     transform="translate(0.2764762,-4.1689506)">
    <line
       style="fill:none;stroke:#000000;stroke-width:0.40000001"
       x1="178"
       y1="120"
       x2="206.8"
       y2="120"
       id="line5579" />
    <polygon
       style="fill:#000000"
       points="206.8,121.5 209.8,120 206.8,118.5 "
       id="polygon5581" />
    <polygon
       style="fill:none;stroke:#000000;stroke-width:0.40000001"
       points="206.8,121.5 209.8,120 206.8,118.5 "
       id="polygon5583" />
  </g>
  <text
     font-size="4.51556"
     style="font-size:4.51556015px;font-style:normal;font-weight:normal;text-anchor:middle;fill:#000000;font-family:CMU Serif"
     x="194.27647"
     y="112.73105"
     id="text5585">
    <tspan
       x="194.27647"
       y="112.73105"
       id="tspan5587">4</tspan>
  </text>
  <g
     id="g5589"
     transform="translate(0.2764762,-4.1689506)">
    <line
       style="fill:none;stroke:#000000;stroke-width:0.40000001"
       x1="153.2"
       y1="70"
       x2="154"
       y2="70"
       id="line5591" />
    <polygon
       style="fill:#000000"
       points="153.2,68.5 150.2,70 153.2,71.5 "
       id="polygon5593" />
    <polygon
       style="fill:none;stroke:#000000;stroke-width:0.40000001"
       points="153.2,68.5 150.2,70 153.2,71.5 "
       id="polygon5595" />
  </g>
  <g
     id="g5597"
     transform="translate(0.2764762,-4.1689506)">
    <line
       style="fill:none;stroke:#000000;stroke-width:0.40000001"
       x1="153.2"
       y1="100"
       x2="154"
       y2="100"
       id="line5599" />
    <polygon
       style="fill:#000000"
       points="153.2,98.5 150.2,100 153.2,101.5 "
       id="polygon5601" />
    <polygon
       style="fill:none;stroke:#000000;stroke-width:0.40000001"
       points="153.2,98.5 150.2,100 153.2,101.5 "
       id="polygon5603" />
  </g>
  <g
     id="g5605"
     transform="translate(0.2764762,-4.1689506)">
    <line
       style="fill:none;stroke:#000000;stroke-width:0.40000001"
       x1="153.2"
       y1="110"
       x2="154"
       y2="110"
       id="line5607" />
    <polygon
       style="fill:#000000"
       points="153.2,108.5 150.2,110 153.2,111.5 "
       id="polygon5609" />
    <polygon
       style="fill:none;stroke:#000000;stroke-width:0.40000001"
       points="153.2,108.5 150.2,110 153.2,111.5 "
       id="polygon5611" />
  </g>
  <g
     id="g5613"
     transform="translate(0.2764762,-4.1689506)">
    <line
       style="fill:none;stroke:#000000;stroke-width:0.40000001"
       x1="153.2"
       y1="120"
       x2="154"
       y2="120"
       id="line5615" />
    <polygon
       style="fill:#000000"
       points="153.2,118.5 150.2,120 153.2,121.5 "
       id="polygon5617" />
    <polygon
       style="fill:none;stroke:#000000;stroke-width:0.40000001"
       points="153.2,118.5 150.2,120 153.2,121.5 "
       id="polygon5619" />
  </g>
  <text
     font-size="4.51556"
     style="font-size:4.51556015px;font-style:normal;font-weight:normal;text-anchor:middle;fill:#000000;font-family:CMU Serif"
     x="166.27647"
     y="62.731052"
     id="text5621">
    <tspan
       x="166.27647"
       y="62.731052"
       id="tspan5623">75</tspan>
  </text>
  <text
     font-size="4.51556"
     style="font-size:4.51556015px;font-style:normal;font-weight:normal;text-anchor:middle;fill:#000000;font-family:CMU Serif"
     x="166.27647"
     y="92.731049"
     id="text5625">
    <tspan
       x="166.27647"
       y="92.731049"
       id="tspan5627">75</tspan>
  </text>
  <text
     font-size="4.51556"
     style="font-size:4.51556015px;font-style:normal;font-weight:normal;text-anchor:middle;fill:#000000;font-family:CMU Serif"
     x="166.27647"
     y="102.73105"
     id="text5629">
    <tspan
       x="166.27647"
       y="102.73105"
       id="tspan5631">75</tspan>
  </text>
  <text
     font-size="4.51556"
     style="font-size:4.51556015px;font-style:normal;font-weight:normal;text-anchor:middle;fill:#000000;font-family:CMU Serif"
     x="166.27647"
     y="112.73105"
     id="text5633">
    <tspan
       x="166.27647"
       y="112.73105"
       id="tspan5635">100</tspan>
  </text>
  <g
     id="g5637"
     transform="translate(0.2764762,-4.1689506)">
    <line
       style="fill:none;stroke:#000000;stroke-width:0.40000001"
       x1="180"
       y1="160"
       x2="174"
       y2="160"
       id="line5639" />
    <polyline
       style="fill:none;stroke:#000000;stroke-width:0.40000001"
       points="160,160 166,160 174,156 "
       id="polyline5641" />
    <text
       font-size="6.77333"
       style="font-size:6.77333021px;font-style:normal;font-weight:normal;text-anchor:middle;fill:#000000;font-family:CMU Serif"
       x="170"
       y="168.35001"
       id="text5643">
      <tspan
         x="170"
         y="168.35001"
         id="tspan5645" />
    </text>
  </g>
  <g
     id="g5647"
     transform="translate(0.2764762,-4.1689506)">
    <polyline
       style="fill:none;stroke:#000000;stroke-width:0.40000001"
       points="150,130 170,130 170,152.8 "
       id="polyline5649" />
    <polygon
       style="fill:#000000"
       points="168.5,152.8 170,155.8 171.5,152.8 "
       id="polygon5651" />
    <polygon
       style="fill:none;stroke:#000000;stroke-width:0.40000001"
       points="168.5,152.8 170,155.8 171.5,152.8 "
       id="polygon5653" />
  </g>
  <polyline
     style="fill:none;stroke:#000000;stroke-width:0.40000001"
     points="188,136 188,143.2 186,144 190,145.6 186,147.2 190,148.8 186,150.4 190,152 188,152.8 188,160 "
     id="polyline5655"
     transform="translate(0.2764762,-4.1689506)" />
  <polyline
     style="fill:none;stroke:#000000;stroke-width:0.40000001"
     points="188,160 188,167.2 186,168 190,169.6 186,171.2 190,172.8 186,174.4 190,176 188,176.8 188,184 "
     id="polyline5657"
     transform="translate(0.2764762,-4.1689506)" />
  <g
     id="g5659"
     transform="translate(0.2764762,-4.1689506)">
    <ellipse
       style="fill:#000000"
       cx="188"
       cy="160"
       rx="0.5"
       ry="0.5"
       id="ellipse5661"
       sodipodi:cx="188"
       sodipodi:cy="160"
       sodipodi:rx="0.5"
       sodipodi:ry="0.5"
       d="m 188.5,160 c 0,0.27614 -0.22386,0.5 -0.5,0.5 -0.27614,0 -0.5,-0.22386 -0.5,-0.5 0,-0.27614 0.22386,-0.5 0.5,-0.5 0.27614,0 0.5,0.22386 0.5,0.5 z" />
    <ellipse
       style="fill:none;stroke:#000000;stroke-width:2"
       cx="188"
       cy="160"
       rx="0.5"
       ry="0.5"
       id="ellipse5663"
       sodipodi:cx="188"
       sodipodi:cy="160"
       sodipodi:rx="0.5"
       sodipodi:ry="0.5"
       d="m 188.5,160 c 0,0.27614 -0.22386,0.5 -0.5,0.5 -0.27614,0 -0.5,-0.22386 -0.5,-0.5 0,-0.27614 0.22386,-0.5 0.5,-0.5 0.27614,0 0.5,0.22386 0.5,0.5 z" />
  </g>
  <polyline
     style="fill:none;stroke:#000000;stroke-width:0.40000001"
     points="180,160 180,136 188,136 "
     id="polyline5665"
     transform="translate(0.2764762,-4.1689506)" />
  <g
     id="g5667"
     transform="translate(0.2764762,-4.1689506)">
    <line
       style="fill:none;stroke:#000000;stroke-width:0.40000001"
       x1="188"
       y1="184"
       x2="188"
       y2="188"
       id="line5669" />
    <line
       style="fill:none;stroke:#000000;stroke-width:0.40000001"
       x1="184"
       y1="188"
       x2="192"
       y2="188"
       id="line5671" />
    <line
       style="fill:none;stroke:#000000;stroke-width:0.40000001"
       x1="185.34"
       y1="190"
       x2="190.66"
       y2="190"
       id="line5673" />
    <line
       style="fill:none;stroke:#000000;stroke-width:0.40000001"
       x1="186.67999"
       y1="192"
       x2="189.32001"
       y2="192"
       id="line5675" />
  </g>
  <g
     id="g5677"
     transform="translate(0.2764762,-4.1689506)">
    <polyline
       style="fill:none;stroke:#000000;stroke-width:0.40000001"
       points="188,160 202,160 202,130 206.8,130 "
       id="polyline5679" />
    <polygon
       style="fill:#000000"
       points="206.8,131.5 209.8,130 206.8,128.5 "
       id="polygon5681" />
    <polygon
       style="fill:none;stroke:#000000;stroke-width:0.40000001"
       points="206.8,131.5 209.8,130 206.8,128.5 "
       id="polygon5683" />
  </g>
  <text
     font-size="4.51556"
     style="font-size:4.51556015px;font-style:normal;font-weight:normal;text-anchor:start;fill:#000000;font-family:CMU Serif"
     x="192.27647"
     y="145.38106"
     id="text5685">
    <tspan
       x="192.27647"
       y="145.38106"
       id="tspan5687">10k</tspan>
  </text>
  <text
     font-size="4.51556"
     style="font-size:4.51556015px;font-style:normal;font-weight:normal;text-anchor:start;fill:#000000;font-family:CMU Serif"
     x="192.27647"
     y="169.38106"
     id="text5689">
    <tspan
       x="192.27647"
       y="169.38106"
       id="tspan5691">20k</tspan>
  </text>
  <line
     style="fill:none;stroke:#000000;stroke-width:0.40000001"
     x1="54.276478"
     y1="35.831051"
     x2="54.276478"
     y2="29.831049"
     id="line5693" />
  <line
     style="fill:none;stroke:#000000;stroke-width:0.40000001"
     x1="50.276478"
     y1="29.831049"
     x2="58.276478"
     y2="29.831049"
     id="line5695" />
  <text
     font-size="12.8"
     style="font-size:12.80000019px;font-style:normal;font-weight:normal;text-anchor:start;fill:#000000;font-family:CMU Serif"
     x="48.276478"
     y="25.831049"
     id="text5697">
    <tspan
       x="48.276478"
       y="25.831049"
       id="tspan5699" />
  </text>
  <line
     style="fill:none;stroke:#000000;stroke-width:0.40000001"
     x1="116.27647"
     y1="35.831051"
     x2="116.27647"
     y2="29.831049"
     id="line5701" />
  <line
     style="fill:none;stroke:#000000;stroke-width:0.40000001"
     x1="112.27647"
     y1="29.831049"
     x2="120.27647"
     y2="29.831049"
     id="line5703" />
  <line
     style="fill:none;stroke:#000000;stroke-width:0.40000001"
     x1="100.27647"
     y1="35.831051"
     x2="116.27647"
     y2="35.831051"
     id="line5705" />
  <line
     style="fill:none;stroke:#000000;stroke-width:0.40000001"
     x1="74.276474"
     y1="65.831047"
     x2="74.276474"
     y2="59.831051"
     id="line5707" />
  <line
     style="fill:none;stroke:#000000;stroke-width:0.40000001"
     x1="70.276474"
     y1="59.831051"
     x2="78.276474"
     y2="59.831051"
     id="line5709" />
  <line
     style="fill:none;stroke:#000000;stroke-width:0.40000001"
     x1="90.276474"
     y1="65.831047"
     x2="74.276474"
     y2="65.831047"
     id="line5711" />
  <polyline
     style="fill:none;stroke:#000000;stroke-width:0.40000001"
     points="74,96 74,103.2 72,104 76,105.6 72,107.2 76,108.8 72,110.4 76,112 74,112.8 74,120 "
     id="polyline5713"
     transform="translate(0.2764762,-4.1689506)" />
  <polyline
     style="fill:none;stroke:#000000;stroke-width:0.40000001"
     points="64,96 64,103.2 62,104 66,105.6 62,107.2 66,108.8 62,110.4 66,112 64,112.8 64,120 "
     id="polyline5715"
     transform="translate(0.2764762,-4.1689506)" />
  <text
     font-size="4.51556"
     style="font-size:4.51556015px;font-style:normal;font-weight:normal;text-anchor:start;fill:#000000;font-family:CMU Serif"
     x="78.276474"
     y="105.38105"
     id="text5717">
    <tspan
       x="78.276474"
       y="105.38105"
       id="tspan5719">2.2k</tspan>
  </text>
  <line
     style="fill:none;stroke:#000000;stroke-width:0.40000001"
     x1="150.27647"
     y1="155.83105"
     x2="150.27647"
     y2="149.83105"
     id="line5721" />
  <line
     style="fill:none;stroke:#000000;stroke-width:0.40000001"
     x1="146.27647"
     y1="149.83105"
     x2="154.27647"
     y2="149.83105"
     id="line5723" />
  <line
     style="fill:none;stroke:#000000;stroke-width:0.40000001"
     x1="52.276478"
     y1="91.831047"
     x2="52.276478"
     y2="85.831047"
     id="line5725" />
  <line
     style="fill:none;stroke:#000000;stroke-width:0.40000001"
     x1="48.276478"
     y1="85.831047"
     x2="56.276478"
     y2="85.831047"
     id="line5727" />
  <line
     style="fill:none;stroke:#000000;stroke-width:0.40000001"
     x1="52.276478"
     y1="91.831047"
     x2="74.276474"
     y2="91.831047"
     id="line5729" />
  <line
     style="fill:none;stroke:#000000;stroke-width:0.40000001"
     x1="150.27647"
     y1="155.83105"
     x2="160.27647"
     y2="155.83105"
     id="line5731" />
  <g
     id="g5733"
     transform="translate(0.2764762,-4.1689506)">
    <ellipse
       style="fill:#000000"
       cx="64"
       cy="96"
       rx="0.5"
       ry="0.5"
       id="ellipse5735"
       sodipodi:cx="64"
       sodipodi:cy="96"
       sodipodi:rx="0.5"
       sodipodi:ry="0.5"
       d="m 64.5,96 c 0,0.276142 -0.223858,0.5 -0.5,0.5 -0.276142,0 -0.5,-0.223858 -0.5,-0.5 0,-0.276142 0.223858,-0.5 0.5,-0.5 0.276142,0 0.5,0.223858 0.5,0.5 z" />
    <ellipse
       style="fill:none;stroke:#000000;stroke-width:2"
       cx="64"
       cy="96"
       rx="0.5"
       ry="0.5"
       id="ellipse5737"
       sodipodi:cx="64"
       sodipodi:cy="96"
       sodipodi:rx="0.5"
       sodipodi:ry="0.5"
       d="m 64.5,96 c 0,0.276142 -0.223858,0.5 -0.5,0.5 -0.276142,0 -0.5,-0.223858 -0.5,-0.5 0,-0.276142 0.223858,-0.5 0.5,-0.5 0.276142,0 0.5,0.223858 0.5,0.5 z" />
  </g>
  <g
     id="g5739"
     transform="translate(0.2764762,-4.1689506)">
    <ellipse
       style="fill:#000000"
       cx="74"
       cy="120"
       rx="0.5"
       ry="0.5"
       id="ellipse5741"
       sodipodi:cx="74"
       sodipodi:cy="120"
       sodipodi:rx="0.5"
       sodipodi:ry="0.5"
       d="m 74.5,120 c 0,0.27614 -0.223858,0.5 -0.5,0.5 -0.276142,0 -0.5,-0.22386 -0.5,-0.5 0,-0.27614 0.223858,-0.5 0.5,-0.5 0.276142,0 0.5,0.22386 0.5,0.5 z" />
    <ellipse
       style="fill:none;stroke:#000000;stroke-width:2"
       cx="74"
       cy="120"
       rx="0.5"
       ry="0.5"
       id="ellipse5743"
       sodipodi:cx="74"
       sodipodi:cy="120"
       sodipodi:rx="0.5"
       sodipodi:ry="0.5"
       d="m 74.5,120 c 0,0.27614 -0.223858,0.5 -0.5,0.5 -0.276142,0 -0.5,-0.22386 -0.5,-0.5 0,-0.27614 0.223858,-0.5 0.5,-0.5 0.276142,0 0.5,0.22386 0.5,0.5 z" />
  </g>
  <g
     id="g5745"
     transform="translate(0.2764762,-4.1689506)">
    <ellipse
       style="fill:#000000"
       cx="64"
       cy="130"
       rx="0.5"
       ry="0.5"
       id="ellipse5747"
       sodipodi:cx="64"
       sodipodi:cy="130"
       sodipodi:rx="0.5"
       sodipodi:ry="0.5"
       d="m 64.5,130 c 0,0.27614 -0.223858,0.5 -0.5,0.5 -0.276142,0 -0.5,-0.22386 -0.5,-0.5 0,-0.27614 0.223858,-0.5 0.5,-0.5 0.276142,0 0.5,0.22386 0.5,0.5 z" />
    <ellipse
       style="fill:none;stroke:#000000;stroke-width:2"
       cx="64"
       cy="130"
       rx="0.5"
       ry="0.5"
       id="ellipse5749"
       sodipodi:cx="64"
       sodipodi:cy="130"
       sodipodi:rx="0.5"
       sodipodi:ry="0.5"
       d="m 64.5,130 c 0,0.27614 -0.223858,0.5 -0.5,0.5 -0.276142,0 -0.5,-0.22386 -0.5,-0.5 0,-0.27614 0.223858,-0.5 0.5,-0.5 0.276142,0 0.5,0.22386 0.5,0.5 z" />
  </g>
  <polyline
     style="fill:none;stroke:#000000;stroke-width:0.40000001"
     points="64,120 64,180 90,180 "
     id="polyline5751"
     transform="translate(0.2764762,-4.1689506)" />
  <polyline
     style="fill:none;stroke:#000000;stroke-width:0.40000001"
     points="74,120 74,170 90,170 "
     id="polyline5753"
     transform="translate(0.2764762,-4.1689506)" />
  <line
     style="fill:none;stroke:#000000;stroke-width:0.40000001"
     x1="74.276474"
     y1="115.83105"
     x2="90.276474"
     y2="115.83105"
     id="line5755" />
  <line
     style="fill:none;stroke:#000000;stroke-width:0.40000001"
     x1="64.276474"
     y1="125.83105"
     x2="90.276474"
     y2="125.83105"
     id="line5757" />
  <polyline
     style="fill:none;stroke:#000000;stroke-width:0.40000001"
     points="90,80 70,80 70,70 40,70 "
     id="polyline5759"
     transform="translate(0.2764762,-4.1689506)" />
  <polyline
     style="fill:none;stroke:#000000;stroke-width:0.40000001"
     points="90,90 66,90 66,80 40,80 "
     id="polyline5761"
     transform="translate(0.2764762,-4.1689506)" />
  <g
     id="g5763"
     transform="translate(0.2764762,-4.1689506)">
    <line
       style="fill:none;stroke:#000000;stroke-width:0.40000001"
       x1="50"
       y1="120"
       x2="50"
       y2="124"
       id="line5765" />
    <line
       style="fill:none;stroke:#000000;stroke-width:0.40000001"
       x1="46"
       y1="124"
       x2="54"
       y2="124"
       id="line5767" />
    <line
       style="fill:none;stroke:#000000;stroke-width:0.40000001"
       x1="47.34"
       y1="126"
       x2="52.66"
       y2="126"
       id="line5769" />
    <line
       style="fill:none;stroke:#000000;stroke-width:0.40000001"
       x1="48.68"
       y1="128"
       x2="51.32"
       y2="128"
       id="line5771" />
  </g>
  <polyline
     style="fill:none;stroke:#000000;stroke-width:0.40000001"
     points="40,110 50,110 50,120 "
     id="polyline5773"
     transform="translate(0.2764762,-4.1689506)" />
  <g
     id="g5775"
     transform="translate(0.2764762,-4.1689506)">
    <rect
       style="fill:#000000"
       x="123.429"
       y="154.85699"
       width="0.51428598"
       height="10.2857"
       id="rect5777" />
    <rect
       style="fill:none;stroke:#000000;stroke-width:0.40000001"
       x="123.429"
       y="154.85699"
       width="0.51428598"
       height="10.2857"
       id="rect5779" />
    <rect
       style="fill:#000000"
       x="125.143"
       y="154"
       width="1.71429"
       height="12"
       id="rect5781" />
    <rect
       style="fill:none;stroke:#000000;stroke-width:0.40000001"
       x="125.143"
       y="154"
       width="1.71429"
       height="12"
       id="rect5783" />
    <rect
       style="fill:#000000"
       x="128.05701"
       y="154.85699"
       width="0.51428598"
       height="10.2857"
       id="rect5785" />
    <rect
       style="fill:none;stroke:#000000;stroke-width:0.40000001"
       x="128.05701"
       y="154.85699"
       width="0.51428598"
       height="10.2857"
       id="rect5787" />
    <line
       style="fill:none;stroke:#000000;stroke-width:0.40000001"
       x1="118.286"
       y1="160"
       x2="123.429"
       y2="160"
       id="line5789" />
    <line
       style="fill:none;stroke:#000000;stroke-width:0.40000001"
       x1="128.57201"
       y1="160"
       x2="133.714"
       y2="160"
       id="line5791" />
  </g>
  <polyline
     style="fill:none;stroke:#000000;stroke-width:0.40000001"
     points="138,140 138,160 133.714,160 "
     id="polyline5793"
     transform="translate(0.2764762,-4.1689506)" />
  <polyline
     style="fill:none;stroke:#000000;stroke-width:0.40000001"
     points="114,140 114,160 118.286,160 "
     id="polyline5795"
     transform="translate(0.2764762,-4.1689506)" />
  <line
     style="fill:none;stroke:#000000;stroke-width:0.40000001"
     x1="196.27647"
     y1="55.831051"
     x2="196.27647"
     y2="49.831051"
     id="line5797" />
  <line
     style="fill:none;stroke:#000000;stroke-width:0.40000001"
     x1="192.27647"
     y1="49.831051"
     x2="200.27647"
     y2="49.831051"
     id="line5799" />
  <line
     style="fill:none;stroke:#000000;stroke-width:0.40000001"
     x1="196.27647"
     y1="55.831051"
     x2="210.27647"
     y2="55.831051"
     id="line5801" />
  <g
     id="g5803"
     transform="translate(0.2764762,-4.1689506)">
    <ellipse
       style="fill:#000000"
       cx="54"
       cy="40"
       rx="0.5"
       ry="0.5"
       id="ellipse5805"
       sodipodi:cx="54"
       sodipodi:cy="40"
       sodipodi:rx="0.5"
       sodipodi:ry="0.5"
       d="m 54.5,40 c 0,0.276142 -0.223858,0.5 -0.5,0.5 -0.276142,0 -0.5,-0.223858 -0.5,-0.5 0,-0.276142 0.223858,-0.5 0.5,-0.5 0.276142,0 0.5,0.223858 0.5,0.5 z" />
    <ellipse
       style="fill:none;stroke:#000000;stroke-width:2"
       cx="54"
       cy="40"
       rx="0.5"
       ry="0.5"
       id="ellipse5807"
       sodipodi:cx="54"
       sodipodi:cy="40"
       sodipodi:rx="0.5"
       sodipodi:ry="0.5"
       d="m 54.5,40 c 0,0.276142 -0.223858,0.5 -0.5,0.5 -0.276142,0 -0.5,-0.223858 -0.5,-0.5 0,-0.276142 0.223858,-0.5 0.5,-0.5 0.276142,0 0.5,0.223858 0.5,0.5 z" />
  </g>
  <g
     id="g5809"
     transform="translate(0.2764762,-4.1689506)">
    <line
       style="fill:none;stroke:#000000;stroke-width:0.40000001"
       x1="40"
       y1="40"
       x2="66.800003"
       y2="40"
       id="line5811" />
    <polygon
       style="fill:#000000"
       points="66.8,41.5 69.8,40 66.8,38.5 "
       id="polygon5813" />
    <polygon
       style="fill:none;stroke:#000000;stroke-width:0.40000001"
       points="66.8,41.5 69.8,40 66.8,38.5 "
       id="polygon5815" />
  </g>
  <line
     style="fill:none;stroke:#000000;stroke-width:0.40000001"
     x1="184.27647"
     y1="131.83105"
     x2="184.27647"
     y2="125.83105"
     id="line5817" />
  <line
     style="fill:none;stroke:#000000;stroke-width:0.40000001"
     x1="180.27647"
     y1="125.83105"
     x2="188.27647"
     y2="125.83105"
     id="line5819" />
  <g
     id="g5821"
     transform="translate(0.2764762,-4.1689506)">
    <ellipse
       style="fill:#000000"
       cx="184"
       cy="136"
       rx="0.5"
       ry="0.5"
       id="ellipse5823"
       sodipodi:cx="184"
       sodipodi:cy="136"
       sodipodi:rx="0.5"
       sodipodi:ry="0.5"
       d="m 184.5,136 c 0,0.27614 -0.22386,0.5 -0.5,0.5 -0.27614,0 -0.5,-0.22386 -0.5,-0.5 0,-0.27614 0.22386,-0.5 0.5,-0.5 0.27614,0 0.5,0.22386 0.5,0.5 z" />
    <ellipse
       style="fill:none;stroke:#000000;stroke-width:2"
       cx="184"
       cy="136"
       rx="0.5"
       ry="0.5"
       id="ellipse5825"
       sodipodi:cx="184"
       sodipodi:cy="136"
       sodipodi:rx="0.5"
       sodipodi:ry="0.5"
       d="m 184.5,136 c 0,0.27614 -0.22386,0.5 -0.5,0.5 -0.27614,0 -0.5,-0.22386 -0.5,-0.5 0,-0.27614 0.22386,-0.5 0.5,-0.5 0.27614,0 0.5,0.22386 0.5,0.5 z" />
  </g>
  <line
     style="fill:none;stroke:#000000;stroke-width:0.40000001"
     x1="192.27647"
     y1="67.831047"
     x2="196.27647"
     y2="63.831051"
     id="line5827" />
  <line
     style="fill:none;stroke:#000000;stroke-width:0.40000001"
     x1="192.27647"
     y1="97.831047"
     x2="196.27647"
     y2="93.831047"
     id="line5829" />
  <line
     style="fill:none;stroke:#000000;stroke-width:0.40000001"
     x1="192.27647"
     y1="107.83105"
     x2="196.27647"
     y2="103.83105"
     id="line5831" />
  <line
     style="fill:none;stroke:#000000;stroke-width:0.40000001"
     x1="192.27647"
     y1="117.83105"
     x2="196.27647"
     y2="113.83105"
     id="line5833" />
  <g
     id="g5835"
     transform="translate(0.2764762,-4.1689506)">
    <rect
       style="fill:#90ee90"
       x="14"
       y="202"
       width="8"
       height="8"
       id="rect5837" />
    <rect
       style="fill:none;stroke:#000000;stroke-width:0.40000001"
       x="14"
       y="202"
       width="8"
       height="8"
       id="rect5839" />
  </g>
  <text
     font-size="4.51556"
     style="font-size:4.51556015px;font-style:normal;font-weight:normal;text-anchor:start;fill:#000000;font-family:CMU Serif"
     x="24.276476"
     y="203.38106"
     id="text5841">
    <tspan
       x="24.276476"
       y="203.38106"
       id="tspan5843">Digital Part(s)</tspan>
  </text>
  <g
     id="g5845"
     transform="translate(0.2764762,-4.1689506)">
    <rect
       style="fill:#ffc0cb"
       x="64"
       y="202"
       width="8"
       height="8"
       id="rect5847" />
    <rect
       style="fill:none;stroke:#000000;stroke-width:0.40000001"
       x="64"
       y="202"
       width="8"
       height="8"
       id="rect5849" />
  </g>
  <text
     font-size="4.51556"
     style="font-size:4.51556015px;font-style:normal;font-weight:normal;text-anchor:start;fill:#000000;font-family:CMU Serif"
     x="74.276474"
     y="203.38106"
     id="text5851">
    <tspan
       x="74.276474"
       y="203.38106"
       id="tspan5853">Analog Part(s)</tspan>
  </text>
  <g
     id="g5855"
     transform="translate(0.2764762,-4.1689506)">
    <rect
       style="fill:#ffffaa"
       x="114"
       y="202"
       width="8"
       height="8"
       id="rect5857" />
    <rect
       style="fill:none;stroke:#000000;stroke-width:0.40000001"
       x="114"
       y="202"
       width="8"
       height="8"
       id="rect5859" />
  </g>
  <text
     font-size="4.51556"
     style="font-size:4.51556015px;font-style:normal;font-weight:normal;text-anchor:start;fill:#000000;font-family:CMU Serif"
     x="124.27647"
     y="203.38106"
     id="text5861">
    <tspan
       x="124.27647"
       y="203.38106"
       id="tspan5863">Connector(s)</tspan>
  </text>
</svg>
