<?xml version="1.0" encoding="UTF-8" standalone="no"?>
<!DOCTYPE svg PUBLIC "-//W3C//DTD SVG 1.0//EN" "http://www.w3.org/TR/2001/PR-SVG-20010719/DTD/svg10.dtd">
<svg width="13cm" height="10cm" viewBox="7 3 245 189" xmlns="http://www.w3.org/2000/svg" xmlns:xlink="http://www.w3.org/1999/xlink">
  <g>
    <rect style="fill: #ffffff" x="8" y="38" width="52" height="134"/>
    <rect style="fill: none; fill-opacity:0; stroke-width: 0.4; stroke-dasharray: 4; stroke: #000000" x="8" y="38" width="52" height="134"/>
  </g>
  <g>
    <rect style="fill: #ffffff" x="156" y="38" width="96" height="134"/>
    <rect style="fill: none; fill-opacity:0; stroke-width: 0.4; stroke-dasharray: 4; stroke: #000000" x="156" y="38" width="96" height="134"/>
  </g>
  <g>
    <rect style="fill: #ffffff" x="64" y="38" width="88" height="134"/>
    <rect style="fill: none; fill-opacity:0; stroke-width: 0.4; stroke-dasharray: 4; stroke: #000000" x="64" y="38" width="88" height="134"/>
  </g>
  <g>
    <rect style="fill: #c7ffc7" x="26" y="98" width="24" height="56"/>
    <rect style="fill: none; fill-opacity:0; stroke-width: 0.4; stroke: #000000" x="26" y="98" width="24" height="56"/>
  </g>
  <g>
    <rect style="fill: #c7ffc7" x="108" y="88" width="24" height="20"/>
    <rect style="fill: none; fill-opacity:0; stroke-width: 0.4; stroke: #000000" x="108" y="88" width="24" height="20"/>
  </g>
  <g>
    <rect style="fill: #ffffc7" x="56" y="42" width="12" height="126"/>
    <rect style="fill: none; fill-opacity:0; stroke-width: 0.4; stroke: #000000" x="56" y="42" width="12" height="126"/>
  </g>
  <g>
    <rect style="fill: #c7ffc7" x="180" y="106" width="28" height="26"/>
    <rect style="fill: none; fill-opacity:0; stroke-width: 0.4; stroke: #000000" x="180" y="106" width="28" height="26"/>
  </g>
  <g>
    <rect style="fill: #c7ffc7" x="86" y="134" width="28" height="26"/>
    <rect style="fill: none; fill-opacity:0; stroke-width: 0.4; stroke: #000000" x="86" y="134" width="28" height="26"/>
  </g>
  <g>
    <rect style="fill: #ffffc7" x="228" y="134" width="20" height="26"/>
    <rect style="fill: none; fill-opacity:0; stroke-width: 0.4; stroke: #000000" x="228" y="134" width="20" height="26"/>
  </g>
  <g>
    <rect style="fill: #ffc7d1" x="228" y="82" width="20" height="20"/>
    <rect style="fill: none; fill-opacity:0; stroke-width: 0.4; stroke: #000000" x="228" y="82" width="20" height="20"/>
  </g>
  <g>
    <rect style="fill: #ffffc7" x="22" y="42" width="14" height="6"/>
    <rect style="fill: none; fill-opacity:0; stroke-width: 0.4; stroke: #000000" x="22" y="42" width="14" height="6"/>
  </g>
  <g>
    <rect style="fill: #ffffc7" x="106" y="42" width="6" height="6"/>
    <rect style="fill: none; fill-opacity:0; stroke-width: 0.4; stroke: #000000" x="106" y="42" width="6" height="6"/>
  </g>
  <g>
    <rect style="fill: #ffffc7" x="120" y="42" width="6" height="6"/>
    <rect style="fill: none; fill-opacity:0; stroke-width: 0.4; stroke: #000000" x="120" y="42" width="6" height="6"/>
  </g>
  <g>
    <rect style="fill: #ffffc7" x="170" y="42" width="6" height="6"/>
    <rect style="fill: none; fill-opacity:0; stroke-width: 0.4; stroke: #000000" x="170" y="42" width="6" height="6"/>
  </g>
  <g>
    <rect style="fill: #ffffc7" x="182" y="42" width="6" height="6"/>
    <rect style="fill: none; fill-opacity:0; stroke-width: 0.4; stroke: #000000" x="182" y="42" width="6" height="6"/>
  </g>
  <g>
    <rect style="fill: #ffffc7" x="194" y="42" width="6" height="6"/>
    <rect style="fill: none; fill-opacity:0; stroke-width: 0.4; stroke: #000000" x="194" y="42" width="6" height="6"/>
  </g>
  <g>
    <rect style="fill: #c7ffc7" x="16" y="4" width="28" height="22"/>
    <rect style="fill: none; fill-opacity:0; stroke-width: 0.4; stroke: #000000" x="16" y="4" width="28" height="22"/>
  </g>
  <g>
    <rect style="fill: #c7ffc7" x="131" y="4" width="70" height="22"/>
    <rect style="fill: none; fill-opacity:0; stroke-width: 0.4; stroke: #000000" x="131" y="4" width="70" height="22"/>
  </g>
  <text font-size="4.51556" style="fill: #000000;text-anchor:middle;font-family:CMU Serif;font-style:normal;font-weight:normal" x="38" y="96.9">
    <tspan x="38" y="96.9">XC3S500E</tspan>
  </text>
  <text font-size="4.51556" style="fill: #000000;text-anchor:middle;font-family:CMU Serif;font-style:normal;font-weight:normal" x="120" y="86.9">
    <tspan x="120" y="86.9">AD5678</tspan>
  </text>
  <text font-size="4.51556" style="fill: #000000;text-anchor:middle;font-family:CMU Serif;font-style:normal;font-weight:normal" x="194" y="104.9">
    <tspan x="194" y="104.9">AD7606</tspan>
  </text>
  <text font-size="4.51556" style="fill: #000000;text-anchor:middle;font-family:CMU Serif;font-style:normal;font-weight:normal" x="100" y="132.9">
    <tspan x="100" y="132.9">XC9536/72XL</tspan>
  </text>
  <text font-size="4.51556" style="fill: #000000;text-anchor:middle;font-family:CMU Serif;font-style:normal;font-weight:normal" x="238" y="127.256">
    <tspan x="238" y="127.256">PreAmp</tspan>
    <tspan x="238" y="132.9">Conn x8</tspan>
  </text>
  <text font-size="4.51556" style="fill: #000000;text-anchor:middle;font-family:CMU Serif;font-style:normal;font-weight:normal" x="238" y="75.2556">
    <tspan x="238" y="75.2556">Diff Out</tspan>
    <tspan x="238" y="80.9">Amp x4</tspan>
  </text>
  <text font-size="4.51556" style="fill: #000000;text-anchor:start;font-family:CMU Serif;font-style:normal;font-weight:normal" x="110" y="93.55">
    <tspan x="110" y="93.55">VDD</tspan>
  </text>
  <text font-size="4.51556" style="fill: #000000;text-anchor:start;font-family:CMU Serif;font-style:normal;font-weight:normal" x="88" y="139.55">
    <tspan x="88" y="139.55">VCC</tspan>
  </text>
  <text font-size="4.51556" style="fill: #000000;text-anchor:start;font-family:CMU Serif;font-style:normal;font-weight:normal" x="88" y="145.55">
    <tspan x="88" y="145.55">VCCIO</tspan>
  </text>
  <text font-size="4.51556" style="fill: #000000;text-anchor:start;font-family:CMU Serif;font-style:normal;font-weight:normal" x="88" y="151.55">
    <tspan x="88" y="151.55">GPIOx7</tspan>
  </text>
  <text font-size="4.51556" style="fill: #000000;text-anchor:end;font-family:CMU Serif;font-style:normal;font-weight:normal" x="112" y="157.55">
    <tspan x="112" y="157.55">GPIOx32</tspan>
  </text>
  <text font-size="4.51556" style="fill: #000000;text-anchor:end;font-family:CMU Serif;font-style:normal;font-weight:normal" x="130" y="99.55">
    <tspan x="130" y="99.55">ASIGx4</tspan>
  </text>
  <text font-size="4.51556" style="fill: #000000;text-anchor:start;font-family:CMU Serif;font-style:normal;font-weight:normal" x="182" y="117.55">
    <tspan x="182" y="117.55">VDrive</tspan>
  </text>
  <text font-size="4.51556" style="fill: #000000;text-anchor:start;font-family:CMU Serif;font-style:normal;font-weight:normal" x="182" y="111.55">
    <tspan x="182" y="111.55">AVCC</tspan>
  </text>
  <text font-size="4.51556" style="fill: #000000;text-anchor:start;font-family:CMU Serif;font-style:normal;font-weight:normal" x="182" y="123.55">
    <tspan x="182" y="123.55">DSIGx28</tspan>
  </text>
  <text font-size="4.51556" style="fill: #000000;text-anchor:start;font-family:CMU Serif;font-style:normal;font-weight:normal" x="110" y="105.55">
    <tspan x="110" y="105.55">DSIGx5</tspan>
  </text>
  <text font-size="4.51556" style="fill: #000000;text-anchor:end;font-family:CMU Serif;font-style:normal;font-weight:normal" x="206" y="129.55">
    <tspan x="206" y="129.55">ASIGx8</tspan>
  </text>
  <text font-size="4.51556" style="fill: #000000;text-anchor:start;font-family:CMU Serif;font-style:normal;font-weight:normal" x="230" y="93.55">
    <tspan x="230" y="93.55">V+</tspan>
  </text>
  <text font-size="4.51556" style="fill: #000000;text-anchor:start;font-family:CMU Serif;font-style:normal;font-weight:normal" x="230" y="87.55">
    <tspan x="230" y="87.55">V‒</tspan>
  </text>
  <text font-size="4.51556" style="fill: #000000;text-anchor:start;font-family:CMU Serif;font-style:normal;font-weight:normal" x="230" y="145.55">
    <tspan x="230" y="145.55">V+</tspan>
  </text>
  <text font-size="4.51556" style="fill: #000000;text-anchor:start;font-family:CMU Serif;font-style:normal;font-weight:normal" x="230" y="139.55">
    <tspan x="230" y="139.55">V‒</tspan>
  </text>
  <text font-size="4.51556" style="fill: #000000;text-anchor:start;font-family:CMU Serif;font-style:normal;font-weight:normal" x="230" y="99.55">
    <tspan x="230" y="99.55">ASIG</tspan>
  </text>
  <text font-size="4.51556" style="fill: #000000;text-anchor:start;font-family:CMU Serif;font-style:normal;font-weight:normal" x="230" y="151.55">
    <tspan x="230" y="151.55">ASIG</tspan>
  </text>
  <text font-size="4.51556" style="fill: #000000;text-anchor:start;font-family:CMU Serif;font-style:normal;font-weight:normal" x="230" y="157.55">
    <tspan x="230" y="157.55">DSIGx4</tspan>
  </text>
  <text font-size="4.51556" style="fill: #000000;text-anchor:end;font-family:CMU Serif;font-style:normal;font-weight:normal" x="48" y="151.55">
    <tspan x="48" y="151.55">GPIOx7</tspan>
  </text>
  <text font-size="4.51556" style="fill: #000000;text-anchor:end;font-family:CMU Serif;font-style:normal;font-weight:normal" x="48" y="123.55">
    <tspan x="48" y="123.55">GPIOx28</tspan>
  </text>
  <text font-size="4.51556" style="fill: #000000;text-anchor:end;font-family:CMU Serif;font-style:normal;font-weight:normal" x="48" y="105.55">
    <tspan x="48" y="105.55">GPIOx5</tspan>
  </text>
  <text font-size="4.51556" style="fill: #000000;text-anchor:start;font-family:CMU Serif;font-style:normal;font-weight:normal" x="28" y="133.55">
    <tspan x="28" y="133.55">VCCINT</tspan>
  </text>
  <text font-size="4.51556" style="fill: #000000;text-anchor:start;font-family:CMU Serif;font-style:normal;font-weight:normal" x="28" y="141.55">
    <tspan x="28" y="141.55">VCCIO</tspan>
  </text>
  <text font-size="4.51556" style="fill: #000000;text-anchor:middle;font-family:CMU Serif;font-style:normal;font-weight:normal" x="34" y="176.2">
    <tspan x="34" y="176.2">RTSC GND Plane</tspan>
  </text>
  <text font-size="4.51556" style="fill: #000000;text-anchor:middle;font-family:CMU Serif;font-style:normal;font-weight:normal" x="108" y="176.2">
    <tspan x="108" y="176.2">Electrophysiology Interface DGND Plane</tspan>
  </text>
  <text font-size="4.51556" style="fill: #000000;text-anchor:middle;font-family:CMU Serif;font-style:normal;font-weight:normal" x="204" y="176.2">
    <tspan x="204" y="176.2">Electrophysiology Interface AGND Plane</tspan>
  </text>
  <g>
    <polygon style="fill: #ffffff" points="162,90 170,90 166,96 "/>
    <polygon style="fill: none; fill-opacity:0; stroke-width: 0.4; stroke: #000000" points="162,90 170,90 166,96 "/>
  </g>
  <g>
    <line style="fill: none; fill-opacity:0; stroke-width: 0.4; stroke: #000000" x1="142" y1="86" x2="142" y2="90"/>
    <line style="fill: none; fill-opacity:0; stroke-width: 0.4; stroke: #000000" x1="138" y1="90" x2="146" y2="90"/>
    <line style="fill: none; fill-opacity:0; stroke-width: 0.4; stroke: #000000" x1="139.34" y1="92" x2="144.66" y2="92"/>
    <line style="fill: none; fill-opacity:0; stroke-width: 0.4; stroke: #000000" x1="140.68" y1="94" x2="143.32" y2="94"/>
  </g>
  <polyline style="fill: none; fill-opacity:0; stroke-width: 0.4; stroke: #000000" points="142,86 149.2,86 150,84 151.6,88 153.2,84 154.8,88 156.4,84 158,88 158.8,86 166,86 "/>
  <text font-size="4.51556" style="fill: #000000;text-anchor:middle;font-family:CMU Serif;font-style:normal;font-weight:normal" x="154" y="77.2556">
    <tspan x="154" y="77.2556">NotPOP</tspan>
    <tspan x="154" y="82.9">Near AD5678</tspan>
  </text>
  <g>
    <line style="fill: none; fill-opacity:0; stroke-width: 0.4; stroke: #000000" x1="32" y1="48" x2="32" y2="52"/>
    <line style="fill: none; fill-opacity:0; stroke-width: 0.4; stroke: #000000" x1="28" y1="52" x2="36" y2="52"/>
    <line style="fill: none; fill-opacity:0; stroke-width: 0.4; stroke: #000000" x1="29.34" y1="54" x2="34.66" y2="54"/>
    <line style="fill: none; fill-opacity:0; stroke-width: 0.4; stroke: #000000" x1="30.68" y1="56" x2="33.32" y2="56"/>
  </g>
  <line style="fill: none; fill-opacity:0; stroke-width: 0.8; stroke: #000000" x1="14" y1="74" x2="90" y2="74"/>
  <text font-size="4.51556" style="fill: #000000;text-anchor:middle;font-family:CMU Serif;font-style:normal;font-weight:normal" x="38" y="72.9">
    <tspan x="38" y="72.9">VCC3V3</tspan>
  </text>
  <line style="fill: none; fill-opacity:0; stroke-width: 0.8; stroke: #000000" x1="12" y1="68" x2="70" y2="68"/>
  <text font-size="4.51556" style="fill: #000000;text-anchor:middle;font-family:CMU Serif;font-style:normal;font-weight:normal" x="38" y="66.9">
    <tspan x="38" y="66.9">VSWT</tspan>
  </text>
  <g>
    <rect style="fill: #ffffc7" x="90" y="70" width="14" height="8"/>
    <rect style="fill: none; fill-opacity:0; stroke-width: 0.4; stroke: #000000" x="90" y="70" width="14" height="8"/>
  </g>
  <g>
    <rect style="fill: #ffffc7" x="92" y="72" width="4" height="4"/>
    <rect style="fill: none; fill-opacity:0; stroke-width: 0.4; stroke: #000000" x="92" y="72" width="4" height="4"/>
  </g>
  <g>
    <rect style="fill: #ffffc7" x="98" y="72" width="4" height="4"/>
    <rect style="fill: none; fill-opacity:0; stroke-width: 0.4; stroke: #000000" x="98" y="72" width="4" height="4"/>
  </g>
  <g>
    <rect style="fill: #ffc7d1" x="10" y="72" width="4" height="4"/>
    <rect style="fill: none; fill-opacity:0; stroke-width: 0.4; stroke: #000000" x="10" y="72" width="4" height="4"/>
  </g>
  <line style="fill: none; fill-opacity:0; stroke-width: 0.4; stroke: #000000" x1="12" y1="72" x2="12" y2="68"/>
  <g>
    <ellipse style="fill: #000000" cx="12" cy="68" rx="0.5" ry="0.5"/>
    <ellipse style="fill: none; fill-opacity:0; stroke-width: 2; stroke: #000000" cx="12" cy="68" rx="0.5" ry="0.5"/>
  </g>
  <g>
    <rect style="fill: #ffffc7" x="70" y="64" width="14" height="8"/>
    <rect style="fill: none; fill-opacity:0; stroke-width: 0.4; stroke: #000000" x="70" y="64" width="14" height="8"/>
  </g>
  <g>
    <rect style="fill: #ffffc7" x="72" y="66" width="4" height="4"/>
    <rect style="fill: none; fill-opacity:0; stroke-width: 0.4; stroke: #000000" x="72" y="66" width="4" height="4"/>
  </g>
  <g>
    <rect style="fill: #ffffc7" x="78" y="66" width="4" height="4"/>
    <rect style="fill: none; fill-opacity:0; stroke-width: 0.4; stroke: #000000" x="78" y="66" width="4" height="4"/>
  </g>
  <line style="fill: none; fill-opacity:0; stroke-width: 0.8; stroke: #000000" x1="84" y1="68" x2="142" y2="68"/>
  <text font-size="4.51556" style="fill: #000000;text-anchor:middle;font-family:CMU Serif;font-style:normal;font-weight:normal" x="124" y="66.9">
    <tspan x="124" y="66.9">+5VD</tspan>
  </text>
  <text font-size="4.51556" style="fill: #000000;text-anchor:middle;font-family:CMU Serif;font-style:normal;font-weight:normal" x="124" y="72.9">
    <tspan x="124" y="72.9">+3.3VADC</tspan>
  </text>
  <line style="fill: none; fill-opacity:0; stroke-width: 0.8; stroke: #000000" x1="104" y1="74" x2="140" y2="74"/>
  <g>
    <rect style="fill: #ffc7d1" x="140" y="72" width="4" height="4"/>
    <rect style="fill: none; fill-opacity:0; stroke-width: 0.4; stroke: #000000" x="140" y="72" width="4" height="4"/>
  </g>
  <line style="fill: none; fill-opacity:0; stroke-width: 0.4; stroke: #000000" x1="142" y1="72" x2="142" y2="68"/>
  <g>
    <ellipse style="fill: #000000" cx="142" cy="68" rx="0.5" ry="0.5"/>
    <ellipse style="fill: none; fill-opacity:0; stroke-width: 2; stroke: #000000" cx="142" cy="68" rx="0.5" ry="0.5"/>
  </g>
  <line style="fill: none; fill-opacity:0; stroke-width: 0.8; stroke: #000000" x1="174" y1="76" x2="198" y2="76"/>
  <text font-size="4.51556" style="fill: #000000;text-anchor:middle;font-family:CMU Serif;font-style:normal;font-weight:normal" x="184" y="74.9">
    <tspan x="184" y="74.9">+5VA</tspan>
  </text>
  <line style="fill: none; fill-opacity:0; stroke-width: 0.8; stroke: #000000" x1="173" y1="70" x2="220" y2="70"/>
  <text font-size="4.51556" style="fill: #000000;text-anchor:middle;font-family:CMU Serif;font-style:normal;font-weight:normal" x="184" y="68.9">
    <tspan x="184" y="68.9">+VA</tspan>
  </text>
  <line style="fill: none; fill-opacity:0; stroke-width: 0.8; stroke: #000000" x1="178" y1="64" x2="224" y2="64"/>
  <text font-size="4.51556" style="fill: #000000;text-anchor:middle;font-family:CMU Serif;font-style:normal;font-weight:normal" x="184" y="62.9">
    <tspan x="184" y="62.9">‒VA</tspan>
  </text>
  <g>
    <rect style="fill: #ffc7d1" x="198" y="74" width="4" height="4"/>
    <rect style="fill: none; fill-opacity:0; stroke-width: 0.4; stroke: #000000" x="198" y="74" width="4" height="4"/>
  </g>
  <line style="fill: none; fill-opacity:0; stroke-width: 0.4; stroke: #000000" x1="200" y1="74" x2="200" y2="70"/>
  <g>
    <ellipse style="fill: #000000" cx="200" cy="70" rx="0.5" ry="0.5"/>
    <ellipse style="fill: none; fill-opacity:0; stroke-width: 2; stroke: #000000" cx="200" cy="70" rx="0.5" ry="0.5"/>
  </g>
  <g>
    <rect style="fill: #ffc7d1" x="50" y="78" width="4" height="4"/>
    <rect style="fill: none; fill-opacity:0; stroke-width: 0.4; stroke: #000000" x="50" y="78" width="4" height="4"/>
  </g>
  <line style="fill: none; fill-opacity:0; stroke-width: 0.4; stroke: #000000" x1="52" y1="78" x2="52" y2="74"/>
  <g>
    <ellipse style="fill: #000000" cx="52" cy="74" rx="0.5" ry="0.5"/>
    <ellipse style="fill: none; fill-opacity:0; stroke-width: 2; stroke: #000000" cx="52" cy="74" rx="0.5" ry="0.5"/>
  </g>
  <text font-size="4.51556" style="fill: #000000;text-anchor:middle;font-family:CMU Serif;font-style:normal;font-weight:normal" x="38" y="78.9">
    <tspan x="38" y="78.9">VCC1V2</tspan>
  </text>
  <line style="fill: none; fill-opacity:0; stroke-width: 0.8; stroke: #000000" x1="22" y1="80" x2="50" y2="80"/>
  <g>
    <polygon style="fill: #ffffff" points="181,52 189,52 185,58 "/>
    <polygon style="fill: none; fill-opacity:0; stroke-width: 0.4; stroke: #000000" points="181,52 189,52 185,58 "/>
  </g>
  <text font-size="4.51556" style="fill: #000000;text-anchor:middle;font-family:CMU Serif;font-style:normal;font-weight:normal" x="167" y="9.55">
    <tspan x="167" y="9.55">Power Supply</tspan>
  </text>
  <text font-size="4.51556" style="fill: #000000;text-anchor:middle;font-family:CMU Serif;font-style:normal;font-weight:normal" x="151" y="24.9">
    <tspan x="151" y="24.9">+</tspan>
  </text>
  <text font-size="4.51556" style="fill: #000000;text-anchor:middle;font-family:CMU Serif;font-style:normal;font-weight:normal" x="171" y="24.9">
    <tspan x="171" y="24.9">‒</tspan>
  </text>
  <text font-size="4.51556" style="fill: #000000;text-anchor:middle;font-family:CMU Serif;font-style:normal;font-weight:normal" x="161" y="24.9">
    <tspan x="161" y="24.9">EGND</tspan>
  </text>
  <text font-size="4.51556" style="fill: #000000;text-anchor:middle;font-family:CMU Serif;font-style:normal;font-weight:normal" x="177" y="24.9">
    <tspan x="177" y="24.9">+</tspan>
  </text>
  <text font-size="4.51556" style="fill: #000000;text-anchor:middle;font-family:CMU Serif;font-style:normal;font-weight:normal" x="197" y="24.9">
    <tspan x="197" y="24.9">‒</tspan>
  </text>
  <text font-size="4.51556" style="fill: #000000;text-anchor:middle;font-family:CMU Serif;font-style:normal;font-weight:normal" x="187" y="24.9">
    <tspan x="187" y="24.9">EGND</tspan>
  </text>
  <text font-size="4.51556" style="fill: #000000;text-anchor:middle;font-family:CMU Serif;font-style:normal;font-weight:normal" x="137" y="24.9">
    <tspan x="137" y="24.9">+</tspan>
  </text>
  <text font-size="4.51556" style="fill: #000000;text-anchor:middle;font-family:CMU Serif;font-style:normal;font-weight:normal" x="143" y="24.9">
    <tspan x="143" y="24.9">‒</tspan>
  </text>
  <text font-size="4.51556" style="fill: #000000;text-anchor:middle;font-family:CMU Serif;font-style:normal;font-weight:normal" x="139" y="16.9">
    <tspan x="139" y="16.9">+5V</tspan>
  </text>
  <text font-size="4.51556" style="fill: #000000;text-anchor:middle;font-family:CMU Serif;font-style:normal;font-weight:normal" x="161" y="16.9">
    <tspan x="161" y="16.9">Variable</tspan>
  </text>
  <text font-size="4.51556" style="fill: #000000;text-anchor:middle;font-family:CMU Serif;font-style:normal;font-weight:normal" x="187" y="16.9">
    <tspan x="187" y="16.9">Variable</tspan>
  </text>
  <text font-size="4.51556" style="fill: #000000;text-anchor:middle;font-family:CMU Serif;font-style:normal;font-weight:normal" x="30" y="11.55">
    <tspan x="30" y="11.55">PC</tspan>
  </text>
  <text font-size="4.51556" style="fill: #000000;text-anchor:middle;font-family:CMU Serif;font-style:normal;font-weight:normal" x="26" y="24.9">
    <tspan x="26" y="24.9">+</tspan>
  </text>
  <text font-size="4.51556" style="fill: #000000;text-anchor:middle;font-family:CMU Serif;font-style:normal;font-weight:normal" x="32" y="24.9">
    <tspan x="32" y="24.9">‒</tspan>
  </text>
  <text font-size="4.51556" style="fill: #000000;text-anchor:middle;font-family:CMU Serif;font-style:normal;font-weight:normal" x="30" y="16.9">
    <tspan x="30" y="16.9">USB +5V</tspan>
  </text>
  <line style="fill: none; fill-opacity:0; stroke-width: 0.4; stroke: #000000" x1="211" y1="23" x2="219" y2="23"/>
  <line style="fill: none; fill-opacity:0; stroke-width: 0.4; stroke: #000000" x1="209" y1="27" x2="211" y2="23"/>
  <line style="fill: none; fill-opacity:0; stroke-width: 0.4; stroke: #000000" x1="213" y1="27" x2="215" y2="23"/>
  <line style="fill: none; fill-opacity:0; stroke-width: 0.4; stroke: #000000" x1="217" y1="27" x2="219" y2="23"/>
  <line style="fill: none; fill-opacity:0; stroke-width: 0.4; stroke: #000000" x1="215" y1="19" x2="215" y2="23"/>
  <g>
    <polyline style="fill: none; fill-opacity:0; stroke-width: 0.4; stroke: #000000" points="86,68 86,68 86,92 104.8,92 "/>
    <polygon style="fill: #000000" points="104.8,93.5 107.8,92 104.8,90.5 "/>
    <polygon style="fill: none; fill-opacity:0; stroke-width: 0.4; stroke: #000000" points="104.8,93.5 107.8,92 104.8,90.5 "/>
  </g>
  <g>
    <polyline style="fill: none; fill-opacity:0; stroke-width: 0.4; stroke: #000000" points="74,74 74,74 74,138 82.8,138 "/>
    <polygon style="fill: #000000" points="82.8,139.5 85.8,138 82.8,136.5 "/>
    <polygon style="fill: none; fill-opacity:0; stroke-width: 0.4; stroke: #000000" points="82.8,139.5 85.8,138 82.8,136.5 "/>
  </g>
  <g>
    <polyline style="fill: none; fill-opacity:0; stroke-width: 0.4; stroke: #000000" points="70,120 70,120 70,144 82.8,144 "/>
    <polygon style="fill: #000000" points="82.8,145.5 85.8,144 82.8,142.5 "/>
    <polygon style="fill: none; fill-opacity:0; stroke-width: 0.4; stroke: #000000" points="82.8,145.5 85.8,144 82.8,142.5 "/>
  </g>
  <line style="fill: none; fill-opacity:0; stroke-width: 0.4; stroke-dasharray: 4; stroke: #000000" x1="70" y1="120" x2="70" y2="74"/>
  <polyline style="fill: none; fill-opacity:0; stroke-width: 0.4; stroke-dasharray: 4; stroke: #000000" points="110,74 110,82 80,82 80,118 70,118 "/>
  <g>
    <ellipse style="fill: #000000" cx="70" cy="74" rx="0.5" ry="0.5"/>
    <ellipse style="fill: none; fill-opacity:0; stroke-width: 2; stroke: #000000" cx="70" cy="74" rx="0.5" ry="0.5"/>
  </g>
  <g>
    <ellipse style="fill: #000000" cx="74" cy="74" rx="0.5" ry="0.5"/>
    <ellipse style="fill: none; fill-opacity:0; stroke-width: 2; stroke: #000000" cx="74" cy="74" rx="0.5" ry="0.5"/>
  </g>
  <g>
    <ellipse style="fill: #000000" cx="110" cy="74" rx="0.5" ry="0.5"/>
    <ellipse style="fill: none; fill-opacity:0; stroke-width: 2; stroke: #000000" cx="110" cy="74" rx="0.5" ry="0.5"/>
  </g>
  <g>
    <line style="fill: none; fill-opacity:0; stroke-width: 0.4; stroke: #000000" x1="53.2" y1="122" x2="176.8" y2="122"/>
    <polygon style="fill: #000000" points="53.2,120.5 50.2,122 53.2,123.5 "/>
    <polygon style="fill: none; fill-opacity:0; stroke-width: 0.4; stroke: #000000" points="53.2,120.5 50.2,122 53.2,123.5 "/>
    <polygon style="fill: #000000" points="176.8,123.5 179.8,122 176.8,120.5 "/>
    <polygon style="fill: none; fill-opacity:0; stroke-width: 0.4; stroke: #000000" points="176.8,123.5 179.8,122 176.8,120.5 "/>
  </g>
  <g>
    <line style="fill: none; fill-opacity:0; stroke-width: 0.4; stroke: #000000" x1="50" y1="104" x2="104.8" y2="104"/>
    <polygon style="fill: #000000" points="104.8,105.5 107.8,104 104.8,102.5 "/>
    <polygon style="fill: none; fill-opacity:0; stroke-width: 0.4; stroke: #000000" points="104.8,105.5 107.8,104 104.8,102.5 "/>
  </g>
  <g>
    <line style="fill: none; fill-opacity:0; stroke-width: 0.4; stroke: #000000" x1="132" y1="98" x2="224.8" y2="98"/>
    <polygon style="fill: #000000" points="224.8,99.5 227.8,98 224.8,96.5 "/>
    <polygon style="fill: none; fill-opacity:0; stroke-width: 0.4; stroke: #000000" points="224.8,99.5 227.8,98 224.8,96.5 "/>
  </g>
  <g>
    <ellipse style="fill: #000000" cx="136" cy="74" rx="0.5" ry="0.5"/>
    <ellipse style="fill: none; fill-opacity:0; stroke-width: 2; stroke: #000000" cx="136" cy="74" rx="0.5" ry="0.5"/>
  </g>
  <g>
    <polyline style="fill: none; fill-opacity:0; stroke-width: 0.4; stroke: #000000" points="136,74 136,74 136,116 176.8,116 "/>
    <polygon style="fill: #000000" points="176.8,117.5 179.8,116 176.8,114.5 "/>
    <polygon style="fill: none; fill-opacity:0; stroke-width: 0.4; stroke: #000000" points="176.8,117.5 179.8,116 176.8,114.5 "/>
  </g>
  <g>
    <polyline style="fill: none; fill-opacity:0; stroke-width: 0.4; stroke: #000000" points="174,76 174,76 174,110 176.8,110 "/>
    <polygon style="fill: #000000" points="176.8,111.5 179.8,110 176.8,108.5 "/>
    <polygon style="fill: none; fill-opacity:0; stroke-width: 0.4; stroke: #000000" points="176.8,111.5 179.8,110 176.8,108.5 "/>
  </g>
  <g>
    <ellipse style="fill: #000000" cx="174" cy="76" rx="0.5" ry="0.5"/>
    <ellipse style="fill: none; fill-opacity:0; stroke-width: 2; stroke: #000000" cx="174" cy="76" rx="0.5" ry="0.5"/>
  </g>
  <g>
    <polyline style="fill: none; fill-opacity:0; stroke-width: 0.4; stroke: #000000" points="212,70 212,70 212,144 224.8,144 "/>
    <polygon style="fill: #000000" points="224.8,145.5 227.8,144 224.8,142.5 "/>
    <polygon style="fill: none; fill-opacity:0; stroke-width: 0.4; stroke: #000000" points="224.8,145.5 227.8,144 224.8,142.5 "/>
  </g>
  <g>
    <polyline style="fill: none; fill-opacity:0; stroke-width: 0.4; stroke: #000000" points="216,64 216,64 216,138 224.8,138 "/>
    <polygon style="fill: #000000" points="224.8,139.5 227.8,138 224.8,136.5 "/>
    <polygon style="fill: none; fill-opacity:0; stroke-width: 0.4; stroke: #000000" points="224.8,139.5 227.8,138 224.8,136.5 "/>
  </g>
  <g>
    <polyline style="fill: none; fill-opacity:0; stroke-width: 0.4; stroke: #000000" points="220,70 220,70 220,92 224.8,92 "/>
    <polygon style="fill: #000000" points="224.8,93.5 227.8,92 224.8,90.5 "/>
    <polygon style="fill: none; fill-opacity:0; stroke-width: 0.4; stroke: #000000" points="224.8,93.5 227.8,92 224.8,90.5 "/>
  </g>
  <g>
    <polyline style="fill: none; fill-opacity:0; stroke-width: 0.4; stroke: #000000" points="224,64 224,64 224,86 224.8,86 "/>
    <polygon style="fill: #000000" points="224.8,87.5 227.8,86 224.8,84.5 "/>
    <polygon style="fill: none; fill-opacity:0; stroke-width: 0.4; stroke: #000000" points="224.8,87.5 227.8,86 224.8,84.5 "/>
  </g>
  <g>
    <ellipse style="fill: #000000" cx="212" cy="70" rx="0.5" ry="0.5"/>
    <ellipse style="fill: none; fill-opacity:0; stroke-width: 2; stroke: #000000" cx="212" cy="70" rx="0.5" ry="0.5"/>
  </g>
  <g>
    <ellipse style="fill: #000000" cx="216" cy="64" rx="0.5" ry="0.5"/>
    <ellipse style="fill: none; fill-opacity:0; stroke-width: 2; stroke: #000000" cx="216" cy="64" rx="0.5" ry="0.5"/>
  </g>
  <g>
    <ellipse style="fill: #000000" cx="220" cy="70" rx="0.5" ry="0.5"/>
    <ellipse style="fill: none; fill-opacity:0; stroke-width: 2; stroke: #000000" cx="220" cy="70" rx="0.5" ry="0.5"/>
  </g>
  <g>
    <ellipse style="fill: #000000" cx="224" cy="64" rx="0.5" ry="0.5"/>
    <ellipse style="fill: none; fill-opacity:0; stroke-width: 2; stroke: #000000" cx="224" cy="64" rx="0.5" ry="0.5"/>
  </g>
  <g>
    <line style="fill: none; fill-opacity:0; stroke-width: 0.4; stroke: #000000" x1="53.2" y1="150" x2="82.8" y2="150"/>
    <polygon style="fill: #000000" points="53.2,148.5 50.2,150 53.2,151.5 "/>
    <polygon style="fill: none; fill-opacity:0; stroke-width: 0.4; stroke: #000000" points="53.2,148.5 50.2,150 53.2,151.5 "/>
    <polygon style="fill: #000000" points="82.8,151.5 85.8,150 82.8,148.5 "/>
    <polygon style="fill: none; fill-opacity:0; stroke-width: 0.4; stroke: #000000" points="82.8,151.5 85.8,150 82.8,148.5 "/>
  </g>
  <g>
    <polyline style="fill: none; fill-opacity:0; stroke-width: 0.4; stroke: #000000" points="228,150 222,150 222,128 211.2,128 "/>
    <polygon style="fill: #000000" points="211.2,126.5 208.2,128 211.2,129.5 "/>
    <polygon style="fill: none; fill-opacity:0; stroke-width: 0.4; stroke: #000000" points="211.2,126.5 208.2,128 211.2,129.5 "/>
  </g>
  <g>
    <polygon style="fill: #ffffff" points="162,140 170,140 166,146 "/>
    <polygon style="fill: none; fill-opacity:0; stroke-width: 0.4; stroke: #000000" points="162,140 170,140 166,146 "/>
  </g>
  <g>
    <line style="fill: none; fill-opacity:0; stroke-width: 0.4; stroke: #000000" x1="142" y1="136" x2="142" y2="140"/>
    <line style="fill: none; fill-opacity:0; stroke-width: 0.4; stroke: #000000" x1="138" y1="140" x2="146" y2="140"/>
    <line style="fill: none; fill-opacity:0; stroke-width: 0.4; stroke: #000000" x1="139.34" y1="142" x2="144.66" y2="142"/>
    <line style="fill: none; fill-opacity:0; stroke-width: 0.4; stroke: #000000" x1="140.68" y1="144" x2="143.32" y2="144"/>
  </g>
  <polyline style="fill: none; fill-opacity:0; stroke-width: 0.4; stroke: #000000" points="142,136 149.2,136 150,134 151.6,138 153.2,134 154.8,138 156.4,134 158,138 158.8,136 166,136 "/>
  <text font-size="4.51556" style="fill: #000000;text-anchor:middle;font-family:CMU Serif;font-style:normal;font-weight:normal" x="154" y="127.256">
    <tspan x="154" y="127.256">NotPOP</tspan>
    <tspan x="154" y="132.9">Near AD7606</tspan>
  </text>
  <line style="fill: none; fill-opacity:0; stroke-width: 0.4; stroke: #000000" x1="166" y1="90" x2="166" y2="86"/>
  <line style="fill: none; fill-opacity:0; stroke-width: 0.4; stroke: #000000" x1="166" y1="136" x2="166" y2="140"/>
  <line style="fill: none; fill-opacity:0; stroke-width: 0.4; stroke: #000000" x1="184" y1="154" x2="180" y2="158"/>
  <text font-size="4.51556" style="fill: #000000;text-anchor:middle;font-family:CMU Serif;font-style:normal;font-weight:normal" x="182" y="152.9">
    <tspan x="182" y="152.9">x32</tspan>
  </text>
  <line style="fill: none; fill-opacity:0; stroke-width: 0.4; stroke: #000000" x1="64" y1="148" x2="60" y2="152"/>
  <text font-size="4.51556" style="fill: #000000;text-anchor:middle;font-family:CMU Serif;font-style:normal;font-weight:normal" x="62" y="146.9">
    <tspan x="62" y="146.9">x7</tspan>
  </text>
  <line style="fill: none; fill-opacity:0; stroke-width: 0.4; stroke: #000000" x1="64" y1="120" x2="60" y2="124"/>
  <text font-size="4.51556" style="fill: #000000;text-anchor:middle;font-family:CMU Serif;font-style:normal;font-weight:normal" x="62" y="118.9">
    <tspan x="62" y="118.9">x28</tspan>
  </text>
  <line style="fill: none; fill-opacity:0; stroke-width: 0.4; stroke: #000000" x1="64" y1="102" x2="60" y2="106"/>
  <text font-size="4.51556" style="fill: #000000;text-anchor:middle;font-family:CMU Serif;font-style:normal;font-weight:normal" x="62" y="100.9">
    <tspan x="62" y="100.9">x5</tspan>
  </text>
  <line style="fill: none; fill-opacity:0; stroke-width: 0.4; stroke: #000000" x1="186" y1="96" x2="182" y2="100"/>
  <text font-size="4.51556" style="fill: #000000;text-anchor:middle;font-family:CMU Serif;font-style:normal;font-weight:normal" x="184" y="94.9">
    <tspan x="184" y="94.9">x4</tspan>
  </text>
  <line style="fill: none; fill-opacity:0; stroke-width: 0.4; stroke: #000000" x1="222" y1="126" x2="218" y2="130"/>
  <text font-size="4.51556" style="fill: #000000;text-anchor:middle;font-family:CMU Serif;font-style:normal;font-weight:normal" x="220" y="124.9">
    <tspan x="220" y="124.9">x8</tspan>
  </text>
  <g>
    <polyline style="fill: none; fill-opacity:0; stroke-width: 0.4; stroke: #000000" points="18,74 18,74 18,140 22.8,140 "/>
    <polygon style="fill: #000000" points="22.8,141.5 25.8,140 22.8,138.5 "/>
    <polygon style="fill: none; fill-opacity:0; stroke-width: 0.4; stroke: #000000" points="22.8,141.5 25.8,140 22.8,138.5 "/>
  </g>
  <g>
    <polyline style="fill: none; fill-opacity:0; stroke-width: 0.4; stroke: #000000" points="22,80 22,80 22,132 22.8,132 "/>
    <polygon style="fill: #000000" points="22.8,133.5 25.8,132 22.8,130.5 "/>
    <polygon style="fill: none; fill-opacity:0; stroke-width: 0.4; stroke: #000000" points="22.8,133.5 25.8,132 22.8,130.5 "/>
  </g>
  <g>
    <ellipse style="fill: #000000" cx="18" cy="74" rx="0.5" ry="0.5"/>
    <ellipse style="fill: none; fill-opacity:0; stroke-width: 2; stroke: #000000" cx="18" cy="74" rx="0.5" ry="0.5"/>
  </g>
  <g>
    <ellipse style="fill: #000000" cx="22" cy="80" rx="0.5" ry="0.5"/>
    <ellipse style="fill: none; fill-opacity:0; stroke-width: 2; stroke: #000000" cx="22" cy="80" rx="0.5" ry="0.5"/>
  </g>
  <g>
    <line style="fill: none; fill-opacity:0; stroke-width: 0.4; stroke: #000000" x1="76" y1="160" x2="76" y2="164"/>
    <line style="fill: none; fill-opacity:0; stroke-width: 0.4; stroke: #000000" x1="72" y1="164" x2="80" y2="164"/>
    <line style="fill: none; fill-opacity:0; stroke-width: 0.4; stroke: #000000" x1="73.34" y1="166" x2="78.66" y2="166"/>
    <line style="fill: none; fill-opacity:0; stroke-width: 0.4; stroke: #000000" x1="74.68" y1="168" x2="77.32" y2="168"/>
  </g>
  <g>
    <line style="fill: none; fill-opacity:0; stroke-width: 0.4; stroke: #000000" x1="48" y1="160" x2="48" y2="164"/>
    <line style="fill: none; fill-opacity:0; stroke-width: 0.4; stroke: #000000" x1="44" y1="164" x2="52" y2="164"/>
    <line style="fill: none; fill-opacity:0; stroke-width: 0.4; stroke: #000000" x1="45.34" y1="166" x2="50.66" y2="166"/>
    <line style="fill: none; fill-opacity:0; stroke-width: 0.4; stroke: #000000" x1="46.68" y1="168" x2="49.32" y2="168"/>
  </g>
  <line style="fill: none; fill-opacity:0; stroke-width: 0.4; stroke: #000000" x1="76" y1="160" x2="48" y2="160"/>
  <line style="fill: none; fill-opacity:0; stroke-width: 0.4; stroke: #000000" x1="64" y1="158" x2="60" y2="162"/>
  <text font-size="4.51556" style="fill: #000000;text-anchor:middle;font-family:CMU Serif;font-style:normal;font-weight:normal" x="62" y="156.9">
    <tspan x="62" y="156.9">x45</tspan>
  </text>
  <text font-size="4.51556" style="fill: #000000;text-anchor:middle;font-family:CMU Serif;font-style:normal;font-weight:normal" x="26" y="46.9">
    <tspan x="26" y="46.9">+</tspan>
  </text>
  <text font-size="4.51556" style="fill: #000000;text-anchor:middle;font-family:CMU Serif;font-style:normal;font-weight:normal" x="32" y="46.9">
    <tspan x="32" y="46.9">‒</tspan>
  </text>
  <g>
    <line style="fill: none; fill-opacity:0; stroke-width: 0.4; stroke: #000000" x1="120" y1="108" x2="120" y2="112"/>
    <line style="fill: none; fill-opacity:0; stroke-width: 0.4; stroke: #000000" x1="116" y1="112" x2="124" y2="112"/>
    <line style="fill: none; fill-opacity:0; stroke-width: 0.4; stroke: #000000" x1="117.34" y1="114" x2="122.66" y2="114"/>
    <line style="fill: none; fill-opacity:0; stroke-width: 0.4; stroke: #000000" x1="118.68" y1="116" x2="121.32" y2="116"/>
  </g>
  <g>
    <line style="fill: none; fill-opacity:0; stroke-width: 0.4; stroke: #000000" x1="100" y1="160" x2="100" y2="164"/>
    <line style="fill: none; fill-opacity:0; stroke-width: 0.4; stroke: #000000" x1="96" y1="164" x2="104" y2="164"/>
    <line style="fill: none; fill-opacity:0; stroke-width: 0.4; stroke: #000000" x1="97.34" y1="166" x2="102.66" y2="166"/>
    <line style="fill: none; fill-opacity:0; stroke-width: 0.4; stroke: #000000" x1="98.68" y1="168" x2="101.32" y2="168"/>
  </g>
  <g>
    <line style="fill: none; fill-opacity:0; stroke-width: 0.4; stroke: #000000" x1="38" y1="154" x2="38" y2="158"/>
    <line style="fill: none; fill-opacity:0; stroke-width: 0.4; stroke: #000000" x1="34" y1="158" x2="42" y2="158"/>
    <line style="fill: none; fill-opacity:0; stroke-width: 0.4; stroke: #000000" x1="35.34" y1="160" x2="40.66" y2="160"/>
    <line style="fill: none; fill-opacity:0; stroke-width: 0.4; stroke: #000000" x1="36.68" y1="162" x2="39.32" y2="162"/>
  </g>
  <g>
    <polygon style="fill: #ffffff" points="190,136 198,136 194,142 "/>
    <polygon style="fill: none; fill-opacity:0; stroke-width: 0.4; stroke: #000000" points="190,136 198,136 194,142 "/>
  </g>
  <line style="fill: none; fill-opacity:0; stroke-width: 0.4; stroke: #000000" x1="194" y1="132" x2="194" y2="136"/>
  <g>
    <polygon style="fill: #ffffff" points="234,106 242,106 238,112 "/>
    <polygon style="fill: none; fill-opacity:0; stroke-width: 0.4; stroke: #000000" points="234,106 242,106 238,112 "/>
  </g>
  <line style="fill: none; fill-opacity:0; stroke-width: 0.4; stroke: #000000" x1="238" y1="102" x2="238" y2="106"/>
  <g>
    <line style="fill: none; fill-opacity:0; stroke-width: 0.4; stroke: #000000" x1="114" y1="156" x2="224.8" y2="156"/>
    <polygon style="fill: #000000" points="224.8,157.5 227.8,156 224.8,154.5 "/>
    <polygon style="fill: none; fill-opacity:0; stroke-width: 0.4; stroke: #000000" points="224.8,157.5 227.8,156 224.8,154.5 "/>
  </g>
  <line style="fill: none; fill-opacity:0; stroke-width: 0.4; stroke: #000000" x1="26" y1="68" x2="26" y2="48"/>
  <g>
    <line style="fill: none; fill-opacity:0; stroke-width: 0.4; stroke: #000000" x1="123" y1="48" x2="123" y2="52"/>
    <line style="fill: none; fill-opacity:0; stroke-width: 0.4; stroke: #000000" x1="119" y1="52" x2="127" y2="52"/>
    <line style="fill: none; fill-opacity:0; stroke-width: 0.4; stroke: #000000" x1="120.34" y1="54" x2="125.66" y2="54"/>
    <line style="fill: none; fill-opacity:0; stroke-width: 0.4; stroke: #000000" x1="121.68" y1="56" x2="124.32" y2="56"/>
  </g>
  <g>
    <ellipse style="fill: #000000" cx="26" cy="68" rx="0.5" ry="0.5"/>
    <ellipse style="fill: none; fill-opacity:0; stroke-width: 2; stroke: #000000" cx="26" cy="68" rx="0.5" ry="0.5"/>
  </g>
  <g>
    <ellipse style="fill: #000000" cx="109" cy="68" rx="0.5" ry="0.5"/>
    <ellipse style="fill: none; fill-opacity:0; stroke-width: 2; stroke: #000000" cx="109" cy="68" rx="0.5" ry="0.5"/>
  </g>
  <g>
    <ellipse style="fill: #000000" cx="86" cy="68" rx="0.5" ry="0.5"/>
    <ellipse style="fill: none; fill-opacity:0; stroke-width: 2; stroke: #000000" cx="86" cy="68" rx="0.5" ry="0.5"/>
  </g>
  <line style="fill: none; fill-opacity:0; stroke-width: 0.4; stroke: #000000" x1="109" y1="68" x2="109" y2="48"/>
  <line style="fill: none; fill-opacity:0; stroke-width: 0.4; stroke: #000000" x1="185" y1="52" x2="185" y2="48"/>
  <g>
    <ellipse style="fill: #000000" cx="173" cy="70" rx="0.5" ry="0.5"/>
    <ellipse style="fill: none; fill-opacity:0; stroke-width: 2; stroke: #000000" cx="173" cy="70" rx="0.5" ry="0.5"/>
  </g>
  <line style="fill: none; fill-opacity:0; stroke-width: 0.4; stroke: #000000" x1="173" y1="70" x2="173" y2="48"/>
  <g>
    <ellipse style="fill: #000000" cx="197" cy="64" rx="0.5" ry="0.5"/>
    <ellipse style="fill: none; fill-opacity:0; stroke-width: 2; stroke: #000000" cx="197" cy="64" rx="0.5" ry="0.5"/>
  </g>
  <line style="fill: none; fill-opacity:0; stroke-width: 0.4; stroke: #000000" x1="197" y1="64" x2="197" y2="48"/>
  <polyline style="fill: none; fill-opacity:0; stroke-width: 0.4; stroke: #000000" points="177,26 177,26 177,34 185,34 185,42 185,42 "/>
  <polyline style="fill: none; fill-opacity:0; stroke-width: 0.4; stroke: #000000" points="151,26 151,26 151,36 173,36 173,42 173,42 "/>
  <polyline style="fill: none; fill-opacity:0; stroke-width: 0.4; stroke: #000000" points="137,26 137,26 137,30 109,30 109,42 109,42 "/>
  <polyline style="fill: none; fill-opacity:0; stroke-width: 0.4; stroke: #000000" points="143,26 143,26 143,34 123,34 123,42 123,42 "/>
  <line style="fill: none; fill-opacity:0; stroke-width: 0.4; stroke: #000000" x1="26" y1="26" x2="26" y2="42"/>
  <line style="fill: none; fill-opacity:0; stroke-width: 0.4; stroke: #000000" x1="32" y1="26" x2="32" y2="42"/>
  <polyline style="fill: none; fill-opacity:0; stroke-width: 0.4; stroke: #000000" points="215,19 161,19 161,21 161,21 "/>
  <line style="fill: none; fill-opacity:0; stroke-width: 0.4; stroke: #000000" x1="187" y1="21" x2="187" y2="19"/>
  <line style="fill: none; fill-opacity:0; stroke-width: 0.4; stroke: #000000" x1="50" y1="24" x2="58" y2="24"/>
  <line style="fill: none; fill-opacity:0; stroke-width: 0.4; stroke: #000000" x1="48" y1="28" x2="50" y2="24"/>
  <line style="fill: none; fill-opacity:0; stroke-width: 0.4; stroke: #000000" x1="52" y1="28" x2="54" y2="24"/>
  <line style="fill: none; fill-opacity:0; stroke-width: 0.4; stroke: #000000" x1="56" y1="28" x2="58" y2="24"/>
  <line style="fill: none; fill-opacity:0; stroke-width: 0.4; stroke: #000000" x1="54" y1="20" x2="54" y2="24"/>
  <polyline style="fill: none; fill-opacity:0; stroke-width: 0.4; stroke-dasharray: 4; stroke: #000000" points="54,20 32,20 32,21.6 32,21.6 "/>
  <polyline style="fill: none; fill-opacity:0; stroke-width: 0.4; stroke: #000000" points="171,26 171,26 171,29 177,29 "/>
  <g>
    <ellipse style="fill: #000000" cx="177" cy="29" rx="0.5" ry="0.5"/>
    <ellipse style="fill: none; fill-opacity:0; stroke-width: 2; stroke: #000000" cx="177" cy="29" rx="0.5" ry="0.5"/>
  </g>
  <line style="fill: none; fill-opacity:0; stroke-width: 0.4; stroke-dasharray: 4 1.6 0.8 1.6; stroke: #000000" x1="177" y1="34" x2="143" y2="34"/>
  <g>
    <ellipse style="fill: #000000" cx="177" cy="34" rx="0.5" ry="0.5"/>
    <ellipse style="fill: none; fill-opacity:0; stroke-width: 2; stroke: #000000" cx="177" cy="34" rx="0.5" ry="0.5"/>
  </g>
  <g>
    <ellipse style="fill: #000000" cx="143" cy="34" rx="0.5" ry="0.5"/>
    <ellipse style="fill: none; fill-opacity:0; stroke-width: 2; stroke: #000000" cx="143" cy="34" rx="0.5" ry="0.5"/>
  </g>
  <text font-size="4.51556" style="fill: #000000;text-anchor:middle;font-family:CMU Serif;font-style:normal;font-weight:normal" x="86" y="60.9">
    <tspan x="86" y="60.9">Jumpers</tspan>
  </text>
  <text font-size="4.51556" style="fill: #000000;text-anchor:start;font-family:CMU Serif;font-style:normal;font-weight:normal" x="202.8" y="46.35">
    <tspan x="202.8" y="46.35">Mini-Banana</tspan>
  </text>
  <g>
    <polygon style="fill: #ffffff" points="234.058,164.08 242.058,164.08 238.058,170.08 "/>
    <polygon style="fill: none; fill-opacity:0; stroke-width: 0.4; stroke: #000000" points="234.058,164.08 242.058,164.08 238.058,170.08 "/>
  </g>
  <line style="fill: none; fill-opacity:0; stroke-width: 0.4; stroke: #000000" x1="238" y1="160" x2="238.058" y2="164.08"/>
  <line style="fill: none; fill-opacity:0; stroke-width: 0.4; stroke: #000000" x1="161" y1="30" x2="161" y2="26"/>
  <line style="fill: none; fill-opacity:0; stroke-width: 0.4; stroke: #000000" x1="159" y1="32" x2="163" y2="28"/>
  <line style="fill: none; fill-opacity:0; stroke-width: 0.4; stroke: #000000" x1="163" y1="32" x2="159" y2="28"/>
  <line style="fill: none; fill-opacity:0; stroke-width: 0.4; stroke: #000000" x1="187" y1="30" x2="187" y2="26"/>
  <line style="fill: none; fill-opacity:0; stroke-width: 0.4; stroke: #000000" x1="185" y1="32" x2="189" y2="28"/>
  <line style="fill: none; fill-opacity:0; stroke-width: 0.4; stroke: #000000" x1="189" y1="32" x2="185" y2="28"/>
  <line style="fill: none; fill-opacity:0; stroke-width: 0.4; stroke: #000000" x1="197" y1="42" x2="197" y2="26"/>
  <g>
    <rect style="fill: #c7ffc7" x="12" y="184" width="8" height="8"/>
    <rect style="fill: none; fill-opacity:0; stroke-width: 0.4; stroke: #000000" x="12" y="184" width="8" height="8"/>
  </g>
  <text font-size="4.51556" style="fill: #000000;text-anchor:start;font-family:CMU Serif;font-style:normal;font-weight:normal" x="22" y="189.55">
    <tspan x="22" y="189.55">Digital Part(s)</tspan>
  </text>
  <g>
    <rect style="fill: #ffc7d1" x="56" y="184" width="8" height="8"/>
    <rect style="fill: none; fill-opacity:0; stroke-width: 0.4; stroke: #000000" x="56" y="184" width="8" height="8"/>
  </g>
  <text font-size="4.51556" style="fill: #000000;text-anchor:start;font-family:CMU Serif;font-style:normal;font-weight:normal" x="66" y="189.55">
    <tspan x="66" y="189.55">Analog Part(s)</tspan>
  </text>
  <g>
    <rect style="fill: #ffffc7" x="102" y="184" width="8" height="8"/>
    <rect style="fill: none; fill-opacity:0; stroke-width: 0.4; stroke: #000000" x="102" y="184" width="8" height="8"/>
  </g>
  <text font-size="4.51556" style="fill: #000000;text-anchor:start;font-family:CMU Serif;font-style:normal;font-weight:normal" x="112" y="189.55">
    <tspan x="112" y="189.55">Connector(s)</tspan>
  </text>
  <g>
    <polygon style="fill: #ffffff" points="142,186 150,186 146,192 "/>
    <polygon style="fill: none; fill-opacity:0; stroke-width: 0.4; stroke: #000000" points="142,186 150,186 146,192 "/>
  </g>
  <g>
    <line style="fill: none; fill-opacity:0; stroke-width: 0.4; stroke: #000000" x1="178" y1="184" x2="178" y2="188"/>
    <line style="fill: none; fill-opacity:0; stroke-width: 0.4; stroke: #000000" x1="174" y1="188" x2="182" y2="188"/>
    <line style="fill: none; fill-opacity:0; stroke-width: 0.4; stroke: #000000" x1="175.34" y1="190" x2="180.66" y2="190"/>
    <line style="fill: none; fill-opacity:0; stroke-width: 0.4; stroke: #000000" x1="176.68" y1="192" x2="179.32" y2="192"/>
  </g>
  <text font-size="4.51556" style="fill: #000000;text-anchor:start;font-family:CMU Serif;font-style:normal;font-weight:normal" x="154" y="189.55">
    <tspan x="154" y="189.55">AGND</tspan>
  </text>
  <text font-size="4.51556" style="fill: #000000;text-anchor:start;font-family:CMU Serif;font-style:normal;font-weight:normal" x="186" y="189.55">
    <tspan x="186" y="189.55">DGND</tspan>
  </text>
  <g>
    <rect style="fill: #ffc7d1" x="206" y="188" width="4" height="4"/>
    <rect style="fill: none; fill-opacity:0; stroke-width: 0.4; stroke: #000000" x="206" y="188" width="4" height="4"/>
  </g>
  <line style="fill: none; fill-opacity:0; stroke-width: 0.4; stroke: #000000" x1="208" y1="188" x2="208" y2="184"/>
  <g>
    <ellipse style="fill: #000000" cx="208" cy="184" rx="0.5" ry="0.5"/>
    <ellipse style="fill: none; fill-opacity:0; stroke-width: 2; stroke: #000000" cx="208" cy="184" rx="0.5" ry="0.5"/>
  </g>
  <text font-size="4.51556" style="fill: #000000;text-anchor:start;font-family:CMU Serif;font-style:normal;font-weight:normal" x="214" y="189.55">
    <tspan x="214" y="189.55">Voltage Regulator</tspan>
  </text>
</svg>
