<?xml version="1.0" encoding="UTF-8" standalone="no"?>
<!DOCTYPE svg PUBLIC "-//W3C//DTD SVG 1.0//EN" "http://www.w3.org/TR/2001/PR-SVG-20010719/DTD/svg10.dtd">
<svg width="14cm" height="9cm" viewBox="3 15 269 177" xmlns="http://www.w3.org/2000/svg" xmlns:xlink="http://www.w3.org/1999/xlink">
  <g>
    <rect style="fill: #ffffff" x="4" y="26" width="240" height="122"/>
    <rect style="fill: none; fill-opacity:0; stroke-width: 0.4; stroke-dasharray: 4; stroke: #000000" x="4" y="26" width="240" height="122"/>
  </g>
  <g>
    <rect style="fill: #ffffff" x="248" y="26" width="24" height="122"/>
    <rect style="fill: none; fill-opacity:0; stroke-width: 0.4; stroke-dasharray: 4; stroke: #000000" x="248" y="26" width="24" height="122"/>
  </g>
  <g>
    <rect style="fill: #c7ffc7" x="80" y="120" width="32" height="24"/>
    <rect style="fill: none; fill-opacity:0; stroke-width: 0.4; stroke: #000000" x="80" y="120" width="32" height="24"/>
  </g>
  <g>
    <rect style="fill: #c7ffc7" x="52" y="30" width="40" height="82"/>
    <rect style="fill: none; fill-opacity:0; stroke-width: 0.4; stroke: #000000" x="52" y="30" width="40" height="82"/>
  </g>
  <g>
    <rect style="fill: #c7ffc7" x="8" y="66" width="28" height="24"/>
    <rect style="fill: none; fill-opacity:0; stroke-width: 0.4; stroke: #000000" x="8" y="66" width="28" height="24"/>
  </g>
  <g>
    <rect style="fill: #c7ffc7" x="108" y="30" width="28" height="24"/>
    <rect style="fill: none; fill-opacity:0; stroke-width: 0.4; stroke: #000000" x="108" y="30" width="28" height="24"/>
  </g>
  <g>
    <rect style="fill: #c7ffc7" x="120" y="66" width="28" height="24"/>
    <rect style="fill: none; fill-opacity:0; stroke-width: 0.4; stroke: #000000" x="120" y="66" width="28" height="24"/>
  </g>
  <g>
    <rect style="fill: #ffffc7" x="196" y="30" width="28" height="114"/>
    <rect style="fill: none; fill-opacity:0; stroke-width: 0.4; stroke: #000000" x="196" y="30" width="28" height="114"/>
  </g>
  <g>
    <rect style="fill: #ffc7d1" x="154" y="30" width="28" height="24"/>
    <rect style="fill: none; fill-opacity:0; stroke-width: 0.4; stroke: #000000" x="154" y="30" width="28" height="24"/>
  </g>
  <g>
    <rect style="fill: #ffffc7" x="240" y="30" width="12" height="114"/>
    <rect style="fill: none; fill-opacity:0; stroke-width: 0.4; stroke: #000000" x="240" y="30" width="12" height="114"/>
  </g>
  <g>
    <rect style="fill: #c7ffc7" x="8" y="30" width="28" height="24"/>
    <rect style="fill: none; fill-opacity:0; stroke-width: 0.4; stroke: #000000" x="8" y="30" width="28" height="24"/>
  </g>
  <g>
    <rect style="fill: #c7ffc7" x="140" y="154" width="48" height="38"/>
    <rect style="fill: none; fill-opacity:0; stroke-width: 0.4; stroke: #000000" x="140" y="154" width="48" height="38"/>
  </g>
  <g>
    <rect style="fill: #ffffc7" x="60" y="130" width="12" height="8"/>
    <rect style="fill: none; fill-opacity:0; stroke-width: 0.4; stroke: #000000" x="60" y="130" width="12" height="8"/>
  </g>
  <g>
    <rect style="fill: #ffffc7" x="8" y="100" width="28" height="12.0581"/>
    <rect style="fill: none; fill-opacity:0; stroke-width: 0.4; stroke: #000000" x="8" y="100" width="28" height="12.0581"/>
  </g>
  <g>
    <rect style="fill: #c7ffc7" x="50" y="154" width="32" height="26"/>
    <rect style="fill: none; fill-opacity:0; stroke-width: 0.4; stroke: #000000" x="50" y="154" width="32" height="26"/>
  </g>
  <g>
    <rect style="fill: #c7ffc7" x="6" y="154" width="32" height="26"/>
    <rect style="fill: none; fill-opacity:0; stroke-width: 0.4; stroke: #000000" x="6" y="154" width="32" height="26"/>
  </g>
  <g>
    <rect style="fill: #ffffc7" x="146" y="156" width="16" height="10"/>
    <rect style="fill: none; fill-opacity:0; stroke-width: 0.4; stroke: #000000" x="146" y="156" width="16" height="10"/>
  </g>
  <g>
    <rect style="fill: #ffffc7" x="146" y="168" width="16" height="10"/>
    <rect style="fill: none; fill-opacity:0; stroke-width: 0.4; stroke: #000000" x="146" y="168" width="16" height="10"/>
  </g>
  <g>
    <rect style="fill: #ffffc7" x="146" y="180" width="16" height="10"/>
    <rect style="fill: none; fill-opacity:0; stroke-width: 0.4; stroke: #000000" x="146" y="180" width="16" height="10"/>
  </g>
  <g>
    <rect style="fill: #ffffc7" x="124" y="130" width="16" height="10"/>
    <rect style="fill: none; fill-opacity:0; stroke-width: 0.4; stroke: #000000" x="124" y="130" width="16" height="10"/>
  </g>
  <text font-size="7.90222" style="fill: #000000;text-anchor:middle;font-family:CMU Serif;font-style:normal;font-weight:normal" x="124" y="23.53">
    <tspan x="124" y="23.53">64-Channel Data Acquisition and Stimulation Board</tspan>
  </text>
  <text font-size="6.77333" style="fill: #000000;text-anchor:middle;font-family:CMU Serif;font-style:normal;font-weight:normal" x="72" y="73.3">
    <tspan x="72" y="73.3">FPGA</tspan>
  </text>
  <text font-size="6.77333" style="fill: #000000;text-anchor:middle;font-family:CMU Serif;font-style:normal;font-weight:normal" x="96" y="129.967">
    <tspan x="96" y="129.967">USB</tspan>
    <tspan x="96" y="138.433">Interface</tspan>
  </text>
  <text font-size="6.77333" style="fill: #000000;text-anchor:middle;font-family:CMU Serif;font-style:normal;font-weight:normal" x="22" y="76.0667">
    <tspan x="22" y="76.0667">Config</tspan>
    <tspan x="22" y="84.5333">Flash</tspan>
  </text>
  <text font-size="6.77333" style="fill: #000000;text-anchor:middle;font-family:CMU Serif;font-style:normal;font-weight:normal" x="122" y="40.0667">
    <tspan x="122" y="40.0667">DAC</tspan>
    <tspan x="122" y="48.5333">x8</tspan>
  </text>
  <text font-size="6.77333" style="fill: #000000;text-anchor:middle;font-family:CMU Serif;font-style:normal;font-weight:normal" x="134" y="76.0667">
    <tspan x="134" y="76.0667">ADC</tspan>
    <tspan x="134" y="84.5333">x8</tspan>
  </text>
  <text font-size="6.77333" style="fill: #000000;text-anchor:middle;font-family:CMU Serif;font-style:normal;font-weight:normal" x="210" y="85.0667">
    <tspan x="210" y="85.0667">PreAmp</tspan>
    <tspan x="210" y="93.5333">x64</tspan>
  </text>
  <text font-size="6.77333" style="fill: #000000;text-anchor:middle;font-family:CMU Serif;font-style:normal;font-weight:normal" x="168" y="40.0667">
    <tspan x="168" y="40.0667">S-E Out</tspan>
    <tspan x="168" y="48.5333">Amp x64</tspan>
  </text>
  <text font-size="6.77333" style="fill: #000000;text-anchor:middle;font-family:CMU Serif;font-style:normal;font-weight:normal" x="22" y="44.3">
    <tspan x="22" y="44.3">DRAM</tspan>
  </text>
  <text font-size="6.77333" style="fill: #000000;text-anchor:middle;font-family:CMU Serif;font-style:normal;font-weight:normal" x="173.077" y="175.3">
    <tspan x="173.077" y="175.3">PC</tspan>
  </text>
  <text font-size="12.8" style="fill: #000000;text-anchor:start;font-family:CMU Serif;font-style:normal;font-weight:normal" x="234" y="48">
    <tspan x="234" y="48"></tspan>
  </text>
  <text font-size="6.77333" style="fill: #000000;text-anchor:middle;font-family:CMU Serif;font-style:normal;font-weight:normal" x="246" y="38.5">
    <tspan x="246" y="38.5">M</tspan>
    <tspan x="246" y="46.9667">E</tspan>
    <tspan x="246" y="55.4333">A</tspan>
    <tspan x="246" y="63.9"></tspan>
    <tspan x="246" y="72.3667">C</tspan>
    <tspan x="246" y="80.8333">o</tspan>
    <tspan x="246" y="89.3">n</tspan>
    <tspan x="246" y="97.7667">n</tspan>
    <tspan x="246" y="106.233">e</tspan>
    <tspan x="246" y="114.7">c</tspan>
    <tspan x="246" y="123.167">t</tspan>
    <tspan x="246" y="131.633">o</tspan>
    <tspan x="246" y="140.1">r</tspan>
  </text>
  <text font-size="7.90222" style="fill: #000000;text-anchor:middle;font-family:CMU Serif;font-style:normal;font-weight:normal" x="260" y="24">
    <tspan x="260" y="24">MEA</tspan>
  </text>
  <text font-size="6.77333" style="fill: #000000;text-anchor:middle;font-family:CMU Serif;font-style:normal;font-weight:normal" x="22" y="108.329">
    <tspan x="22" y="108.329">JTAG</tspan>
  </text>
  <text font-size="6.77333" style="fill: #000000;text-anchor:middle;font-family:CMU Serif;font-style:normal;font-weight:normal" x="66" y="160.833">
    <tspan x="66" y="160.833">USB</tspan>
    <tspan x="66" y="169.3">to UART</tspan>
    <tspan x="66" y="177.767">Cable</tspan>
  </text>
  <text font-size="6.77333" style="fill: #000000;text-anchor:middle;font-family:CMU Serif;font-style:normal;font-weight:normal" x="22" y="160.833">
    <tspan x="22" y="160.833">JTAG</tspan>
    <tspan x="22" y="169.3">Prgm</tspan>
    <tspan x="22" y="177.767">Cable</tspan>
  </text>
  <text font-size="6.77333" style="fill: #000000;text-anchor:middle;font-family:CMU Serif;font-style:normal;font-weight:normal" x="154" y="163.3">
    <tspan x="154" y="163.3">USB</tspan>
  </text>
  <text font-size="6.77333" style="fill: #000000;text-anchor:middle;font-family:CMU Serif;font-style:normal;font-weight:normal" x="154" y="175.2">
    <tspan x="154" y="175.2">USB</tspan>
  </text>
  <text font-size="6.77333" style="fill: #000000;text-anchor:middle;font-family:CMU Serif;font-style:normal;font-weight:normal" x="154" y="187.2">
    <tspan x="154" y="187.2">USB</tspan>
  </text>
  <text font-size="6.77333" style="fill: #000000;text-anchor:middle;font-family:CMU Serif;font-style:normal;font-weight:normal" x="132" y="137.3">
    <tspan x="132" y="137.3">USB</tspan>
  </text>
  <g>
    <line style="fill: none; fill-opacity:0; stroke-width: 0.4; stroke: #000000" x1="85.2" y1="173" x2="142.8" y2="173"/>
    <polygon style="fill: #000000" points="85.2,171.5 82.2,173 85.2,174.5 "/>
    <polygon style="fill: none; fill-opacity:0; stroke-width: 0.4; stroke: #000000" points="85.2,171.5 82.2,173 85.2,174.5 "/>
    <polygon style="fill: #000000" points="142.8,174.5 145.8,173 142.8,171.5 "/>
    <polygon style="fill: none; fill-opacity:0; stroke-width: 0.4; stroke: #000000" points="142.8,174.5 145.8,173 142.8,171.5 "/>
  </g>
  <g>
    <polyline style="fill: none; fill-opacity:0; stroke-width: 0.4; stroke: #000000" points="132,143.2 132,161 142.8,161 "/>
    <polygon style="fill: #000000" points="133.5,143.2 132,140.2 130.5,143.2 "/>
    <polygon style="fill: none; fill-opacity:0; stroke-width: 0.4; stroke: #000000" points="133.5,143.2 132,140.2 130.5,143.2 "/>
    <polygon style="fill: #000000" points="142.8,162.5 145.8,161 142.8,159.5 "/>
    <polygon style="fill: none; fill-opacity:0; stroke-width: 0.4; stroke: #000000" points="142.8,162.5 145.8,161 142.8,159.5 "/>
  </g>
  <g>
    <polyline style="fill: none; fill-opacity:0; stroke-width: 0.4; stroke: #000000" points="22,183.2 22,185 142.8,185 "/>
    <polygon style="fill: #000000" points="23.5,183.2 22,180.2 20.5,183.2 "/>
    <polygon style="fill: none; fill-opacity:0; stroke-width: 0.4; stroke: #000000" points="23.5,183.2 22,180.2 20.5,183.2 "/>
    <polygon style="fill: #000000" points="142.8,186.5 145.8,185 142.8,183.5 "/>
    <polygon style="fill: none; fill-opacity:0; stroke-width: 0.4; stroke: #000000" points="142.8,186.5 145.8,185 142.8,183.5 "/>
  </g>
  <g>
    <line style="fill: none; fill-opacity:0; stroke-width: 0.4; stroke: #000000" x1="22" y1="115.258" x2="22" y2="150.8"/>
    <polygon style="fill: #000000" points="23.5,115.258 22,112.258 20.5,115.258 "/>
    <polygon style="fill: none; fill-opacity:0; stroke-width: 0.4; stroke: #000000" points="23.5,115.258 22,112.258 20.5,115.258 "/>
    <polygon style="fill: #000000" points="20.5,150.8 22,153.8 23.5,150.8 "/>
    <polygon style="fill: none; fill-opacity:0; stroke-width: 0.4; stroke: #000000" points="20.5,150.8 22,153.8 23.5,150.8 "/>
  </g>
  <g>
    <line style="fill: none; fill-opacity:0; stroke-width: 0.4; stroke: #000000" x1="32" y1="100" x2="32" y2="93.2"/>
    <polygon style="fill: #000000" points="33.5,93.2 32,90.2 30.5,93.2 "/>
    <polygon style="fill: none; fill-opacity:0; stroke-width: 0.4; stroke: #000000" points="33.5,93.2 32,90.2 30.5,93.2 "/>
  </g>
  <g>
    <line style="fill: none; fill-opacity:0; stroke-width: 0.4; stroke: #000000" x1="36" y1="86" x2="48.8" y2="86"/>
    <polygon style="fill: #000000" points="48.8,87.5 51.8,86 48.8,84.5 "/>
    <polygon style="fill: none; fill-opacity:0; stroke-width: 0.4; stroke: #000000" points="48.8,87.5 51.8,86 48.8,84.5 "/>
  </g>
  <g>
    <line style="fill: none; fill-opacity:0; stroke-width: 0.4; stroke: #000000" x1="52" y1="106" x2="39.2" y2="106.023"/>
    <polygon style="fill: #000000" points="39.1973,104.523 36.2,106.029 39.2027,107.523 "/>
    <polygon style="fill: none; fill-opacity:0; stroke-width: 0.4; stroke: #000000" points="39.1973,104.523 36.2,106.029 39.2027,107.523 "/>
  </g>
  <g>
    <line style="fill: none; fill-opacity:0; stroke-width: 0.4; stroke: #000000" x1="66" y1="141.2" x2="66" y2="150.8"/>
    <polygon style="fill: #000000" points="67.5,141.2 66,138.2 64.5,141.2 "/>
    <polygon style="fill: none; fill-opacity:0; stroke-width: 0.4; stroke: #000000" points="67.5,141.2 66,138.2 64.5,141.2 "/>
    <polygon style="fill: #000000" points="64.5,150.8 66,153.8 67.5,150.8 "/>
    <polygon style="fill: none; fill-opacity:0; stroke-width: 0.4; stroke: #000000" points="64.5,150.8 66,153.8 67.5,150.8 "/>
  </g>
  <g>
    <line style="fill: none; fill-opacity:0; stroke-width: 0.4; stroke: #000000" x1="66" y1="115.2" x2="66" y2="126.8"/>
    <polygon style="fill: #000000" points="67.5,115.2 66,112.2 64.5,115.2 "/>
    <polygon style="fill: none; fill-opacity:0; stroke-width: 0.4; stroke: #000000" points="67.5,115.2 66,112.2 64.5,115.2 "/>
    <polygon style="fill: #000000" points="64.5,126.8 66,129.8 67.5,126.8 "/>
    <polygon style="fill: none; fill-opacity:0; stroke-width: 0.4; stroke: #000000" points="64.5,126.8 66,129.8 67.5,126.8 "/>
  </g>
  <g>
    <line style="fill: none; fill-opacity:0; stroke-width: 0.4; stroke: #000000" x1="39.2" y1="72" x2="48.8" y2="72"/>
    <polygon style="fill: #000000" points="39.2,70.5 36.2,72 39.2,73.5 "/>
    <polygon style="fill: none; fill-opacity:0; stroke-width: 0.4; stroke: #000000" points="39.2,70.5 36.2,72 39.2,73.5 "/>
    <polygon style="fill: #000000" points="48.8,73.5 51.8,72 48.8,70.5 "/>
    <polygon style="fill: none; fill-opacity:0; stroke-width: 0.4; stroke: #000000" points="48.8,73.5 51.8,72 48.8,70.5 "/>
  </g>
  <g>
    <line style="fill: none; fill-opacity:0; stroke-width: 0.4; stroke: #000000" x1="39.2" y1="42" x2="48.8" y2="42"/>
    <polygon style="fill: #000000" points="39.2,40.5 36.2,42 39.2,43.5 "/>
    <polygon style="fill: none; fill-opacity:0; stroke-width: 0.4; stroke: #000000" points="39.2,40.5 36.2,42 39.2,43.5 "/>
    <polygon style="fill: #000000" points="48.8,43.5 51.8,42 48.8,40.5 "/>
    <polygon style="fill: none; fill-opacity:0; stroke-width: 0.4; stroke: #000000" points="48.8,43.5 51.8,42 48.8,40.5 "/>
  </g>
  <g>
    <line style="fill: none; fill-opacity:0; stroke-width: 0.4; stroke: #000000" x1="92" y1="42" x2="104.8" y2="42"/>
    <polygon style="fill: #000000" points="104.8,43.5 107.8,42 104.8,40.5 "/>
    <polygon style="fill: none; fill-opacity:0; stroke-width: 0.4; stroke: #000000" points="104.8,43.5 107.8,42 104.8,40.5 "/>
  </g>
  <g>
    <line style="fill: none; fill-opacity:0; stroke-width: 0.4; stroke: #000000" x1="116.8" y1="78" x2="95.2" y2="78"/>
    <polygon style="fill: #000000" points="116.8,79.5 119.8,78 116.8,76.5 "/>
    <polygon style="fill: none; fill-opacity:0; stroke-width: 0.4; stroke: #000000" points="116.8,79.5 119.8,78 116.8,76.5 "/>
    <polygon style="fill: #000000" points="95.2,76.5 92.2,78 95.2,79.5 "/>
    <polygon style="fill: none; fill-opacity:0; stroke-width: 0.4; stroke: #000000" points="95.2,76.5 92.2,78 95.2,79.5 "/>
  </g>
  <g>
    <line style="fill: none; fill-opacity:0; stroke-width: 0.4; stroke: #000000" x1="92" y1="98" x2="192.8" y2="98"/>
    <polygon style="fill: #000000" points="192.8,99.5 195.8,98 192.8,96.5 "/>
    <polygon style="fill: none; fill-opacity:0; stroke-width: 0.4; stroke: #000000" points="192.8,99.5 195.8,98 192.8,96.5 "/>
  </g>
  <g>
    <polyline style="fill: none; fill-opacity:0; stroke-width: 0.4; stroke: #000000" points="115.2,124 132,124 132,126.8 "/>
    <polygon style="fill: #000000" points="115.2,122.5 112.2,124 115.2,125.5 "/>
    <polygon style="fill: none; fill-opacity:0; stroke-width: 0.4; stroke: #000000" points="115.2,122.5 112.2,124 115.2,125.5 "/>
    <polygon style="fill: #000000" points="130.5,126.8 132,129.8 133.5,126.8 "/>
    <polygon style="fill: none; fill-opacity:0; stroke-width: 0.4; stroke: #000000" points="130.5,126.8 132,129.8 133.5,126.8 "/>
  </g>
  <g>
    <polyline style="fill: none; fill-opacity:0; stroke-width: 0.4; stroke: #000000" points="95.2,108 104,108 104,116.8 "/>
    <polygon style="fill: #000000" points="95.2,106.5 92.2,108 95.2,109.5 "/>
    <polygon style="fill: none; fill-opacity:0; stroke-width: 0.4; stroke: #000000" points="95.2,106.5 92.2,108 95.2,109.5 "/>
    <polygon style="fill: #000000" points="102.5,116.8 104,119.8 105.5,116.8 "/>
    <polygon style="fill: none; fill-opacity:0; stroke-width: 0.4; stroke: #000000" points="102.5,116.8 104,119.8 105.5,116.8 "/>
  </g>
  <g>
    <line style="fill: none; fill-opacity:0; stroke-width: 0.4; stroke: #000000" x1="136" y1="42" x2="150.8" y2="42"/>
    <polygon style="fill: #000000" points="150.8,43.5 153.8,42 150.8,40.5 "/>
    <polygon style="fill: none; fill-opacity:0; stroke-width: 0.4; stroke: #000000" points="150.8,43.5 153.8,42 150.8,40.5 "/>
  </g>
  <g>
    <line style="fill: none; fill-opacity:0; stroke-width: 0.4; stroke: #000000" x1="182" y1="42" x2="192.8" y2="42"/>
    <polygon style="fill: #000000" points="192.8,43.5 195.8,42 192.8,40.5 "/>
    <polygon style="fill: none; fill-opacity:0; stroke-width: 0.4; stroke: #000000" points="192.8,43.5 195.8,42 192.8,40.5 "/>
  </g>
  <g>
    <line style="fill: none; fill-opacity:0; stroke-width: 0.4; stroke: #000000" x1="227.2" y1="78" x2="236.8" y2="78"/>
    <polygon style="fill: #000000" points="227.2,76.5 224.2,78 227.2,79.5 "/>
    <polygon style="fill: none; fill-opacity:0; stroke-width: 0.4; stroke: #000000" points="227.2,76.5 224.2,78 227.2,79.5 "/>
    <polygon style="fill: #000000" points="236.8,79.5 239.8,78 236.8,76.5 "/>
    <polygon style="fill: none; fill-opacity:0; stroke-width: 0.4; stroke: #000000" points="236.8,79.5 239.8,78 236.8,76.5 "/>
  </g>
  <text font-size="4.51556" style="fill: #000000;text-anchor:middle;font-family:CMU Serif;font-style:normal;font-weight:normal" x="124" y="120.635">
    <tspan x="124" y="120.635">2</tspan>
  </text>
  <line style="fill: none; fill-opacity:0; stroke-width: 0.4; stroke: #000000" x1="122" y1="126" x2="126" y2="122"/>
  <text font-size="4.51556" style="fill: #000000;text-anchor:middle;font-family:CMU Serif;font-style:normal;font-weight:normal" x="136" y="157.635">
    <tspan x="136" y="157.635">2</tspan>
  </text>
  <line style="fill: none; fill-opacity:0; stroke-width: 0.4; stroke: #000000" x1="134" y1="163" x2="138" y2="159"/>
  <text font-size="4.51556" style="fill: #000000;text-anchor:middle;font-family:CMU Serif;font-style:normal;font-weight:normal" x="114" y="169.635">
    <tspan x="114" y="169.635">2</tspan>
  </text>
  <line style="fill: none; fill-opacity:0; stroke-width: 0.4; stroke: #000000" x1="112" y1="175" x2="116" y2="171"/>
  <text font-size="4.51556" style="fill: #000000;text-anchor:middle;font-family:CMU Serif;font-style:normal;font-weight:normal" x="114" y="181.635">
    <tspan x="114" y="181.635">2</tspan>
  </text>
  <line style="fill: none; fill-opacity:0; stroke-width: 0.4; stroke: #000000" x1="112" y1="187" x2="116" y2="183"/>
  <text font-size="4.51556" style="fill: #000000;text-anchor:middle;font-family:CMU Serif;font-style:normal;font-weight:normal" x="100" y="104.635">
    <tspan x="100" y="104.635">X</tspan>
  </text>
  <line style="fill: none; fill-opacity:0; stroke-width: 0.4; stroke: #000000" x1="98" y1="110" x2="102" y2="106"/>
  <text font-size="4.51556" style="fill: #000000;text-anchor:middle;font-family:CMU Serif;font-style:normal;font-weight:normal" x="158" y="94.9">
    <tspan x="158" y="94.9">256</tspan>
  </text>
  <line style="fill: none; fill-opacity:0; stroke-width: 0.4; stroke: #000000" x1="156" y1="100" x2="160" y2="96"/>
  <text font-size="4.51556" style="fill: #000000;text-anchor:middle;font-family:CMU Serif;font-style:normal;font-weight:normal" x="104" y="74.9">
    <tspan x="104" y="74.9">112</tspan>
  </text>
  <line style="fill: none; fill-opacity:0; stroke-width: 0.4; stroke: #000000" x1="102" y1="80" x2="106" y2="76"/>
  <text font-size="4.51556" style="fill: #000000;text-anchor:middle;font-family:CMU Serif;font-style:normal;font-weight:normal" x="99" y="38.9">
    <tspan x="99" y="38.9">24</tspan>
  </text>
  <line style="fill: none; fill-opacity:0; stroke-width: 0.4; stroke: #000000" x1="97" y1="44" x2="101" y2="40"/>
  <text font-size="4.51556" style="fill: #000000;text-anchor:middle;font-family:CMU Serif;font-style:normal;font-weight:normal" x="44" y="38.635">
    <tspan x="44" y="38.635">48</tspan>
  </text>
  <line style="fill: none; fill-opacity:0; stroke-width: 0.4; stroke: #000000" x1="42" y1="44" x2="46" y2="40"/>
  <text font-size="4.51556" style="fill: #000000;text-anchor:middle;font-family:CMU Serif;font-style:normal;font-weight:normal" x="44" y="68.9">
    <tspan x="44" y="68.9">5</tspan>
  </text>
  <line style="fill: none; fill-opacity:0; stroke-width: 0.4; stroke: #000000" x1="42" y1="74" x2="46" y2="70"/>
  <text font-size="4.51556" style="fill: #000000;text-anchor:middle;font-family:CMU Serif;font-style:normal;font-weight:normal" x="44" y="82.9">
    <tspan x="44" y="82.9">JTAG</tspan>
  </text>
  <line style="fill: none; fill-opacity:0; stroke-width: 0.4; stroke: #000000" x1="42" y1="88" x2="46" y2="84"/>
  <text font-size="4.51556" style="fill: #000000;text-anchor:middle;font-family:CMU Serif;font-style:normal;font-weight:normal" x="44" y="102.9">
    <tspan x="44" y="102.9">JTAG</tspan>
  </text>
  <line style="fill: none; fill-opacity:0; stroke-width: 0.4; stroke: #000000" x1="42" y1="108" x2="46" y2="104"/>
  <text font-size="4.51556" style="fill: #000000;text-anchor:end;font-family:CMU Serif;font-style:normal;font-weight:normal" x="30" y="96.635">
    <tspan x="30" y="96.635">JTAG</tspan>
  </text>
  <line style="fill: none; fill-opacity:0; stroke-width: 0.4; stroke: #000000" x1="30" y1="98" x2="34" y2="94"/>
  <text font-size="4.51556" style="fill: #000000;text-anchor:middle;font-family:CMU Serif;font-style:normal;font-weight:normal" x="144" y="38.635">
    <tspan x="144" y="38.635">64</tspan>
  </text>
  <line style="fill: none; fill-opacity:0; stroke-width: 0.4; stroke: #000000" x1="142" y1="44" x2="146" y2="40"/>
  <text font-size="4.51556" style="fill: #000000;text-anchor:middle;font-family:CMU Serif;font-style:normal;font-weight:normal" x="188" y="38.635">
    <tspan x="188" y="38.635">64</tspan>
  </text>
  <line style="fill: none; fill-opacity:0; stroke-width: 0.4; stroke: #000000" x1="186" y1="44" x2="190" y2="40"/>
  <text font-size="4.51556" style="fill: #000000;text-anchor:middle;font-family:CMU Serif;font-style:normal;font-weight:normal" x="232" y="74.9">
    <tspan x="232" y="74.9">64</tspan>
  </text>
  <line style="fill: none; fill-opacity:0; stroke-width: 0.4; stroke: #000000" x1="230" y1="80" x2="234" y2="76"/>
  <g>
    <line style="fill: none; fill-opacity:0; stroke-width: 0.4; stroke: #000000" x1="151.2" y1="78" x2="196" y2="78"/>
    <polygon style="fill: #000000" points="151.2,76.5 148.2,78 151.2,79.5 "/>
    <polygon style="fill: none; fill-opacity:0; stroke-width: 0.4; stroke: #000000" points="151.2,76.5 148.2,78 151.2,79.5 "/>
  </g>
  <text font-size="4.51556" style="fill: #000000;text-anchor:middle;font-family:CMU Serif;font-style:normal;font-weight:normal" x="172" y="74.9">
    <tspan x="172" y="74.9">64</tspan>
  </text>
  <line style="fill: none; fill-opacity:0; stroke-width: 0.4; stroke: #000000" x1="170" y1="80" x2="174" y2="76"/>
  <text font-size="4.51556" style="fill: #000000;text-anchor:end;font-family:CMU Serif;font-style:normal;font-weight:normal" x="18" y="132.635">
    <tspan x="18" y="132.635">4</tspan>
  </text>
  <line style="fill: none; fill-opacity:0; stroke-width: 0.4; stroke: #000000" x1="20" y1="134" x2="24" y2="130"/>
  <text font-size="4.51556" style="fill: #000000;text-anchor:end;font-family:CMU Serif;font-style:normal;font-weight:normal" x="62" y="144.635">
    <tspan x="62" y="144.635">2</tspan>
  </text>
  <line style="fill: none; fill-opacity:0; stroke-width: 0.4; stroke: #000000" x1="64" y1="146" x2="68" y2="142"/>
  <text font-size="4.51556" style="fill: #000000;text-anchor:end;font-family:CMU Serif;font-style:normal;font-weight:normal" x="62" y="121.635">
    <tspan x="62" y="121.635">2</tspan>
  </text>
  <line style="fill: none; fill-opacity:0; stroke-width: 0.4; stroke: #000000" x1="64" y1="123" x2="68" y2="119"/>
  <g>
    <rect style="fill: #c7ffc7" x="214" y="154" width="8" height="8"/>
    <rect style="fill: none; fill-opacity:0; stroke-width: 0.4; stroke: #000000" x="214" y="154" width="8" height="8"/>
  </g>
  <text font-size="4.51556" style="fill: #000000;text-anchor:start;font-family:CMU Serif;font-style:normal;font-weight:normal" x="224" y="159.55">
    <tspan x="224" y="159.55">Digital Part(s)</tspan>
  </text>
  <g>
    <rect style="fill: #ffc7d1" x="214" y="169" width="8" height="8"/>
    <rect style="fill: none; fill-opacity:0; stroke-width: 0.4; stroke: #000000" x="214" y="169" width="8" height="8"/>
  </g>
  <text font-size="4.51556" style="fill: #000000;text-anchor:start;font-family:CMU Serif;font-style:normal;font-weight:normal" x="224" y="174.55">
    <tspan x="224" y="174.55">Analog Part(s)</tspan>
  </text>
  <g>
    <rect style="fill: #ffffc7" x="214" y="184" width="8" height="8"/>
    <rect style="fill: none; fill-opacity:0; stroke-width: 0.4; stroke: #000000" x="214" y="184" width="8" height="8"/>
  </g>
  <text font-size="4.51556" style="fill: #000000;text-anchor:start;font-family:CMU Serif;font-style:normal;font-weight:normal" x="224" y="189.55">
    <tspan x="224" y="189.55">Connector(s)</tspan>
  </text>
</svg>
