<?xml version="1.0" encoding="UTF-8" standalone="no"?>
<svg
   xmlns:dc="http://purl.org/dc/elements/1.1/"
   xmlns:cc="http://creativecommons.org/ns#"
   xmlns:rdf="http://www.w3.org/1999/02/22-rdf-syntax-ns#"
   xmlns:svg="http://www.w3.org/2000/svg"
   xmlns="http://www.w3.org/2000/svg"
   xmlns:sodipodi="http://sodipodi.sourceforge.net/DTD/sodipodi-0.dtd"
   xmlns:inkscape="http://www.inkscape.org/namespaces/inkscape"
   width="676.13367"
   height="342.93298"
   viewBox="1 10 370.59243 181.95261"
   id="svg3919"
   version="1.1"
   inkscape:version="0.48.4 r9939"
   sodipodi:docname="System.svg">
  <metadata
     id="metadata4591">
    <rdf:RDF>
      <cc:Work
         rdf:about="">
        <dc:format>image/svg+xml</dc:format>
        <dc:type
           rdf:resource="http://purl.org/dc/dcmitype/StillImage" />
        <dc:title></dc:title>
      </cc:Work>
    </rdf:RDF>
  </metadata>
  <defs
     id="defs4589" />
  <sodipodi:namedview
     pagecolor="#ffffff"
     bordercolor="#666666"
     borderopacity="1"
     objecttolerance="10"
     gridtolerance="10"
     guidetolerance="10"
     inkscape:pageopacity="0"
     inkscape:pageshadow="2"
     inkscape:window-width="640"
     inkscape:window-height="480"
     id="namedview4587"
     showgrid="false"
     fit-margin-top="2"
     fit-margin-right="2"
     fit-margin-bottom="2"
     fit-margin-left="2"
     inkscape:zoom="0.42481872"
     inkscape:cx="337.15459"
     inkscape:cy="173.68256"
     inkscape:window-x="457"
     inkscape:window-y="782"
     inkscape:window-maximized="0"
     inkscape:current-layer="svg3919" />
  <g
     id="g3921"
     transform="translate(0.29621055,-4.338214)">
    <rect
       style="fill:#ffffff"
       x="2"
       y="20"
       width="136"
       height="146"
       id="rect3923" />
    <rect
       style="fill:none;stroke:#000000;stroke-width:0.40000001;stroke-dasharray:4"
       x="2"
       y="20"
       width="136"
       height="146"
       id="rect3925" />
  </g>
  <g
     id="g3927"
     transform="translate(0.29621055,-4.338214)">
    <rect
       style="fill:#ffffff"
       x="142"
       y="20"
       width="136"
       height="146"
       id="rect3929" />
    <rect
       style="fill:none;stroke:#000000;stroke-width:0.40000001;stroke-dasharray:4"
       x="142"
       y="20"
       width="136"
       height="146"
       id="rect3931" />
  </g>
  <g
     id="g3933"
     transform="translate(0.29621055,-4.338214)">
    <rect
       style="fill:#ffffff"
       x="298"
       y="20"
       width="72"
       height="146"
       id="rect3935" />
    <rect
       style="fill:none;stroke:#000000;stroke-width:0.40000001;stroke-dasharray:4"
       x="298"
       y="20"
       width="72"
       height="146"
       id="rect3937" />
  </g>
  <g
     id="g3939"
     transform="translate(0.29621055,-4.338214)">
    <rect
       style="fill:#ffffc7"
       x="134"
       y="26"
       width="12"
       height="132"
       id="rect3941" />
    <rect
       style="fill:none;stroke:#000000;stroke-width:0.40000001"
       x="134"
       y="26"
       width="12"
       height="132"
       id="rect3943" />
  </g>
  <g
     id="g3945"
     transform="translate(0.29621055,-4.338214)">
    <rect
       style="fill:#c7ffc7"
       x="46"
       y="132"
       width="32"
       height="22"
       id="rect3947" />
    <rect
       style="fill:none;stroke:#000000;stroke-width:0.40000001"
       x="46"
       y="132"
       width="32"
       height="22"
       id="rect3949" />
  </g>
  <g
     id="g3951"
     transform="translate(0.29621055,-4.338214)">
    <rect
       style="fill:#c7ffc7"
       x="12"
       y="26"
       width="60"
       height="92"
       id="rect3953" />
    <rect
       style="fill:none;stroke:#000000;stroke-width:0.40000001"
       x="12"
       y="26"
       width="60"
       height="92"
       id="rect3955" />
  </g>
  <g
     id="g3957"
     transform="translate(0.29621055,-4.338214)">
    <rect
       style="fill:#c7ffc7"
       x="84"
       y="126"
       width="34"
       height="32"
       id="rect3959" />
    <rect
       style="fill:none;stroke:#000000;stroke-width:0.40000001"
       x="84"
       y="126"
       width="34"
       height="32"
       id="rect3961" />
  </g>
  <g
     id="g3963"
     transform="translate(0.29621055,-4.338214)">
    <rect
       style="fill:#c7ffc7"
       x="158"
       y="126"
       width="36"
       height="32"
       id="rect3965" />
    <rect
       style="fill:none;stroke:#000000;stroke-width:0.40000001"
       x="158"
       y="126"
       width="36"
       height="32"
       id="rect3967" />
  </g>
  <g
     id="g3969"
     transform="translate(0.29621055,-4.338214)">
    <rect
       style="fill:#c7ffc7"
       x="158"
       y="26"
       width="36"
       height="32"
       id="rect3971" />
    <rect
       style="fill:none;stroke:#000000;stroke-width:0.40000001"
       x="158"
       y="26"
       width="36"
       height="32"
       id="rect3973" />
  </g>
  <g
     id="g3975"
     transform="translate(0.29621055,-4.338214)">
    <rect
       style="fill:#c7ffc7"
       x="158"
       y="78"
       width="36"
       height="32"
       id="rect3977" />
    <rect
       style="fill:none;stroke:#000000;stroke-width:0.40000001"
       x="158"
       y="78"
       width="36"
       height="32"
       id="rect3979" />
  </g>
  <g
     id="g3981"
     transform="translate(0.29621055,-4.338214)">
    <rect
       style="fill:#ffffc7"
       x="210"
       y="78"
       width="36"
       height="80"
       id="rect3983" />
    <rect
       style="fill:none;stroke:#000000;stroke-width:0.40000001"
       x="210"
       y="78"
       width="36"
       height="80"
       id="rect3985" />
  </g>
  <g
     id="g3987"
     transform="translate(0.29621055,-4.338214)">
    <rect
       style="fill:#ffc7d1"
       x="210"
       y="26"
       width="36"
       height="32"
       id="rect3989" />
    <rect
       style="fill:none;stroke:#000000;stroke-width:0.40000001"
       x="210"
       y="26"
       width="36"
       height="32"
       id="rect3991" />
  </g>
  <g
     id="g3993"
     transform="translate(0.29621055,-4.338214)">
    <rect
       style="fill:#ffffc7"
       x="266"
       y="26"
       width="8"
       height="32"
       id="rect3995" />
    <rect
       style="fill:none;stroke:#000000;stroke-width:0.40000001"
       x="266"
       y="26"
       width="8"
       height="32"
       id="rect3997" />
  </g>
  <g
     id="g3999"
     transform="translate(0.29621055,-4.338214)">
    <rect
       style="fill:#ffffc7"
       x="266"
       y="78"
       width="8"
       height="80"
       id="rect4001" />
    <rect
       style="fill:none;stroke:#000000;stroke-width:0.40000001"
       x="266"
       y="78"
       width="8"
       height="80"
       id="rect4003" />
  </g>
  <g
     id="g4005"
     transform="translate(0.29621055,-4.338214)">
    <rect
       style="fill:#c7ffc7"
       x="88"
       y="48"
       width="34"
       height="28"
       id="rect4007" />
    <rect
       style="fill:none;stroke:#000000;stroke-width:0.40000001"
       x="88"
       y="48"
       width="34"
       height="28"
       id="rect4009" />
  </g>
  <g
     id="g4011"
     transform="translate(0.29621055,-4.338214)">
    <rect
       style="fill:#c7ffc7"
       x="6"
       y="132"
       width="32"
       height="22"
       id="rect4013" />
    <rect
       style="fill:none;stroke:#000000;stroke-width:0.40000001"
       x="6"
       y="132"
       width="32"
       height="22"
       id="rect4015" />
  </g>
  <g
     id="g4017"
     transform="translate(0.29621055,-4.338214)">
    <rect
       style="fill:#c7ffc7"
       x="10"
       y="178"
       width="60"
       height="20"
       id="rect4019" />
    <rect
       style="fill:none;stroke:#000000;stroke-width:0.40000001"
       x="10"
       y="178"
       width="60"
       height="20"
       id="rect4021" />
  </g>
  <g
     id="g4023"
     transform="translate(0.29621055,-4.338214)">
    <rect
       style="fill:#ffffc7"
       x="22"
       y="162"
       width="8"
       height="4"
       id="rect4025" />
    <rect
       style="fill:none;stroke:#000000;stroke-width:0.40000001"
       x="22"
       y="162"
       width="8"
       height="4"
       id="rect4027" />
  </g>
  <g
     id="g4029"
     transform="translate(0.29621055,-4.338214)">
    <rect
       style="fill:#ffffc7"
       x="52"
       y="162"
       width="8"
       height="4"
       id="rect4031" />
    <rect
       style="fill:none;stroke:#000000;stroke-width:0.40000001"
       x="52"
       y="162"
       width="8"
       height="4"
       id="rect4033" />
  </g>
  <text
     font-size="7.90222"
     style="font-size:7.90221977px;font-style:normal;font-weight:normal;text-anchor:middle;fill:#000000;font-family:CMU Serif"
     x="70.296211"
     y="13.661786"
     id="text4035">
    <tspan
       x="70.296211"
       y="13.661786"
       id="tspan4037">Real Time System Controller</tspan>
  </text>
  <text
     font-size="7.90222"
     style="font-size:7.90221977px;font-style:normal;font-weight:normal;text-anchor:middle;fill:#000000;font-family:CMU Serif"
     x="210.2962"
     y="13.661786"
     id="text4039">
    <tspan
       x="210.2962"
       y="13.661786"
       id="tspan4041">Electrophysiology Interface</tspan>
  </text>
  <text
     font-size="6.77333"
     style="font-size:6.77333021px;font-style:normal;font-weight:normal;text-anchor:middle;fill:#000000;font-family:CMU Serif"
     x="42.296211"
     y="69.961792"
     id="text4043">
    <tspan
       x="42.296211"
       y="69.961792"
       id="tspan4045">FPGA</tspan>
  </text>
  <text
     font-size="6.77333"
     style="font-size:6.77333021px;font-style:normal;font-weight:normal;text-anchor:middle;fill:#000000;font-family:CMU Serif"
     x="62.296211"
     y="136.72879"
     id="text4047">
    <tspan
       x="62.296211"
       y="136.72879"
       id="tspan4049">JTAG &amp;</tspan>
    <tspan
       x="62.296211"
       y="145.19479"
       id="tspan4051">USB</tspan>
  </text>
  <text
     font-size="6.77333"
     style="font-size:6.77333021px;font-style:normal;font-weight:normal;text-anchor:middle;fill:#000000;font-family:CMU Serif"
     x="101.29621"
     y="135.72879"
     id="text4053">
    <tspan
       x="101.29621"
       y="135.72879"
       id="tspan4055">Config</tspan>
    <tspan
       x="101.29621"
       y="144.19479"
       id="tspan4057">Flash</tspan>
  </text>
  <text
     font-size="6.77333"
     style="font-size:6.77333021px;font-style:normal;font-weight:normal;text-anchor:middle;fill:#000000;font-family:CMU Serif"
     x="176.2962"
     y="39.961784"
     id="text4059">
    <tspan
       x="176.2962"
       y="39.961784"
       id="tspan4061">DAC</tspan>
  </text>
  <text
     font-size="6.77333"
     style="font-size:6.77333021px;font-style:normal;font-weight:normal;text-anchor:middle;fill:#000000;font-family:CMU Serif"
     x="176.2962"
     y="91.961792"
     id="text4063">
    <tspan
       x="176.2962"
       y="91.961792"
       id="tspan4065">ADC</tspan>
  </text>
  <text
     font-size="6.77333"
     style="font-size:6.77333021px;font-style:normal;font-weight:normal;text-anchor:middle;fill:#000000;font-family:CMU Serif"
     x="176.2962"
     y="139.96179"
     id="text4067">
    <tspan
       x="176.2962"
       y="139.96179"
       id="tspan4069">CPLD</tspan>
  </text>
  <text
     font-size="6.77333"
     style="font-size:6.77333021px;font-style:normal;font-weight:normal;text-anchor:middle;fill:#000000;font-family:CMU Serif"
     x="228.2962"
     y="111.72879"
     id="text4071">
    <tspan
       x="228.2962"
       y="111.72879"
       id="tspan4073">PreAmp</tspan>
    <tspan
       x="228.2962"
       y="120.19479"
       id="tspan4075">x8</tspan>
  </text>
  <text
     font-size="6.77333"
     style="font-size:6.77333021px;font-style:normal;font-weight:normal;text-anchor:middle;fill:#000000;font-family:CMU Serif"
     x="228.2962"
     y="35.728485"
     id="text4077">
    <tspan
       x="228.2962"
       y="35.728485"
       id="tspan4079">Diff Out</tspan>
    <tspan
       x="228.2962"
       y="44.195084"
       id="tspan4081">Amp x4</tspan>
  </text>
  <text
     font-size="6.77333"
     style="font-size:6.77333021px;font-style:normal;font-weight:normal;text-anchor:middle;fill:#000000;font-family:CMU Serif"
     x="105.29621"
     y="59.961788"
     id="text4083">
    <tspan
       x="105.29621"
       y="59.961788"
       id="tspan4085">DRAM</tspan>
  </text>
  <text
     font-size="6.77333"
     style="font-size:6.77333021px;font-style:normal;font-weight:normal;text-anchor:middle;fill:#000000;font-family:CMU Serif"
     x="22.296211"
     y="136.72879"
     id="text4087">
    <tspan
       x="22.296211"
       y="136.72879"
       id="tspan4089">TTL to</tspan>
    <tspan
       x="22.296211"
       y="145.19479"
       id="tspan4091">RS232</tspan>
  </text>
  <text
     font-size="6.77333"
     style="font-size:6.77333021px;font-style:normal;font-weight:normal;text-anchor:middle;fill:#000000;font-family:CMU Serif"
     x="40.296211"
     y="185.96179"
     id="text4093">
    <tspan
       x="40.296211"
       y="185.96179"
       id="tspan4095">PC</tspan>
  </text>
  <text
     font-size="7.90222"
     style="font-size:7.90221977px;font-style:normal;font-weight:normal;text-anchor:middle;fill:#000000;font-family:CMU Serif"
     x="334.2962"
     y="13.661786"
     id="text4097">
    <tspan
       x="334.2962"
       y="13.661786"
       id="tspan4099">Biological System</tspan>
  </text>
  <text
     font-size="12.8"
     style="font-size:12.80000019px;font-style:normal;font-weight:normal;text-anchor:start;fill:#000000;font-family:CMU Serif"
     x="234.2962"
     y="43.661785"
     id="text4101">
    <tspan
       x="234.2962"
       y="43.661785"
       id="tspan4103" />
  </text>
  <text
     font-size="6.77333"
     style="font-size:6.77333021px;font-style:normal;font-weight:normal;text-anchor:middle;fill:#000000;font-family:CMU Serif"
     x="336.2962"
     y="87.728493"
     id="text4105">
    <tspan
       x="336.2962"
       y="87.728493"
       id="tspan4107">MEA, Earthworm,</tspan>
    <tspan
       x="336.2962"
       y="96.194786"
       id="tspan4109">Etc.</tspan>
  </text>
  <g
     id="g4111"
     transform="translate(0.29621055,-4.338214)">
    <line
       style="fill:none;stroke:#000000;stroke-width:0.40000001"
       x1="75.199997"
       y1="62"
       x2="84.800003"
       y2="62"
       id="line4113" />
    <polygon
       style="fill:#000000"
       points="75.2,60.5 72.2,62 75.2,63.5 "
       id="polygon4115" />
    <polygon
       style="fill:none;stroke:#000000;stroke-width:0.40000001"
       points="75.2,60.5 72.2,62 75.2,63.5 "
       id="polygon4117" />
    <polygon
       style="fill:#000000"
       points="84.8,63.5 87.8,62 84.8,60.5 "
       id="polygon4119" />
    <polygon
       style="fill:none;stroke:#000000;stroke-width:0.40000001"
       points="84.8,63.5 87.8,62 84.8,60.5 "
       id="polygon4121" />
  </g>
  <text
     font-size="4.51556"
     style="font-size:4.51556015px;font-style:normal;font-weight:normal;text-anchor:middle;fill:#000000;font-family:CMU Serif"
     x="80.296211"
     y="54.296783"
     id="text4123">
    <tspan
       x="80.296211"
       y="54.296783"
       id="tspan4125">48</tspan>
  </text>
  <g
     id="g4127"
     transform="translate(0.29621055,-4.338214)">
    <line
       style="fill:none;stroke:#000000;stroke-width:0.40000001"
       x1="50"
       y1="128.8"
       x2="50"
       y2="121.2"
       id="line4129" />
    <polygon
       style="fill:#000000"
       points="48.5,128.8 50,131.8 51.5,128.8 "
       id="polygon4131" />
    <polygon
       style="fill:none;stroke:#000000;stroke-width:0.40000001"
       points="48.5,128.8 50,131.8 51.5,128.8 "
       id="polygon4133" />
    <polygon
       style="fill:#000000"
       points="51.5,121.2 50,118.2 48.5,121.2 "
       id="polygon4135" />
    <polygon
       style="fill:none;stroke:#000000;stroke-width:0.40000001"
       points="51.5,121.2 50,118.2 48.5,121.2 "
       id="polygon4137" />
  </g>
  <text
     font-size="4.51556"
     style="font-size:4.51556015px;font-style:normal;font-weight:normal;text-anchor:end;fill:#000000;font-family:CMU Serif"
     x="46.296211"
     y="122.56179"
     id="text4139">
    <tspan
       x="46.296211"
       y="122.56179"
       id="tspan4141">20</tspan>
  </text>
  <g
     id="g4143"
     transform="translate(0.29621055,-4.338214)">
    <line
       style="fill:none;stroke:#000000;stroke-width:0.40000001"
       x1="26"
       y1="128.8"
       x2="26"
       y2="121.2"
       id="line4145" />
    <polygon
       style="fill:#000000"
       points="24.5,128.8 26,131.8 27.5,128.8 "
       id="polygon4147" />
    <polygon
       style="fill:none;stroke:#000000;stroke-width:0.40000001"
       points="24.5,128.8 26,131.8 27.5,128.8 "
       id="polygon4149" />
    <polygon
       style="fill:#000000"
       points="27.5,121.2 26,118.2 24.5,121.2 "
       id="polygon4151" />
    <polygon
       style="fill:none;stroke:#000000;stroke-width:0.40000001"
       points="27.5,121.2 26,118.2 24.5,121.2 "
       id="polygon4153" />
  </g>
  <text
     font-size="4.51556"
     style="font-size:4.51556015px;font-style:normal;font-weight:normal;text-anchor:end;fill:#000000;font-family:CMU Serif"
     x="22.296211"
     y="122.56179"
     id="text4155">
    <tspan
       x="22.296211"
       y="122.56179"
       id="tspan4157">2</tspan>
  </text>
  <g
     id="g4159"
     transform="translate(0.29621055,-4.338214)">
    <line
       style="fill:none;stroke:#000000;stroke-width:0.40000001"
       x1="72"
       y1="42"
       x2="154.8"
       y2="42"
       id="line4161" />
    <polygon
       style="fill:#000000"
       points="154.8,43.5 157.8,42 154.8,40.5 "
       id="polygon4163" />
    <polygon
       style="fill:none;stroke:#000000;stroke-width:0.40000001"
       points="154.8,43.5 157.8,42 154.8,40.5 "
       id="polygon4165" />
  </g>
  <text
     font-size="4.51556"
     style="font-size:4.51556015px;font-style:normal;font-weight:normal;text-anchor:middle;fill:#000000;font-family:CMU Serif"
     x="116.29621"
     y="34.561787"
     id="text4167">
    <tspan
       x="116.29621"
       y="34.561787"
       id="tspan4169">3 to 5</tspan>
  </text>
  <g
     id="g4171"
     transform="translate(0.29621055,-4.338214)">
    <line
       style="fill:none;stroke:#000000;stroke-width:0.40000001"
       x1="56"
       y1="174.8"
       x2="56"
       y2="169.2"
       id="line4173" />
    <polygon
       style="fill:#000000"
       points="54.5,174.8 56,177.8 57.5,174.8 "
       id="polygon4175" />
    <polygon
       style="fill:none;stroke:#000000;stroke-width:0.40000001"
       points="54.5,174.8 56,177.8 57.5,174.8 "
       id="polygon4177" />
    <polygon
       style="fill:#000000"
       points="57.5,169.2 56,166.2 54.5,169.2 "
       id="polygon4179" />
    <polygon
       style="fill:none;stroke:#000000;stroke-width:0.40000001"
       points="57.5,169.2 56,166.2 54.5,169.2 "
       id="polygon4181" />
  </g>
  <text
     font-size="4.51556"
     style="font-size:4.51556015px;font-style:normal;font-weight:normal;text-anchor:end;fill:#000000;font-family:CMU Serif"
     x="52.296211"
     y="168.56178"
     id="text4183">
    <tspan
       x="52.296211"
       y="168.56178"
       id="tspan4185">2</tspan>
  </text>
  <g
     id="g4187"
     transform="translate(0.29621055,-4.338214)">
    <line
       style="fill:none;stroke:#000000;stroke-width:0.40000001"
       x1="26"
       y1="174.8"
       x2="26"
       y2="169.2"
       id="line4189" />
    <polygon
       style="fill:#000000"
       points="24.5,174.8 26,177.8 27.5,174.8 "
       id="polygon4191" />
    <polygon
       style="fill:none;stroke:#000000;stroke-width:0.40000001"
       points="24.5,174.8 26,177.8 27.5,174.8 "
       id="polygon4193" />
    <polygon
       style="fill:#000000"
       points="27.5,169.2 26,166.2 24.5,169.2 "
       id="polygon4195" />
    <polygon
       style="fill:none;stroke:#000000;stroke-width:0.40000001"
       points="27.5,169.2 26,166.2 24.5,169.2 "
       id="polygon4197" />
  </g>
  <text
     font-size="4.51556"
     style="font-size:4.51556015px;font-style:normal;font-weight:normal;text-anchor:end;fill:#000000;font-family:CMU Serif"
     x="22.296211"
     y="168.56178"
     id="text4199">
    <tspan
       x="22.296211"
       y="168.56178"
       id="tspan4201">2</tspan>
  </text>
  <g
     id="g4203"
     transform="translate(0.29621055,-4.338214)">
    <line
       style="fill:none;stroke:#000000;stroke-width:0.40000001"
       x1="75.199997"
       y1="86"
       x2="154.8"
       y2="86"
       id="line4205" />
    <polygon
       style="fill:#000000"
       points="75.2,84.5 72.2,86 75.2,87.5 "
       id="polygon4207" />
    <polygon
       style="fill:none;stroke:#000000;stroke-width:0.40000001"
       points="75.2,84.5 72.2,86 75.2,87.5 "
       id="polygon4209" />
    <polygon
       style="fill:#000000"
       points="154.8,87.5 157.8,86 154.8,84.5 "
       id="polygon4211" />
    <polygon
       style="fill:none;stroke:#000000;stroke-width:0.40000001"
       points="154.8,87.5 157.8,86 154.8,84.5 "
       id="polygon4213" />
  </g>
  <text
     font-size="4.51556"
     style="font-size:4.51556015px;font-style:normal;font-weight:normal;text-anchor:middle;fill:#000000;font-family:CMU Serif"
     x="116.29621"
     y="78.56179"
     id="text4215">
    <tspan
       x="116.29621"
       y="78.56179"
       id="tspan4217">14 or 28</tspan>
  </text>
  <g
     id="g4219"
     transform="translate(0.29621055,-4.338214)">
    <line
       style="fill:none;stroke:#000000;stroke-width:0.40000001"
       x1="194"
       y1="42"
       x2="206.8"
       y2="42"
       id="line4221" />
    <polygon
       style="fill:#000000"
       points="206.8,43.5 209.8,42 206.8,40.5 "
       id="polygon4223" />
    <polygon
       style="fill:none;stroke:#000000;stroke-width:0.40000001"
       points="206.8,43.5 209.8,42 206.8,40.5 "
       id="polygon4225" />
  </g>
  <text
     font-size="4.51556"
     style="font-size:4.51556015px;font-style:normal;font-weight:normal;text-anchor:middle;fill:#000000;font-family:CMU Serif"
     x="202.2962"
     y="34.561787"
     id="text4227">
    <tspan
       x="202.2962"
       y="34.561787"
       id="tspan4229">4</tspan>
  </text>
  <g
     id="g4231"
     transform="translate(0.29621055,-4.338214)">
    <line
       style="fill:none;stroke:#000000;stroke-width:0.40000001"
       x1="197.2"
       y1="94"
       x2="210"
       y2="94"
       id="line4233" />
    <polygon
       style="fill:#000000"
       points="197.2,92.5 194.2,94 197.2,95.5 "
       id="polygon4235" />
    <polygon
       style="fill:none;stroke:#000000;stroke-width:0.40000001"
       points="197.2,92.5 194.2,94 197.2,95.5 "
       id="polygon4237" />
  </g>
  <text
     font-size="4.51556"
     style="font-size:4.51556015px;font-style:normal;font-weight:normal;text-anchor:middle;fill:#000000;font-family:CMU Serif"
     x="202.2962"
     y="86.56179"
     id="text4239">
    <tspan
       x="202.2962"
       y="86.56179"
       id="tspan4241">8</tspan>
  </text>
  <g
     id="g4243"
     transform="translate(0.29621055,-4.338214)">
    <polyline
       style="fill:none;stroke:#000000;stroke-width:0.40000001"
       points="75.2,96 152,96 152,132 154.8,132 "
       id="polyline4245" />
    <polygon
       style="fill:#000000"
       points="75.2,94.5 72.2,96 75.2,97.5 "
       id="polygon4247" />
    <polygon
       style="fill:none;stroke:#000000;stroke-width:0.40000001"
       points="75.2,94.5 72.2,96 75.2,97.5 "
       id="polygon4249" />
    <polygon
       style="fill:#000000"
       points="154.8,133.5 157.8,132 154.8,130.5 "
       id="polygon4251" />
    <polygon
       style="fill:none;stroke:#000000;stroke-width:0.40000001"
       points="154.8,133.5 157.8,132 154.8,130.5 "
       id="polygon4253" />
  </g>
  <text
     font-size="4.51556"
     style="font-size:4.51556015px;font-style:normal;font-weight:normal;text-anchor:middle;fill:#000000;font-family:CMU Serif"
     x="116.29621"
     y="88.56179"
     id="text4255">
    <tspan
       x="116.29621"
       y="88.56179"
       id="tspan4257">7</tspan>
  </text>
  <g
     id="g4259"
     transform="translate(0.29621055,-4.338214)">
    <line
       style="fill:none;stroke:#000000;stroke-width:0.40000001"
       x1="194"
       y1="142"
       x2="206.8"
       y2="142"
       id="line4261" />
    <polygon
       style="fill:#000000"
       points="206.8,143.5 209.8,142 206.8,140.5 "
       id="polygon4263" />
    <polygon
       style="fill:none;stroke:#000000;stroke-width:0.40000001"
       points="206.8,143.5 209.8,142 206.8,140.5 "
       id="polygon4265" />
  </g>
  <text
     font-size="4.51556"
     style="font-size:4.51556015px;font-style:normal;font-weight:normal;text-anchor:middle;fill:#000000;font-family:CMU Serif"
     x="202.2962"
     y="134.56178"
     id="text4267">
    <tspan
       x="202.2962"
       y="134.56178"
       id="tspan4269">32</tspan>
  </text>
  <g
     id="g4271"
     transform="translate(0.29621055,-4.338214)">
    <polyline
       style="fill:none;stroke:#000000;stroke-width:0.40000001"
       points="75.2,116 92,116 92,122.8 "
       id="polyline4273" />
    <polygon
       style="fill:#000000"
       points="75.2,114.5 72.2,116 75.2,117.5 "
       id="polygon4275" />
    <polygon
       style="fill:none;stroke:#000000;stroke-width:0.40000001"
       points="75.2,114.5 72.2,116 75.2,117.5 "
       id="polygon4277" />
    <polygon
       style="fill:#000000"
       points="90.5,122.8 92,125.8 93.5,122.8 "
       id="polygon4279" />
    <polygon
       style="fill:none;stroke:#000000;stroke-width:0.40000001"
       points="90.5,122.8 92,125.8 93.5,122.8 "
       id="polygon4281" />
  </g>
  <g
     id="g4283"
     transform="translate(0.29621055,-4.338214)">
    <polyline
       style="fill:none;stroke:#000000;stroke-width:0.40000001"
       points="72,106 110,106 110,122.8 "
       id="polyline4285" />
    <polygon
       style="fill:#000000"
       points="108.5,122.8 110,125.8 111.5,122.8 "
       id="polygon4287" />
    <polygon
       style="fill:none;stroke:#000000;stroke-width:0.40000001"
       points="108.5,122.8 110,125.8 111.5,122.8 "
       id="polygon4289" />
  </g>
  <text
     font-size="4.51556"
     style="font-size:4.51556015px;font-style:normal;font-weight:normal;text-anchor:middle;fill:#000000;font-family:CMU Serif"
     x="94.296211"
     y="98.56179"
     id="text4291">
    <tspan
       x="94.296211"
       y="98.56179"
       id="tspan4293">JTAG</tspan>
  </text>
  <text
     font-size="4.51556"
     style="font-size:4.51556015px;font-style:normal;font-weight:normal;text-anchor:middle;fill:#000000;font-family:CMU Serif"
     x="86.296211"
     y="108.56179"
     id="text4295">
    <tspan
       x="86.296211"
       y="108.56179"
       id="tspan4297">5</tspan>
  </text>
  <text
     font-size="4.51556"
     style="font-size:4.51556015px;font-style:normal;font-weight:normal;text-anchor:middle;fill:#000000;font-family:CMU Serif"
     x="128.2962"
     y="132.56178"
     id="text4299">
    <tspan
       x="128.2962"
       y="132.56178"
       id="tspan4301">JTAG</tspan>
  </text>
  <g
     id="g4303"
     transform="translate(0.29621055,-4.338214)">
    <line
       style="fill:none;stroke:#000000;stroke-width:0.40000001"
       x1="68"
       y1="132"
       x2="68"
       y2="121.2"
       id="line4305" />
    <polygon
       style="fill:#000000"
       points="69.5,121.2 68,118.2 66.5,121.2 "
       id="polygon4307" />
    <polygon
       style="fill:none;stroke:#000000;stroke-width:0.40000001"
       points="69.5,121.2 68,118.2 66.5,121.2 "
       id="polygon4309" />
  </g>
  <text
     font-size="4.51556"
     style="font-size:4.51556015px;font-style:normal;font-weight:normal;text-anchor:end;fill:#000000;font-family:CMU Serif"
     x="66.296211"
     y="122.56179"
     id="text4311">
    <tspan
       x="66.296211"
       y="122.56179"
       id="tspan4313">JTAG</tspan>
  </text>
  <g
     id="g4315"
     transform="translate(0.29621055,-4.338214)">
    <line
       style="fill:none;stroke:#000000;stroke-width:0.40000001"
       x1="118"
       y1="140"
       x2="154.8"
       y2="140"
       id="line4317" />
    <polygon
       style="fill:#000000"
       points="154.8,141.5 157.8,140 154.8,138.5 "
       id="polygon4319" />
    <polygon
       style="fill:none;stroke:#000000;stroke-width:0.40000001"
       points="154.8,141.5 157.8,140 154.8,138.5 "
       id="polygon4321" />
  </g>
  <g
     id="g4323"
     transform="translate(0.29621055,-4.338214)">
    <polyline
       style="fill:none;stroke:#000000;stroke-width:0.40000001"
       points="68,157.2 68,162 122,162 122,152 158,152 "
       id="polyline4325" />
    <polygon
       style="fill:#000000"
       points="69.5,157.2 68,154.2 66.5,157.2 "
       id="polygon4327" />
    <polygon
       style="fill:none;stroke:#000000;stroke-width:0.40000001"
       points="69.5,157.2 68,154.2 66.5,157.2 "
       id="polygon4329" />
  </g>
  <text
     font-size="4.51556"
     style="font-size:4.51556015px;font-style:normal;font-weight:normal;text-anchor:middle;fill:#000000;font-family:CMU Serif"
     x="128.2962"
     y="144.56178"
     id="text4331">
    <tspan
       x="128.2962"
       y="144.56178"
       id="tspan4333">JTAG</tspan>
  </text>
  <g
     id="g4335"
     transform="translate(0.29621055,-4.338214)">
    <polyline
       style="fill:none;stroke:#000000;stroke-width:0.40000001"
       points="249.2,88 252,88 252,52 "
       id="polyline4337" />
    <polygon
       style="fill:#000000"
       points="249.2,86.5 246.2,88 249.2,89.5 "
       id="polygon4339" />
    <polygon
       style="fill:none;stroke:#000000;stroke-width:0.40000001"
       points="249.2,86.5 246.2,88 249.2,89.5 "
       id="polygon4341" />
  </g>
  <g
     id="g4343"
     transform="translate(0.29621055,-4.338214)">
    <line
       style="fill:none;stroke:#000000;stroke-width:0.40000001"
       x1="246"
       y1="32"
       x2="262.79999"
       y2="32"
       id="line4345" />
    <polygon
       style="fill:#000000"
       points="262.8,33.5 265.8,32 262.8,30.5 "
       id="polygon4347" />
    <polygon
       style="fill:none;stroke:#000000;stroke-width:0.40000001"
       points="262.8,33.5 265.8,32 262.8,30.5 "
       id="polygon4349" />
  </g>
  <text
     font-size="4.51556"
     style="font-size:4.51556015px;font-style:normal;font-weight:normal;text-anchor:middle;fill:#000000;font-family:CMU Serif"
     x="256.2962"
     y="24.561785"
     id="text4351">
    <tspan
       x="256.2962"
       y="24.561785"
       id="tspan4353">4</tspan>
  </text>
  <g
     id="g4355"
     transform="translate(0.29621055,-4.338214)">
    <line
       style="fill:none;stroke:#000000;stroke-width:0.40000001"
       x1="249.2"
       y1="52"
       x2="262.79999"
       y2="52"
       id="line4357" />
    <path
       style="fill:#ffffff"
       d="m 246.2,52 c 0,-0.75 0.75,-1.5 1.5,-1.5 0.75,0 1.5,0.75 1.5,1.5 0,0.75 -0.75,1.5 -1.5,1.5 -0.75,0 -1.5,-0.75 -1.5,-1.5 z"
       id="path4359"
       inkscape:connector-curvature="0" />
    <path
       style="fill:none;stroke:#000000;stroke-width:0.40000001"
       d="m 246.2,52 c 0,-0.75 0.75,-1.5 1.5,-1.5 0.75,0 1.5,0.75 1.5,1.5 0,0.75 -0.75,1.5 -1.5,1.5 -0.75,0 -1.5,-0.75 -1.5,-1.5"
       id="path4361"
       inkscape:connector-curvature="0" />
    <polygon
       style="fill:#000000"
       points="262.8,53.5 265.8,52 262.8,50.5 "
       id="polygon4363" />
    <polygon
       style="fill:none;stroke:#000000;stroke-width:0.40000001"
       points="262.8,53.5 265.8,52 262.8,50.5 "
       id="polygon4365" />
  </g>
  <text
     font-size="4.51556"
     style="font-size:4.51556015px;font-style:normal;font-weight:normal;text-anchor:middle;fill:#000000;font-family:CMU Serif"
     x="256.2962"
     y="44.561787"
     id="text4367">
    <tspan
       x="256.2962"
       y="44.561787"
       id="tspan4369">4</tspan>
  </text>
  <g
     id="g4371"
     transform="translate(0.29621055,-4.338214)">
    <polyline
       style="fill:none;stroke:#000000;stroke-width:0.40000001"
       points="249.2,96 260,96 260,32 "
       id="polyline4373" />
    <polygon
       style="fill:#000000"
       points="249.2,94.5 246.2,96 249.2,97.5 "
       id="polygon4375" />
    <polygon
       style="fill:none;stroke:#000000;stroke-width:0.40000001"
       points="249.2,94.5 246.2,96 249.2,97.5 "
       id="polygon4377" />
  </g>
  <g
     id="g4379"
     transform="translate(0.29621055,-4.338214)">
    <ellipse
       style="fill:#000000"
       cx="252"
       cy="52"
       rx="0.5"
       ry="0.5"
       id="ellipse4381"
       sodipodi:cx="252"
       sodipodi:cy="52"
       sodipodi:rx="0.5"
       sodipodi:ry="0.5"
       d="m 252.5,52 c 0,0.276142 -0.22386,0.5 -0.5,0.5 -0.27614,0 -0.5,-0.223858 -0.5,-0.5 0,-0.276142 0.22386,-0.5 0.5,-0.5 0.27614,0 0.5,0.223858 0.5,0.5 z" />
    <ellipse
       style="fill:none;stroke:#000000;stroke-width:2"
       cx="252"
       cy="52"
       rx="0.5"
       ry="0.5"
       id="ellipse4383"
       sodipodi:cx="252"
       sodipodi:cy="52"
       sodipodi:rx="0.5"
       sodipodi:ry="0.5"
       d="m 252.5,52 c 0,0.276142 -0.22386,0.5 -0.5,0.5 -0.27614,0 -0.5,-0.223858 -0.5,-0.5 0,-0.276142 0.22386,-0.5 0.5,-0.5 0.27614,0 0.5,0.223858 0.5,0.5 z" />
  </g>
  <g
     id="g4385"
     transform="translate(0.29621055,-4.338214)">
    <ellipse
       style="fill:#000000"
       cx="260"
       cy="32"
       rx="0.5"
       ry="0.5"
       id="ellipse4387"
       sodipodi:cx="260"
       sodipodi:cy="32"
       sodipodi:rx="0.5"
       sodipodi:ry="0.5"
       d="m 260.5,32 c 0,0.276142 -0.22386,0.5 -0.5,0.5 -0.27614,0 -0.5,-0.223858 -0.5,-0.5 0,-0.276142 0.22386,-0.5 0.5,-0.5 0.27614,0 0.5,0.223858 0.5,0.5 z" />
    <ellipse
       style="fill:none;stroke:#000000;stroke-width:2"
       cx="260"
       cy="32"
       rx="0.5"
       ry="0.5"
       id="ellipse4389"
       sodipodi:cx="260"
       sodipodi:cy="32"
       sodipodi:rx="0.5"
       sodipodi:ry="0.5"
       d="m 260.5,32 c 0,0.276142 -0.22386,0.5 -0.5,0.5 -0.27614,0 -0.5,-0.223858 -0.5,-0.5 0,-0.276142 0.22386,-0.5 0.5,-0.5 0.27614,0 0.5,0.223858 0.5,0.5 z" />
  </g>
  <g
     id="g4391"
     transform="translate(0.29621055,-4.338214)">
    <line
       style="fill:none;stroke:#000000;stroke-width:0.40000001"
       x1="249.2"
       y1="138"
       x2="266"
       y2="138"
       id="line4393" />
    <polygon
       style="fill:#000000"
       points="249.2,136.5 246.2,138 249.2,139.5 "
       id="polygon4395" />
    <polygon
       style="fill:none;stroke:#000000;stroke-width:0.40000001"
       points="249.2,136.5 246.2,138 249.2,139.5 "
       id="polygon4397" />
  </g>
  <text
     font-size="4.51556"
     style="font-size:4.51556015px;font-style:normal;font-weight:normal;text-anchor:middle;fill:#000000;font-family:CMU Serif"
     x="256.2962"
     y="114.56179"
     id="text4399">
    <tspan
       x="256.2962"
       y="114.56179"
       id="tspan4401">8</tspan>
  </text>
  <g
     id="g4403"
     transform="translate(0.29621055,-4.338214)">
    <line
       style="fill:none;stroke:#000000;stroke-width:0.40000001"
       x1="249.2"
       y1="122"
       x2="262.79999"
       y2="122"
       id="line4405" />
    <polygon
       style="fill:#000000"
       points="249.2,120.5 246.2,122 249.2,123.5 "
       id="polygon4407" />
    <polygon
       style="fill:none;stroke:#000000;stroke-width:0.40000001"
       points="249.2,120.5 246.2,122 249.2,123.5 "
       id="polygon4409" />
    <polygon
       style="fill:#000000"
       points="262.8,123.5 265.8,122 262.8,120.5 "
       id="polygon4411" />
    <polygon
       style="fill:none;stroke:#000000;stroke-width:0.40000001"
       points="262.8,123.5 265.8,122 262.8,120.5 "
       id="polygon4413" />
  </g>
  <text
     font-size="4.51556"
     style="font-size:4.51556015px;font-style:normal;font-weight:normal;text-anchor:middle;fill:#000000;font-family:CMU Serif"
     x="256.2962"
     y="130.56178"
     id="text4415">
    <tspan
       x="256.2962"
       y="130.56178"
       id="tspan4417">8</tspan>
  </text>
  <g
     id="g4419"
     transform="translate(0.29621055,-4.338214)">
    <line
       style="fill:none;stroke:#000000;stroke-width:0.40000001"
       x1="26"
       y1="158.8"
       x2="26"
       y2="157.2"
       id="line4421" />
    <polygon
       style="fill:#000000"
       points="24.5,158.8 26,161.8 27.5,158.8 "
       id="polygon4423" />
    <polygon
       style="fill:none;stroke:#000000;stroke-width:0.40000001"
       points="24.5,158.8 26,161.8 27.5,158.8 "
       id="polygon4425" />
    <polygon
       style="fill:#000000"
       points="27.5,157.2 26,154.2 24.5,157.2 "
       id="polygon4427" />
    <polygon
       style="fill:none;stroke:#000000;stroke-width:0.40000001"
       points="27.5,157.2 26,154.2 24.5,157.2 "
       id="polygon4429" />
  </g>
  <g
     id="g4431"
     transform="translate(0.29621055,-4.338214)">
    <line
       style="fill:none;stroke:#000000;stroke-width:0.40000001"
       x1="56"
       y1="158.8"
       x2="56"
       y2="157.2"
       id="line4433" />
    <polygon
       style="fill:#000000"
       points="54.5,158.8 56,161.8 57.5,158.8 "
       id="polygon4435" />
    <polygon
       style="fill:none;stroke:#000000;stroke-width:0.40000001"
       points="54.5,158.8 56,161.8 57.5,158.8 "
       id="polygon4437" />
    <polygon
       style="fill:#000000"
       points="57.5,157.2 56,154.2 54.5,157.2 "
       id="polygon4439" />
    <polygon
       style="fill:none;stroke:#000000;stroke-width:0.40000001"
       points="57.5,157.2 56,154.2 54.5,157.2 "
       id="polygon4441" />
  </g>
  <g
     id="g4443"
     transform="translate(0.29621055,-4.338214)">
    <line
       style="fill:none;stroke:#000000;stroke-width:0.40000001"
       x1="274"
       y1="32"
       x2="294.79999"
       y2="32"
       id="line4445" />
    <polygon
       style="fill:#000000"
       points="294.8,33.5 297.8,32 294.8,30.5 "
       id="polygon4447" />
    <polygon
       style="fill:none;stroke:#000000;stroke-width:0.40000001"
       points="294.8,33.5 297.8,32 294.8,30.5 "
       id="polygon4449" />
  </g>
  <g
     id="g4451"
     transform="translate(0.29621055,-4.338214)">
    <line
       style="fill:none;stroke:#000000;stroke-width:0.40000001"
       x1="274"
       y1="52"
       x2="294.79999"
       y2="52"
       id="line4453" />
    <polygon
       style="fill:#000000"
       points="294.8,53.5 297.8,52 294.8,50.5 "
       id="polygon4455" />
    <polygon
       style="fill:none;stroke:#000000;stroke-width:0.40000001"
       points="294.8,53.5 297.8,52 294.8,50.5 "
       id="polygon4457" />
  </g>
  <text
     font-size="4.51556"
     style="font-size:4.51556015px;font-style:normal;font-weight:normal;text-anchor:middle;fill:#000000;font-family:CMU Serif"
     x="286.2962"
     y="44.561787"
     id="text4459">
    <tspan
       x="286.2962"
       y="44.561787"
       id="tspan4461">‒</tspan>
  </text>
  <text
     font-size="4.51556"
     style="font-size:4.51556015px;font-style:normal;font-weight:normal;text-anchor:middle;fill:#000000;font-family:CMU Serif"
     x="286.2962"
     y="24.561785"
     id="text4463">
    <tspan
       x="286.2962"
       y="24.561785"
       id="tspan4465">+</tspan>
  </text>
  <g
     id="g4467"
     transform="translate(0.29621055,-4.338214)">
    <line
       style="fill:none;stroke:#000000;stroke-width:0.40000001"
       x1="274"
       y1="42"
       x2="294.79999"
       y2="42"
       id="line4469" />
    <polygon
       style="fill:#000000"
       points="294.8,43.5 297.8,42 294.8,40.5 "
       id="polygon4471" />
    <polygon
       style="fill:none;stroke:#000000;stroke-width:0.40000001"
       points="294.8,43.5 297.8,42 294.8,40.5 "
       id="polygon4473" />
  </g>
  <text
     font-size="4.51556"
     style="font-size:4.51556015px;font-style:normal;font-weight:normal;text-anchor:middle;fill:#000000;font-family:CMU Serif"
     x="286.2962"
     y="34.561787"
     id="text4475">
    <tspan
       x="286.2962"
       y="34.561787"
       id="tspan4477">GND</tspan>
  </text>
  <g
     id="g4479"
     transform="translate(0.29621055,-4.338214)">
    <line
       style="fill:none;stroke:#000000;stroke-width:0.40000001"
       x1="277.20001"
       y1="138"
       x2="298"
       y2="138"
       id="line4481" />
    <polygon
       style="fill:#000000"
       points="277.2,136.5 274.2,138 277.2,139.5 "
       id="polygon4483" />
    <polygon
       style="fill:none;stroke:#000000;stroke-width:0.40000001"
       points="277.2,136.5 274.2,138 277.2,139.5 "
       id="polygon4485" />
  </g>
  <text
     font-size="4.51556"
     style="font-size:4.51556015px;font-style:normal;font-weight:normal;text-anchor:middle;fill:#000000;font-family:CMU Serif"
     x="286.2962"
     y="114.56179"
     id="text4487">
    <tspan
       x="286.2962"
       y="114.56179"
       id="tspan4489">+</tspan>
  </text>
  <g
     id="g4491"
     transform="translate(0.29621055,-4.338214)">
    <line
       style="fill:none;stroke:#000000;stroke-width:0.40000001"
       x1="277.20001"
       y1="122"
       x2="294.79999"
       y2="122"
       id="line4493" />
    <polygon
       style="fill:#000000"
       points="277.2,120.5 274.2,122 277.2,123.5 "
       id="polygon4495" />
    <polygon
       style="fill:none;stroke:#000000;stroke-width:0.40000001"
       points="277.2,120.5 274.2,122 277.2,123.5 "
       id="polygon4497" />
    <polygon
       style="fill:#000000"
       points="294.8,123.5 297.8,122 294.8,120.5 "
       id="polygon4499" />
    <polygon
       style="fill:none;stroke:#000000;stroke-width:0.40000001"
       points="294.8,123.5 297.8,122 294.8,120.5 "
       id="polygon4501" />
  </g>
  <text
     font-size="4.51556"
     style="font-size:4.51556015px;font-style:normal;font-weight:normal;text-anchor:middle;fill:#000000;font-family:CMU Serif"
     x="286.2962"
     y="130.56178"
     id="text4503">
    <tspan
       x="286.2962"
       y="130.56178"
       id="tspan4505">‒</tspan>
  </text>
  <line
     style="fill:none;stroke:#000000;stroke-width:0.40000001"
     x1="114.29621"
     y1="93.661789"
     x2="118.29621"
     y2="89.661789"
     id="line4507" />
  <line
     style="fill:none;stroke:#000000;stroke-width:0.40000001"
     x1="114.29621"
     y1="83.661789"
     x2="118.29621"
     y2="79.661789"
     id="line4509" />
  <line
     style="fill:none;stroke:#000000;stroke-width:0.40000001"
     x1="92.296211"
     y1="103.66178"
     x2="96.296211"
     y2="99.661789"
     id="line4511" />
  <line
     style="fill:none;stroke:#000000;stroke-width:0.40000001"
     x1="84.296211"
     y1="113.66178"
     x2="88.296211"
     y2="109.66178"
     id="line4513" />
  <line
     style="fill:none;stroke:#000000;stroke-width:0.40000001"
     x1="126.29621"
     y1="137.66179"
     x2="130.2962"
     y2="133.66179"
     id="line4515" />
  <line
     style="fill:none;stroke:#000000;stroke-width:0.40000001"
     x1="126.29621"
     y1="149.66179"
     x2="130.2962"
     y2="145.66179"
     id="line4517" />
  <line
     style="fill:none;stroke:#000000;stroke-width:0.40000001"
     x1="200.2962"
     y1="139.66179"
     x2="204.2962"
     y2="135.66179"
     id="line4519" />
  <line
     style="fill:none;stroke:#000000;stroke-width:0.40000001"
     x1="254.2962"
     y1="135.66179"
     x2="258.2962"
     y2="131.66179"
     id="line4521" />
  <line
     style="fill:none;stroke:#000000;stroke-width:0.40000001"
     x1="254.2962"
     y1="119.66178"
     x2="258.2962"
     y2="115.66178"
     id="line4523" />
  <line
     style="fill:none;stroke:#000000;stroke-width:0.40000001"
     x1="284.2962"
     y1="119.66178"
     x2="288.2962"
     y2="115.66178"
     id="line4525" />
  <line
     style="fill:none;stroke:#000000;stroke-width:0.40000001"
     x1="284.2962"
     y1="135.66179"
     x2="288.2962"
     y2="131.66179"
     id="line4527" />
  <line
     style="fill:none;stroke:#000000;stroke-width:0.40000001"
     x1="254.2962"
     y1="29.661785"
     x2="258.2962"
     y2="25.661785"
     id="line4529" />
  <line
     style="fill:none;stroke:#000000;stroke-width:0.40000001"
     x1="254.2962"
     y1="49.661785"
     x2="258.2962"
     y2="45.661785"
     id="line4531" />
  <line
     style="fill:none;stroke:#000000;stroke-width:0.40000001"
     x1="284.2962"
     y1="49.661785"
     x2="288.2962"
     y2="45.661785"
     id="line4533" />
  <line
     style="fill:none;stroke:#000000;stroke-width:0.40000001"
     x1="284.2962"
     y1="39.661785"
     x2="288.2962"
     y2="35.661785"
     id="line4535" />
  <line
     style="fill:none;stroke:#000000;stroke-width:0.40000001"
     x1="284.2962"
     y1="29.661785"
     x2="288.2962"
     y2="25.661785"
     id="line4537" />
  <line
     style="fill:none;stroke:#000000;stroke-width:0.40000001"
     x1="78.296211"
     y1="59.661785"
     x2="82.296211"
     y2="55.661785"
     id="line4539" />
  <line
     style="fill:none;stroke:#000000;stroke-width:0.40000001"
     x1="114.29621"
     y1="39.661785"
     x2="118.29621"
     y2="35.661785"
     id="line4541" />
  <line
     style="fill:none;stroke:#000000;stroke-width:0.40000001"
     x1="200.2962"
     y1="39.661785"
     x2="204.2962"
     y2="35.661785"
     id="line4543" />
  <line
     style="fill:none;stroke:#000000;stroke-width:0.40000001"
     x1="200.2962"
     y1="91.661789"
     x2="204.2962"
     y2="87.661789"
     id="line4545" />
  <line
     style="fill:none;stroke:#000000;stroke-width:0.40000001"
     x1="24.296211"
     y1="123.66178"
     x2="28.296211"
     y2="119.66178"
     id="line4547" />
  <line
     style="fill:none;stroke:#000000;stroke-width:0.40000001"
     x1="48.296211"
     y1="123.66178"
     x2="52.296211"
     y2="119.66178"
     id="line4549" />
  <line
     style="fill:none;stroke:#000000;stroke-width:0.40000001"
     x1="66.296211"
     y1="123.66178"
     x2="70.296211"
     y2="119.66178"
     id="line4551" />
  <line
     style="fill:none;stroke:#000000;stroke-width:0.40000001"
     x1="54.296211"
     y1="169.66179"
     x2="58.296211"
     y2="165.66179"
     id="line4553" />
  <line
     style="fill:none;stroke:#000000;stroke-width:0.40000001"
     x1="24.296211"
     y1="169.66179"
     x2="28.296211"
     y2="165.66179"
     id="line4555" />
  <g
     id="g4557"
     transform="translate(0.29621055,-4.338214)">
    <rect
       style="fill:#c7ffc7"
       x="126"
       y="184"
       width="8"
       height="8"
       id="rect4559" />
    <rect
       style="fill:none;stroke:#000000;stroke-width:0.40000001"
       x="126"
       y="184"
       width="8"
       height="8"
       id="rect4561" />
  </g>
  <text
     font-size="4.51556"
     style="font-size:4.51556015px;font-style:normal;font-weight:normal;text-anchor:start;fill:#000000;font-family:CMU Serif"
     x="136.2962"
     y="185.21179"
     id="text4563">
    <tspan
       x="136.2962"
       y="185.21179"
       id="tspan4565">Digital Part(s)</tspan>
  </text>
  <g
     id="g4567"
     transform="translate(0.29621055,-4.338214)">
    <rect
       style="fill:#ffc7d1"
       x="176"
       y="184"
       width="8"
       height="8"
       id="rect4569" />
    <rect
       style="fill:none;stroke:#000000;stroke-width:0.40000001"
       x="176"
       y="184"
       width="8"
       height="8"
       id="rect4571" />
  </g>
  <text
     font-size="4.51556"
     style="font-size:4.51556015px;font-style:normal;font-weight:normal;text-anchor:start;fill:#000000;font-family:CMU Serif"
     x="186.2962"
     y="185.21179"
     id="text4573">
    <tspan
       x="186.2962"
       y="185.21179"
       id="tspan4575">Analog Part(s)</tspan>
  </text>
  <g
     id="g4577"
     transform="translate(0.29621055,-4.338214)">
    <rect
       style="fill:#ffffc7"
       x="226"
       y="184"
       width="8"
       height="8"
       id="rect4579" />
    <rect
       style="fill:none;stroke:#000000;stroke-width:0.40000001"
       x="226"
       y="184"
       width="8"
       height="8"
       id="rect4581" />
  </g>
  <text
     font-size="4.51556"
     style="font-size:4.51556015px;font-style:normal;font-weight:normal;text-anchor:start;fill:#000000;font-family:CMU Serif"
     x="236.2962"
     y="185.21179"
     id="text4583">
    <tspan
       x="236.2962"
       y="185.21179"
       id="tspan4585">Connector(s)</tspan>
  </text>
</svg>
